Italic_opsz10.ufo
<glyph name="comma" format="2">
  <advance width="277"/>
  <unicode hex="002C"/>
  <outline>
    <contour>
      <point x="86" y="53" type="curve" smooth="yes"/>
      <point x="86" y="26"/>
      <point x="106" y="0"/>
      <point x="139" y="0" type="curve" smooth="yes"/>
      <point x="151" y="0"/>
      <point x="164" y="4"/>
      <point x="174" y="13" type="curve"/>
      <point x="177" y="15"/>
      <point x="178" y="16"/>
      <point x="179" y="16" type="curve" smooth="yes"/>
      <point x="180" y="16"/>
      <point x="181" y="15"/>
      <point x="181" y="1" type="curve" smooth="yes"/>
      <point x="181" y="-73"/>
      <point x="146" y="-133"/>
      <point x="113" y="-166" type="curve" smooth="yes"/>
      <point x="102" y="-177"/>
      <point x="102" y="-179"/>
      <point x="102" y="-182" type="curve" smooth="yes"/>
      <point x="102" y="-189"/>
      <point x="107" y="-193"/>
      <point x="112" y="-193" type="curve" smooth="yes"/>
      <point x="123" y="-193"/>
      <point x="203" y="-116"/>
      <point x="203" y="1" type="curve" smooth="yes"/>
      <point x="203" y="67"/>
      <point x="178" y="106"/>
      <point x="139" y="106" type="curve" smooth="yes"/>
      <point x="106" y="106"/>
      <point x="86" y="81"/>
    </contour>
  </outline>
</glyph>
<glyph name="one" format="2">
  <advance width="500"/>
  <unicode hex="0031"/>
  <outline>
    <contour>
      <point x="223" y="393" type="curve"/>
      <point x="223" y="79" type="line" smooth="yes"/>
      <point x="223.0" y="48.565200000000004"/>
      <point x="223.0" y="36.65594102080001"/>
      <point x="182.47535586007373" y="32.70057676502793" type="curve" smooth="yes"/>
      <point x="169.7390695652" y="31.457465255200006"/>
      <point x="152.99996" y="31.000000000000007"/>
      <point x="131" y="31" type="curve" smooth="yes"/>
      <point x="103" y="31"/>
      <point x="98" y="31"/>
      <point x="98" y="15" type="curve" smooth="yes"/>
      <point x="98" y="0"/>
      <point x="108" y="0"/>
      <point x="115" y="0" type="curve" smooth="yes"/>
      <point x="147" y="0"/>
      <point x="226" y="3"/>
      <point x="258" y="3" type="curve" smooth="yes"/>
      <point x="283" y="3"/>
      <point x="308" y="2"/>
      <point x="332" y="2" type="curve" smooth="yes"/>
      <point x="355" y="2"/>
      <point x="379" y="0"/>
      <point x="402" y="0" type="curve" smooth="yes"/>
      <point x="409" y="0"/>
      <point x="419" y="0"/>
      <point x="419" y="15" type="curve" smooth="yes"/>
      <point x="419" y="31"/>
      <point x="414" y="31"/>
      <point x="385" y="31" type="curve" smooth="yes"/>
      <point x="363.99993" y="31.0"/>
      <point x="347.84604615390003" y="31.4260383432"/>
      <point x="335.4199940829645" y="32.57306563498079" type="curve" smooth="yes"/>
      <point x="294.0" y="36.3964733728"/>
      <point x="294.0" y="48.2308"/>
      <point x="294" y="79" type="curve" smooth="yes"/>
      <point x="294" y="425" type="line" smooth="yes"/>
      <point x="294" y="444"/>
      <point x="294" y="453"/>
      <point x="282" y="453" type="curve" smooth="yes"/>
      <point x="279" y="453"/>
      <point x="276" y="451"/>
      <point x="269" y="447" type="curve"/>
      <point x="255" y="438"/>
      <point x="214" y="411"/>
      <point x="121" y="410" type="curve"/>
      <point x="98" y="410"/>
      <point x="93" y="410"/>
      <point x="93" y="394" type="curve" smooth="yes"/>
      <point x="93" y="379"/>
      <point x="99" y="379"/>
      <point x="119" y="379" type="curve" smooth="yes"/>
      <point x="125" y="379"/>
      <point x="178" y="379"/>
    </contour>
  </outline>
</glyph>
<glyph name="four" format="2">
  <advance width="500"/>
  <unicode hex="0034"/>
  <outline>
    <contour>
      <point x="215" y="-194" type="curve" smooth="yes"/>
      <point x="235" y="-194"/>
      <point x="255" y="-193"/>
      <point x="276" y="-192" type="curve" smooth="yes"/>
      <point x="295" y="-192"/>
      <point x="314" y="-191"/>
      <point x="333" y="-191" type="curve" smooth="yes"/>
      <point x="348" y="-191"/>
      <point x="376" y="-192"/>
      <point x="402" y="-193" type="curve" smooth="yes"/>
      <point x="421" y="-193"/>
      <point x="440" y="-194"/>
      <point x="451" y="-194" type="curve" smooth="yes"/>
      <point x="463" y="-194"/>
      <point x="467" y="-189"/>
      <point x="467" y="-179" type="curve" smooth="yes"/>
      <point x="467" y="-163"/>
      <point x="461" y="-163"/>
      <point x="442" y="-163" type="curve" smooth="yes"/>
      <point x="442" y="-163"/>
      <point x="442" y="-163"/>
      <point x="442" y="-163" type="curve" smooth="yes"/>
      <point x="370" y="-163"/>
      <point x="370" y="-157"/>
      <point x="370" y="-117" type="curve" smooth="yes"/>
      <point x="370" y="0" type="line"/>
      <point x="443" y="0" type="line" smooth="yes"/>
      <point x="465" y="0"/>
      <point x="471" y="0"/>
      <point x="471" y="16" type="curve" smooth="yes"/>
      <point x="471" y="31"/>
      <point x="465" y="31"/>
      <point x="443" y="31" type="curve" smooth="yes"/>
      <point x="370" y="31" type="line"/>
      <point x="370" y="436" type="line" smooth="yes"/>
      <point x="370" y="460"/>
      <point x="370" y="464"/>
      <point x="353" y="464" type="curve" smooth="yes"/>
      <point x="341" y="464"/>
      <point x="340" y="462"/>
      <point x="332" y="451" type="curve" smooth="yes"/>
      <point x="28" y="31" type="line"/>
      <point x="28" y="31"/>
      <point x="28" y="31"/>
      <point x="28" y="31" type="curve"/>
      <point x="28" y="1"/>
      <point x="29" y="0"/>
      <point x="56" y="0" type="curve" smooth="yes"/>
      <point x="296" y="0" type="line"/>
      <point x="296" y="-117" type="line" smooth="yes"/>
      <point x="296" y="-157"/>
      <point x="296" y="-163"/>
      <point x="225" y="-163" type="curve" smooth="yes"/>
      <point x="225" y="-163"/>
      <point x="225" y="-163"/>
      <point x="225" y="-163" type="curve" smooth="yes"/>
      <point x="205" y="-163"/>
      <point x="199" y="-163"/>
      <point x="199" y="-179" type="curve" smooth="yes"/>
      <point x="199" y="-189"/>
      <point x="202" y="-194"/>
    </contour>
    <contour>
      <point x="302" y="31" type="line"/>
      <point x="57" y="31" type="line"/>
      <point x="302" y="370" type="line"/>
    </contour>
  </outline>
</glyph>
<glyph name="less" format="2">
  <advance width="777"/>
  <unicode hex="003C"/>
  <outline>
    <contour>
      <point x="675" y="498" type="line" smooth="yes"/>
      <point x="687" y="504"/>
      <point x="694" y="509"/>
      <point x="694" y="520" type="curve" smooth="yes"/>
      <point x="694" y="531"/>
      <point x="685" y="540"/>
      <point x="674" y="540" type="curve" smooth="yes"/>
      <point x="671" y="540"/>
      <point x="669" y="540"/>
      <point x="656" y="533" type="curve"/>
      <point x="102" y="272" type="line" smooth="yes"/>
      <point x="91" y="267"/>
      <point x="83" y="262"/>
      <point x="83" y="250" type="curve" smooth="yes"/>
      <point x="83" y="238"/>
      <point x="91" y="233"/>
      <point x="102" y="228" type="curve" smooth="yes"/>
      <point x="656" y="-33" type="line"/>
      <point x="669" y="-40"/>
      <point x="671" y="-40"/>
      <point x="674" y="-40" type="curve" smooth="yes"/>
      <point x="685" y="-40"/>
      <point x="694" y="-31"/>
      <point x="694" y="-20" type="curve" smooth="yes"/>
      <point x="694" y="-9"/>
      <point x="687" y="-4"/>
      <point x="675" y="2" type="curve" smooth="yes"/>
      <point x="150" y="250" type="line"/>
    </contour>
  </outline>
</glyph>
<glyph name="greater" format="2">
  <advance width="777"/>
  <unicode hex="003E"/>
  <outline>
    <contour>
      <point x="675" y="228" type="line" smooth="yes"/>
      <point x="686" y="233"/>
      <point x="694" y="238"/>
      <point x="694" y="250" type="curve" smooth="yes"/>
      <point x="694" y="262"/>
      <point x="686" y="267"/>
      <point x="675" y="272" type="curve" smooth="yes"/>
      <point x="121" y="533" type="line"/>
      <point x="108" y="540"/>
      <point x="106" y="540"/>
      <point x="103" y="540" type="curve" smooth="yes"/>
      <point x="92" y="540"/>
      <point x="83" y="531"/>
      <point x="83" y="520" type="curve" smooth="yes"/>
      <point x="83" y="511"/>
      <point x="88" y="505"/>
      <point x="102" y="498" type="curve" smooth="yes"/>
      <point x="627" y="250" type="line"/>
      <point x="102" y="2" type="line" smooth="yes"/>
      <point x="88" y="-5"/>
      <point x="83" y="-11"/>
      <point x="83" y="-20" type="curve" smooth="yes"/>
      <point x="83" y="-31"/>
      <point x="92" y="-40"/>
      <point x="103" y="-40" type="curve" smooth="yes"/>
      <point x="106" y="-40"/>
      <point x="108" y="-40"/>
      <point x="121" y="-33" type="curve"/>
    </contour>
  </outline>
</glyph>
<glyph name="A" format="2">
  <advance width="750"/>
  <unicode hex="0041"/>
  <outline>
    <contour>
      <point x="179" y="115" type="line" smooth="yes"/>
      <point x="139" y="48"/>
      <point x="100" y="34"/>
      <point x="56" y="31" type="curve" smooth="yes"/>
      <point x="44" y="30"/>
      <point x="35" y="30"/>
      <point x="35" y="11" type="curve" smooth="yes"/>
      <point x="35" y="5"/>
      <point x="40" y="0"/>
      <point x="48" y="0" type="curve" smooth="yes"/>
      <point x="75" y="0"/>
      <point x="106" y="3"/>
      <point x="134" y="3" type="curve" smooth="yes"/>
      <point x="167" y="3"/>
      <point x="202" y="0"/>
      <point x="234" y="0" type="curve" smooth="yes"/>
      <point x="240" y="0"/>
      <point x="253" y="0"/>
      <point x="253" y="19" type="curve" smooth="yes"/>
      <point x="253" y="30"/>
      <point x="244" y="31"/>
      <point x="237" y="31" type="curve"/>
      <point x="214" y="33"/>
      <point x="190" y="41"/>
      <point x="190" y="66" type="curve" smooth="yes"/>
      <point x="190" y="78"/>
      <point x="196" y="89"/>
      <point x="204" y="103" type="curve" smooth="yes"/>
      <point x="280" y="231" type="line"/>
      <point x="531" y="231" type="line"/>
      <point x="533" y="210"/>
      <point x="547" y="74"/>
      <point x="547" y="64" type="curve" smooth="yes"/>
      <point x="547" y="34"/>
      <point x="495" y="31"/>
      <point x="475" y="31" type="curve" smooth="yes"/>
      <point x="461" y="31"/>
      <point x="451" y="31"/>
      <point x="451" y="11" type="curve" smooth="yes"/>
      <point x="451" y="0"/>
      <point x="463" y="0"/>
      <point x="465" y="0" type="curve" smooth="yes"/>
      <point x="506" y="0"/>
      <point x="549" y="3"/>
      <point x="590" y="3" type="curve" smooth="yes"/>
      <point x="615" y="3"/>
      <point x="678" y="0"/>
      <point x="703" y="0" type="curve" smooth="yes"/>
      <point x="709" y="0"/>
      <point x="721" y="0"/>
      <point x="721" y="20" type="curve" smooth="yes"/>
      <point x="721" y="31"/>
      <point x="711" y="31"/>
      <point x="698" y="31" type="curve" smooth="yes"/>
      <point x="636" y="31"/>
      <point x="636" y="38"/>
      <point x="633" y="67" type="curve" smooth="yes"/>
      <point x="572" y="692" type="line" smooth="yes"/>
      <point x="570" y="712"/>
      <point x="570" y="716"/>
      <point x="553" y="716" type="curve" smooth="yes"/>
      <point x="537" y="716"/>
      <point x="533" y="709"/>
      <point x="527" y="699" type="curve" smooth="yes"/>
    </contour>
    <contour>
      <point x="299" y="262" type="line"/>
      <point x="496" y="592" type="line"/>
      <point x="528" y="262" type="line"/>
    </contour>
  </outline>
</glyph>
<glyph name="B" format="2">
  <advance width="758"/>
  <unicode hex="0042"/>
  <outline>
    <contour>
      <point x="160" y="78" type="line" smooth="yes"/>
      <point x="150" y="39"/>
      <point x="148" y="31"/>
      <point x="69" y="31" type="curve" smooth="yes"/>
      <point x="52" y="31"/>
      <point x="42" y="31"/>
      <point x="42" y="11" type="curve" smooth="yes"/>
      <point x="42" y="0"/>
      <point x="51" y="0"/>
      <point x="69" y="0" type="curve" smooth="yes"/>
      <point x="426" y="0" type="line" smooth="yes"/>
      <point x="584" y="0"/>
      <point x="702" y="118"/>
      <point x="702" y="216" type="curve" smooth="yes"/>
      <point x="702" y="288"/>
      <point x="644" y="346"/>
      <point x="547" y="357" type="curve"/>
      <point x="651" y="376"/>
      <point x="756" y="450"/>
      <point x="756" y="545" type="curve" smooth="yes"/>
      <point x="756" y="619"/>
      <point x="690" y="683"/>
      <point x="570" y="683" type="curve" smooth="yes"/>
      <point x="234" y="683" type="line" smooth="yes"/>
      <point x="215" y="683"/>
      <point x="205" y="683"/>
      <point x="205" y="663" type="curve" smooth="yes"/>
      <point x="205" y="652"/>
      <point x="214" y="652"/>
      <point x="233" y="652" type="curve" smooth="yes"/>
      <point x="235" y="652"/>
      <point x="254" y="652"/>
      <point x="271" y="650" type="curve" smooth="yes"/>
      <point x="289" y="648"/>
      <point x="298" y="647"/>
      <point x="298" y="634" type="curve" smooth="yes"/>
      <point x="298" y="630"/>
      <point x="297" y="627"/>
      <point x="294" y="615" type="curve" smooth="yes"/>
    </contour>
    <contour>
      <point x="311" y="366" type="line"/>
      <point x="373" y="614" type="line" smooth="yes"/>
      <point x="382" y="649"/>
      <point x="384" y="652"/>
      <point x="427" y="652" type="curve" smooth="yes"/>
      <point x="556" y="652" type="line" smooth="yes"/>
      <point x="644" y="652"/>
      <point x="665" y="593"/>
      <point x="665" y="549" type="curve" smooth="yes"/>
      <point x="665" y="461"/>
      <point x="579" y="366"/>
      <point x="457" y="366" type="curve" smooth="yes"/>
    </contour>
    <contour>
      <point x="266" y="31" type="line" smooth="yes"/>
      <point x="252" y="31"/>
      <point x="250" y="31"/>
      <point x="244" y="32" type="curve"/>
      <point x="234" y="33"/>
      <point x="231" y="34"/>
      <point x="231" y="42" type="curve" smooth="yes"/>
      <point x="231" y="45"/>
      <point x="231" y="47"/>
      <point x="236" y="65" type="curve" smooth="yes"/>
      <point x="305" y="344" type="line"/>
      <point x="494" y="344" type="line" smooth="yes"/>
      <point x="590" y="344"/>
      <point x="609" y="270"/>
      <point x="609" y="227" type="curve" smooth="yes"/>
      <point x="609" y="128"/>
      <point x="520" y="31"/>
      <point x="402" y="31" type="curve" smooth="yes"/>
    </contour>
  </outline>
</glyph>
<glyph name="E" format="2">
  <advance width="738"/>
  <unicode hex="0045"/>
  <outline>
    <contour>
      <point x="157" y="78" type="line" smooth="yes"/>
      <point x="147" y="39"/>
      <point x="145" y="31"/>
      <point x="66" y="31" type="curve" smooth="yes"/>
      <point x="49" y="31"/>
      <point x="38" y="31"/>
      <point x="38" y="12" type="curve" smooth="yes"/>
      <point x="38" y="0"/>
      <point x="47" y="0"/>
      <point x="66" y="0" type="curve" smooth="yes"/>
      <point x="585" y="0" type="line" smooth="yes"/>
      <point x="608" y="0"/>
      <point x="609" y="1"/>
      <point x="616" y="17" type="curve" smooth="yes"/>
      <point x="708" y="233" type="line" smooth="yes"/>
      <point x="710" y="238"/>
      <point x="713" y="245"/>
      <point x="713" y="247" type="curve" smooth="yes"/>
      <point x="713" y="248"/>
      <point x="713" y="258"/>
      <point x="701" y="258" type="curve" smooth="yes"/>
      <point x="692" y="258"/>
      <point x="691" y="253"/>
      <point x="688" y="246" type="curve" smooth="yes"/>
      <point x="624" y="98"/>
      <point x="586" y="31"/>
      <point x="415" y="31" type="curve" smooth="yes"/>
      <point x="259" y="31" type="line" smooth="yes"/>
      <point x="223" y="31"/>
      <point x="235" y="47"/>
      <point x="239" y="65" type="curve" smooth="yes"/>
      <point x="307" y="338" type="line"/>
      <point x="406" y="338" type="line" smooth="yes"/>
      <point x="491" y="338"/>
      <point x="491" y="317"/>
      <point x="491" y="292" type="curve" smooth="yes"/>
      <point x="491" y="285"/>
      <point x="491" y="270"/>
      <point x="484" y="243" type="curve" smooth="yes"/>
      <point x="481" y="230"/>
      <point x="479.6" y="221.0"/>
      <point x="494" y="221" type="curve" smooth="yes"/>
      <point x="502" y="221"/>
      <point x="505" y="226"/>
      <point x="509" y="241" type="curve" smooth="yes"/>
      <point x="566" y="474" type="line" smooth="yes"/>
      <point x="568" y="482"/>
      <point x="561" y="486"/>
      <point x="554" y="486" type="curve" smooth="yes"/>
      <point x="545" y="486"/>
      <point x="543" y="480"/>
      <point x="540" y="468" type="curve" smooth="yes"/>
      <point x="519" y="392"/>
      <point x="501" y="369"/>
      <point x="409" y="369" type="curve" smooth="yes"/>
      <point x="315" y="369" type="line"/>
      <point x="334.98" y="449.253"/>
      <point x="354.96" y="529.506"/>
      <point x="375" y="610" type="curve" smooth="yes"/>
      <point x="384" y="645"/>
      <point x="385" y="649"/>
      <point x="429" y="649" type="curve" smooth="yes"/>
      <point x="570" y="649" type="line" smooth="yes"/>
      <point x="692" y="649"/>
      <point x="722" y="620"/>
      <point x="722" y="538" type="curve" smooth="yes"/>
      <point x="722" y="509"/>
      <point x="717" y="484"/>
      <point x="717" y="467" type="curve" smooth="yes"/>
      <point x="717" y="462"/>
      <point x="720" y="455"/>
      <point x="729" y="455" type="curve" smooth="yes"/>
      <point x="740" y="455"/>
      <point x="741" y="461"/>
      <point x="743" y="480" type="curve" smooth="yes"/>
      <point x="749.66" y="537.609"/>
      <point x="756.32" y="595.218"/>
      <point x="763" y="653" type="curve" smooth="yes"/>
      <point x="766" y="680"/>
      <point x="761" y="680"/>
      <point x="736" y="680" type="curve" smooth="yes"/>
      <point x="231" y="680" type="line" smooth="yes"/>
      <point x="211" y="680"/>
      <point x="201" y="680"/>
      <point x="201" y="660" type="curve" smooth="yes"/>
      <point x="201" y="649"/>
      <point x="210" y="649"/>
      <point x="229" y="649" type="curve" smooth="yes"/>
      <point x="241.52302" y="649.0"/>
      <point x="253" y="649"/>
      <point x="262.73939584258505" y="648.3020978191647" type="curve" smooth="yes"/>
      <point x="287" y="646"/>
      <point x="298" y="643"/>
      <point x="292" y="618" type="curve" smooth="yes"/>
    </contour>
  </outline>
</glyph>
<glyph name="F" format="2">
  <advance width="643"/>
  <unicode hex="0046"/>
  <outline>
    <contour>
      <point x="303" y="325" type="line"/>
      <point x="400" y="325" type="line" smooth="yes"/>
      <point x="475" y="325"/>
      <point x="483" y="309"/>
      <point x="483" y="280" type="curve" smooth="yes"/>
      <point x="483" y="249"/>
      <point x="473" y="225"/>
      <point x="473" y="220" type="curve" smooth="yes"/>
      <point x="473" y="212"/>
      <point x="479" y="208"/>
      <point x="485" y="208" type="curve" smooth="yes"/>
      <point x="495" y="208"/>
      <point x="495" y="211"/>
      <point x="500" y="229" type="curve" smooth="yes"/>
      <point x="557" y="454" type="line" smooth="yes"/>
      <point x="560" y="465"/>
      <point x="558" y="473"/>
      <point x="546" y="473" type="curve" smooth="yes"/>
      <point x="536" y="473"/>
      <point x="535" y="468"/>
      <point x="531" y="452" type="curve" smooth="yes"/>
      <point x="510" y="374"/>
      <point x="487" y="356"/>
      <point x="402" y="356" type="curve" smooth="yes"/>
      <point x="311" y="356" type="line"/>
      <point x="375" y="610" type="line" smooth="yes"/>
      <point x="384" y="645"/>
      <point x="385" y="649"/>
      <point x="429" y="649" type="curve" smooth="yes"/>
      <point x="561" y="649" type="line" smooth="yes"/>
      <point x="705" y="649"/>
      <point x="715" y="604"/>
      <point x="704" y="485" type="curve" smooth="yes"/>
      <point x="703" y="477"/>
      <point x="702" y="470"/>
      <point x="702" y="467" type="curve" smooth="yes"/>
      <point x="702" y="462"/>
      <point x="705" y="455"/>
      <point x="714" y="455" type="curve" smooth="yes"/>
      <point x="725" y="455"/>
      <point x="726" y="461"/>
      <point x="728" y="480" type="curve" smooth="yes"/>
      <point x="748" y="653" type="line" smooth="yes"/>
      <point x="751" y="680"/>
      <point x="746" y="680"/>
      <point x="721" y="680" type="curve" smooth="yes"/>
      <point x="231" y="680" type="line" smooth="yes"/>
      <point x="211" y="680"/>
      <point x="201" y="680"/>
      <point x="201" y="660" type="curve" smooth="yes"/>
      <point x="201" y="649"/>
      <point x="210" y="649"/>
      <point x="229" y="649" type="curve" smooth="yes"/>
      <point x="243.23094" y="649.0"/>
      <point x="256.1304871004" y="649.0"/>
      <point x="266.6175828118846" y="647.9758393259117" type="curve" smooth="yes"/>
      <point x="283.3966087568" y="646.3372142008"/>
      <point x="294.0" y="642.07684"/>
      <point x="294" y="631" type="curve" smooth="yes"/>
      <point x="294" y="627"/>
      <point x="294" y="625"/>
      <point x="289" y="607" type="curve" smooth="yes"/>
      <point x="157" y="78" type="line" smooth="yes"/>
      <point x="147" y="39"/>
      <point x="145" y="31"/>
      <point x="66" y="31" type="curve" smooth="yes"/>
      <point x="49" y="31"/>
      <point x="38" y="31"/>
      <point x="38" y="12" type="curve" smooth="yes"/>
      <point x="38" y="0"/>
      <point x="50" y="0"/>
      <point x="53" y="0" type="curve" smooth="yes"/>
      <point x="82" y="0"/>
      <point x="156" y="3"/>
      <point x="185" y="3" type="curve" smooth="yes"/>
      <point x="218" y="3"/>
      <point x="301" y="0"/>
      <point x="334" y="0" type="curve" smooth="yes"/>
      <point x="343" y="0"/>
      <point x="355" y="0"/>
      <point x="355" y="19" type="curve" smooth="yes"/>
      <point x="355" y="27"/>
      <point x="349" y="29"/>
      <point x="349" y="30" type="curve"/>
      <point x="346" y="31"/>
      <point x="344" y="31"/>
      <point x="321" y="31" type="curve" smooth="yes"/>
      <point x="299" y="31"/>
      <point x="294" y="31"/>
      <point x="269" y="33" type="curve" smooth="yes"/>
      <point x="240" y="36"/>
      <point x="237" y="40"/>
      <point x="237" y="53" type="curve" smooth="yes"/>
      <point x="237" y="55"/>
      <point x="237" y="61"/>
      <point x="241" y="76" type="curve" smooth="yes"/>
    </contour>
  </outline>
</glyph>
<glyph name="H" format="2">
  <advance width="831"/>
  <unicode hex="0048"/>
  <outline>
    <contour>
      <point x="763" y="606" type="line" smooth="yes"/>
      <point x="772" y="642"/>
      <point x="774" y="652"/>
      <point x="847" y="652" type="curve" smooth="yes"/>
      <point x="873" y="652"/>
      <point x="881" y="652"/>
      <point x="881" y="672" type="curve" smooth="yes"/>
      <point x="881" y="683"/>
      <point x="870" y="683"/>
      <point x="867" y="683" type="curve" smooth="yes"/>
      <point x="839" y="683"/>
      <point x="767" y="680"/>
      <point x="739" y="680" type="curve" smooth="yes"/>
      <point x="710" y="680"/>
      <point x="639" y="683"/>
      <point x="610" y="683" type="curve" smooth="yes"/>
      <point x="602" y="683"/>
      <point x="591" y="683"/>
      <point x="591" y="663" type="curve" smooth="yes"/>
      <point x="591" y="652"/>
      <point x="600" y="652"/>
      <point x="619" y="652" type="curve" smooth="yes"/>
      <point x="621" y="652"/>
      <point x="640" y="652"/>
      <point x="657" y="650" type="curve" smooth="yes"/>
      <point x="675" y="648"/>
      <point x="684" y="647"/>
      <point x="684" y="634" type="curve" smooth="yes"/>
      <point x="684" y="630"/>
      <point x="683" y="628"/>
      <point x="680" y="615" type="curve" smooth="yes"/>
      <point x="620" y="371" type="line"/>
      <point x="315" y="371" type="line"/>
      <point x="374" y="606" type="line" smooth="yes"/>
      <point x="383" y="642"/>
      <point x="386" y="652"/>
      <point x="458" y="652" type="curve" smooth="yes"/>
      <point x="484" y="652"/>
      <point x="492" y="652"/>
      <point x="492" y="672" type="curve" smooth="yes"/>
      <point x="492" y="683"/>
      <point x="481" y="683"/>
      <point x="478" y="683" type="curve" smooth="yes"/>
      <point x="450" y="683"/>
      <point x="378" y="680"/>
      <point x="350" y="680" type="curve" smooth="yes"/>
      <point x="321" y="680"/>
      <point x="250" y="683"/>
      <point x="221" y="683" type="curve" smooth="yes"/>
      <point x="213" y="683"/>
      <point x="202" y="683"/>
      <point x="202" y="663" type="curve" smooth="yes"/>
      <point x="202" y="652"/>
      <point x="211" y="652"/>
      <point x="230" y="652" type="curve" smooth="yes"/>
      <point x="232" y="652"/>
      <point x="251" y="652"/>
      <point x="268" y="650" type="curve" smooth="yes"/>
      <point x="286" y="648"/>
      <point x="295" y="647"/>
      <point x="295" y="634" type="curve" smooth="yes"/>
      <point x="295" y="630"/>
      <point x="294" y="627"/>
      <point x="291" y="615" type="curve" smooth="yes"/>
      <point x="157" y="78" type="line" smooth="yes"/>
      <point x="147" y="39"/>
      <point x="145" y="31"/>
      <point x="66" y="31" type="curve" smooth="yes"/>
      <point x="48" y="31"/>
      <point x="39" y="31"/>
      <point x="39" y="11" type="curve" smooth="yes"/>
      <point x="39" y="0"/>
      <point x="51" y="0"/>
      <point x="53" y="0" type="curve" smooth="yes"/>
      <point x="81" y="0"/>
      <point x="152" y="3"/>
      <point x="180" y="3" type="curve" smooth="yes"/>
      <point x="201" y="3"/>
      <point x="223" y="2"/>
      <point x="244" y="2" type="curve" smooth="yes"/>
      <point x="266" y="2"/>
      <point x="288" y="0"/>
      <point x="309" y="0" type="curve" smooth="yes"/>
      <point x="317" y="0"/>
      <point x="329" y="0"/>
      <point x="329" y="20" type="curve" smooth="yes"/>
      <point x="329" y="31"/>
      <point x="320" y="31"/>
      <point x="301" y="31" type="curve" smooth="yes"/>
      <point x="264" y="31"/>
      <point x="236" y="31"/>
      <point x="236" y="49" type="curve" smooth="yes"/>
      <point x="236" y="55"/>
      <point x="238" y="60"/>
      <point x="239" y="66" type="curve"/>
      <point x="307" y="340" type="line"/>
      <point x="612" y="340" type="line"/>
      <point x="570" y="174"/>
      <point x="547" y="79"/>
      <point x="543" y="64" type="curve" smooth="yes"/>
      <point x="533" y="32"/>
      <point x="514" y="31"/>
      <point x="452" y="31" type="curve" smooth="yes"/>
      <point x="437" y="31"/>
      <point x="428" y="31"/>
      <point x="428" y="11" type="curve" smooth="yes"/>
      <point x="428" y="0"/>
      <point x="440" y="0"/>
      <point x="442" y="0" type="curve" smooth="yes"/>
      <point x="470" y="0"/>
      <point x="541" y="3"/>
      <point x="569" y="3" type="curve" smooth="yes"/>
      <point x="590" y="3"/>
      <point x="612" y="2"/>
      <point x="633" y="2" type="curve" smooth="yes"/>
      <point x="655" y="2"/>
      <point x="677" y="0"/>
      <point x="698" y="0" type="curve" smooth="yes"/>
      <point x="706" y="0"/>
      <point x="718" y="0"/>
      <point x="718" y="20" type="curve" smooth="yes"/>
      <point x="718" y="31"/>
      <point x="709" y="31"/>
      <point x="690" y="31" type="curve" smooth="yes"/>
      <point x="653" y="31"/>
      <point x="625" y="31"/>
      <point x="625" y="49" type="curve" smooth="yes"/>
      <point x="625" y="55"/>
      <point x="627" y="60"/>
      <point x="628" y="66" type="curve"/>
    </contour>
  </outline>
</glyph>
<glyph name="K" format="2">
  <advance width="849"/>
  <unicode hex="004B"/>
  <outline>
    <contour>
      <point x="294" y="285" type="line"/>
      <point x="374" y="606" type="line" smooth="yes"/>
      <point x="383" y="642"/>
      <point x="385" y="652"/>
      <point x="458" y="652" type="curve" smooth="yes"/>
      <point x="483" y="652"/>
      <point x="492" y="652"/>
      <point x="492" y="672" type="curve" smooth="yes"/>
      <point x="492" y="681"/>
      <point x="484" y="683"/>
      <point x="478" y="683" type="curve" smooth="yes"/>
      <point x="465" y="683"/>
      <point x="442" y="682"/>
      <point x="419" y="682" type="curve" smooth="yes"/>
      <point x="370" y="680"/>
      <point x="342" y="680"/>
      <point x="295" y="681" type="curve" smooth="yes"/>
      <point x="267" y="682"/>
      <point x="237" y="683"/>
      <point x="221" y="683" type="curve" smooth="yes"/>
      <point x="214" y="683"/>
      <point x="201" y="683"/>
      <point x="201" y="664" type="curve" smooth="yes"/>
      <point x="201" y="652"/>
      <point x="210" y="652"/>
      <point x="230" y="652" type="curve" smooth="yes"/>
      <point x="243" y="652"/>
      <point x="261" y="651"/>
      <point x="273" y="650" type="curve" smooth="yes"/>
      <point x="289" y="648"/>
      <point x="295" y="645"/>
      <point x="295" y="634" type="curve" smooth="yes"/>
      <point x="295" y="630"/>
      <point x="294" y="627"/>
      <point x="291" y="615" type="curve" smooth="yes"/>
      <point x="157" y="78" type="line" smooth="yes"/>
      <point x="147" y="39"/>
      <point x="145" y="31"/>
      <point x="66" y="31" type="curve" smooth="yes"/>
      <point x="49" y="31"/>
      <point x="38" y="31"/>
      <point x="38" y="12" type="curve" smooth="yes"/>
      <point x="38" y="0"/>
      <point x="50" y="0"/>
      <point x="53" y="0" type="curve" smooth="yes"/>
      <point x="81" y="0"/>
      <point x="142" y="3"/>
      <point x="170" y="3" type="curve" smooth="yes"/>
      <point x="191" y="3"/>
      <point x="215" y="2"/>
      <point x="236" y="2" type="curve" smooth="yes"/>
      <point x="258" y="2"/>
      <point x="288" y="0"/>
      <point x="309" y="0" type="curve" smooth="yes"/>
      <point x="316" y="0"/>
      <point x="329" y="0"/>
      <point x="329" y="20" type="curve" smooth="yes"/>
      <point x="329" y="31"/>
      <point x="320" y="31"/>
      <point x="301" y="31" type="curve" smooth="yes"/>
      <point x="288" y="31"/>
      <point x="276" y="31"/>
      <point x="266" y="32" type="curve" smooth="yes"/>
      <point x="248" y="33"/>
      <point x="236" y="37"/>
      <point x="236" y="49" type="curve" smooth="yes"/>
      <point x="236" y="56"/>
      <point x="241" y="78"/>
      <point x="245" y="93" type="curve" smooth="yes"/>
      <point x="258.32" y="145.281"/>
      <point x="271.64" y="197.562"/>
      <point x="285" y="250" type="curve"/>
      <point x="285.0" y="250.0"/>
      <point x="285.0" y="250.0"/>
      <point x="285" y="250" type="curve"/>
      <point x="434" y="366" type="line"/>
      <point x="434.0" y="366.0"/>
      <point x="434.0" y="366.0"/>
      <point x="434" y="366" type="curve"/>
      <point x="472.628" y="276.423"/>
      <point x="511.256" y="186.846"/>
      <point x="550" y="97" type="curve"/>
      <point x="562" y="70"/>
      <point x="562" y="68"/>
      <point x="562" y="62" type="curve" smooth="yes"/>
      <point x="562" y="32"/>
      <point x="519" y="31"/>
      <point x="510" y="31" type="curve" smooth="yes"/>
      <point x="499" y="31"/>
      <point x="488" y="31"/>
      <point x="488" y="11" type="curve" smooth="yes"/>
      <point x="488" y="0"/>
      <point x="500" y="0"/>
      <point x="502" y="0" type="curve" smooth="yes"/>
      <point x="527" y="0"/>
      <point x="553" y="1"/>
      <point x="578" y="2" type="curve" smooth="yes"/>
      <point x="594" y="3"/>
      <point x="618" y="3"/>
      <point x="634" y="3" type="curve" smooth="yes"/>
      <point x="646" y="3"/>
      <point x="700" y="0"/>
      <point x="722" y="0" type="curve" smooth="yes"/>
      <point x="727" y="0"/>
      <point x="740" y="0"/>
      <point x="740" y="20" type="curve" smooth="yes"/>
      <point x="740" y="31"/>
      <point x="729" y="31"/>
      <point x="720" y="31" type="curve" smooth="yes"/>
      <point x="679" y="32"/>
      <point x="666" y="41"/>
      <point x="651" y="76" type="curve" smooth="yes"/>
      <point x="509" y="404" type="line" smooth="yes"/>
      <point x="508" y="407"/>
      <point x="504" y="415"/>
      <point x="504" y="418" type="curve" smooth="yes"/>
      <point x="504" y="419"/>
      <point x="522" y="433"/>
      <point x="533" y="441" type="curve" smooth="yes"/>
      <point x="591.275" y="485.955"/>
      <point x="649.55" y="530.91"/>
      <point x="708" y="576" type="curve" smooth="yes"/>
      <point x="802" y="645"/>
      <point x="841" y="649"/>
      <point x="871" y="652" type="curve" smooth="yes"/>
      <point x="879" y="653"/>
      <point x="889" y="654"/>
      <point x="889" y="672" type="curve" smooth="yes"/>
      <point x="889" y="676"/>
      <point x="886" y="683"/>
      <point x="878" y="683" type="curve" smooth="yes"/>
      <point x="856" y="683"/>
      <point x="831" y="680"/>
      <point x="807" y="680" type="curve" smooth="yes"/>
      <point x="792" y="680"/>
      <point x="777" y="680"/>
      <point x="762" y="681" type="curve" smooth="yes"/>
      <point x="740" y="682"/>
      <point x="717" y="683"/>
      <point x="696" y="683" type="curve" smooth="yes"/>
      <point x="689" y="683"/>
      <point x="677" y="683"/>
      <point x="677" y="663" type="curve" smooth="yes"/>
      <point x="677" y="656"/>
      <point x="682" y="653"/>
      <point x="689" y="652" type="curve" smooth="yes"/>
      <point x="711" y="650"/>
      <point x="720" y="645"/>
      <point x="720" y="631" type="curve" smooth="yes"/>
      <point x="720" y="613"/>
      <point x="690" y="590"/>
      <point x="684" y="585" type="curve" smooth="yes"/>
    </contour>
  </outline>
</glyph>
<glyph name="M" format="2">
  <advance width="970"/>
  <unicode hex="004D"/>
  <outline>
    <contour>
      <point x="926" y="606" type="line" smooth="yes"/>
      <point x="935" y="642"/>
      <point x="937" y="652"/>
      <point x="1012" y="652" type="curve" smooth="yes"/>
      <point x="1035" y="652"/>
      <point x="1044" y="652"/>
      <point x="1044" y="672" type="curve" smooth="yes"/>
      <point x="1044" y="683"/>
      <point x="1034" y="683"/>
      <point x="1017" y="683" type="curve" smooth="yes"/>
      <point x="885" y="683" type="line" smooth="yes"/>
      <point x="859" y="683"/>
      <point x="858" y="683"/>
      <point x="846" y="664" type="curve" smooth="yes"/>
      <point x="481" y="94" type="line"/>
      <point x="403" y="660" type="line" smooth="yes"/>
      <point x="400" y="683"/>
      <point x="398" y="683"/>
      <point x="372" y="683" type="curve" smooth="yes"/>
      <point x="235" y="683" type="line" smooth="yes"/>
      <point x="216" y="683"/>
      <point x="205" y="683"/>
      <point x="205" y="664" type="curve" smooth="yes"/>
      <point x="205" y="652"/>
      <point x="214" y="652"/>
      <point x="234" y="652" type="curve" smooth="yes"/>
      <point x="247" y="652"/>
      <point x="265" y="651"/>
      <point x="277" y="650" type="curve" smooth="yes"/>
      <point x="293" y="648"/>
      <point x="299" y="645"/>
      <point x="299" y="634" type="curve" smooth="yes"/>
      <point x="299" y="630"/>
      <point x="298" y="627"/>
      <point x="295" y="615" type="curve" smooth="yes"/>
      <point x="168" y="106" type="line" smooth="yes"/>
      <point x="158" y="66"/>
      <point x="141" y="34"/>
      <point x="60" y="31" type="curve"/>
      <point x="55" y="31"/>
      <point x="42" y="30"/>
      <point x="42" y="12" type="curve" smooth="yes"/>
      <point x="42" y="3"/>
      <point x="48" y="0"/>
      <point x="56" y="0" type="curve" smooth="yes"/>
      <point x="88" y="0"/>
      <point x="123" y="3"/>
      <point x="156" y="3" type="curve" smooth="yes"/>
      <point x="190" y="3"/>
      <point x="226" y="0"/>
      <point x="259" y="0" type="curve" smooth="yes"/>
      <point x="264" y="0"/>
      <point x="277" y="0"/>
      <point x="277" y="20" type="curve" smooth="yes"/>
      <point x="277" y="31"/>
      <point x="266" y="31"/>
      <point x="259" y="31" type="curve" smooth="yes"/>
      <point x="202" y="32"/>
      <point x="191" y="52"/>
      <point x="191" y="75" type="curve" smooth="yes"/>
      <point x="191" y="82"/>
      <point x="192" y="87"/>
      <point x="195" y="98" type="curve" smooth="yes"/>
      <point x="331" y="643" type="line"/>
      <point x="332" y="643" type="line"/>
      <point x="418" y="23" type="line" smooth="yes"/>
      <point x="420" y="11"/>
      <point x="421" y="0"/>
      <point x="433" y="0" type="curve" smooth="yes"/>
      <point x="444" y="0"/>
      <point x="450" y="11"/>
      <point x="455" y="18" type="curve"/>
      <point x="859" y="651" type="line"/>
      <point x="860" y="651" type="line"/>
      <point x="717" y="78" type="line" smooth="yes"/>
      <point x="707" y="39"/>
      <point x="705" y="31"/>
      <point x="626" y="31" type="curve" smooth="yes"/>
      <point x="609" y="31"/>
      <point x="598" y="31"/>
      <point x="598" y="12" type="curve" smooth="yes"/>
      <point x="598" y="0"/>
      <point x="610" y="0"/>
      <point x="613" y="0" type="curve" smooth="yes"/>
      <point x="641" y="0"/>
      <point x="709" y="3"/>
      <point x="737" y="3" type="curve" smooth="yes"/>
      <point x="778" y="3"/>
      <point x="821" y="0"/>
      <point x="862" y="0" type="curve" smooth="yes"/>
      <point x="868" y="0"/>
      <point x="881" y="0"/>
      <point x="881" y="20" type="curve" smooth="yes"/>
      <point x="881" y="31"/>
      <point x="872" y="31"/>
      <point x="853" y="31" type="curve" smooth="yes"/>
      <point x="816" y="31"/>
      <point x="788" y="31"/>
      <point x="788" y="49" type="curve" smooth="yes"/>
      <point x="788" y="53"/>
      <point x="788" y="55"/>
      <point x="793" y="73" type="curve" smooth="yes"/>
    </contour>
  </outline>
</glyph>
<glyph name="N" format="2">
  <advance width="803"/>
  <unicode hex="004E"/>
  <outline>
    <contour>
      <point x="164" y="106" type="line" smooth="yes"/>
      <point x="154" y="66"/>
      <point x="137" y="34"/>
      <point x="56" y="31" type="curve"/>
      <point x="50" y="31"/>
      <point x="39" y="30"/>
      <point x="39" y="11" type="curve" smooth="yes"/>
      <point x="39" y="4"/>
      <point x="44" y="0"/>
      <point x="52" y="0" type="curve" smooth="yes"/>
      <point x="84" y="0"/>
      <point x="119" y="3"/>
      <point x="152" y="3" type="curve" smooth="yes"/>
      <point x="186" y="3"/>
      <point x="222" y="0"/>
      <point x="255" y="0" type="curve" smooth="yes"/>
      <point x="260" y="0"/>
      <point x="273" y="0"/>
      <point x="273" y="20" type="curve" smooth="yes"/>
      <point x="273" y="30"/>
      <point x="264" y="31"/>
      <point x="253" y="31" type="curve" smooth="yes"/>
      <point x="195" y="33"/>
      <point x="187" y="55"/>
      <point x="187" y="75" type="curve" smooth="yes"/>
      <point x="187" y="82"/>
      <point x="188" y="87"/>
      <point x="191" y="98" type="curve" smooth="yes"/>
      <point x="323" y="626" type="line"/>
      <point x="327" y="620"/>
      <point x="327" y="618"/>
      <point x="332" y="608" type="curve"/>
      <point x="581" y="19" type="line" smooth="yes"/>
      <point x="588" y="2"/>
      <point x="591" y="0"/>
      <point x="600" y="0" type="curve" smooth="yes"/>
      <point x="611" y="0"/>
      <point x="611" y="3"/>
      <point x="616" y="21" type="curve" smooth="yes"/>
      <point x="756" y="578" type="line" smooth="yes"/>
      <point x="766" y="618"/>
      <point x="784" y="649"/>
      <point x="864" y="652" type="curve" smooth="yes"/>
      <point x="869" y="652"/>
      <point x="881" y="653"/>
      <point x="881" y="672" type="curve" smooth="yes"/>
      <point x="881" y="673"/>
      <point x="881" y="683"/>
      <point x="868" y="683" type="curve" smooth="yes"/>
      <point x="835" y="683"/>
      <point x="800" y="680"/>
      <point x="767" y="680" type="curve" smooth="yes"/>
      <point x="733" y="680"/>
      <point x="698" y="683"/>
      <point x="665" y="683" type="curve" smooth="yes"/>
      <point x="659" y="683"/>
      <point x="647" y="683"/>
      <point x="647" y="663" type="curve" smooth="yes"/>
      <point x="647" y="652"/>
      <point x="657" y="652"/>
      <point x="665" y="652" type="curve" smooth="yes"/>
      <point x="722" y="651"/>
      <point x="733" y="630"/>
      <point x="733" y="608" type="curve" smooth="yes"/>
      <point x="733" y="605"/>
      <point x="731" y="590"/>
      <point x="730" y="587" type="curve"/>
      <point x="618" y="142" type="line"/>
      <point x="397" y="664" type="line" smooth="yes"/>
      <point x="389" y="682"/>
      <point x="388" y="683"/>
      <point x="365" y="683" type="curve" smooth="yes"/>
      <point x="231" y="683" type="line" smooth="yes"/>
      <point x="211" y="683"/>
      <point x="202" y="683"/>
      <point x="202" y="663" type="curve" smooth="yes"/>
      <point x="202" y="652"/>
      <point x="211" y="652"/>
      <point x="230" y="652" type="curve" smooth="yes"/>
      <point x="235" y="652"/>
      <point x="298" y="652"/>
      <point x="298" y="643" type="curve"/>
      <point x="298.0" y="643.0"/>
      <point x="298.0" y="643.0"/>
      <point x="298" y="643" type="curve"/>
    </contour>
  </outline>
</glyph>
<glyph name="P" format="2">
  <advance width="642"/>
  <unicode hex="0050"/>
  <outline>
    <contour>
      <point x="303" y="316" type="line"/>
      <point x="473" y="316" type="line" smooth="yes"/>
      <point x="615" y="316"/>
      <point x="754" y="420"/>
      <point x="754" y="532" type="curve" smooth="yes"/>
      <point x="754" y="609"/>
      <point x="688" y="683"/>
      <point x="557" y="683" type="curve" smooth="yes"/>
      <point x="233" y="683" type="line" smooth="yes"/>
      <point x="214" y="683"/>
      <point x="203" y="683"/>
      <point x="203" y="664" type="curve" smooth="yes"/>
      <point x="203" y="652"/>
      <point x="212" y="652"/>
      <point x="232" y="652" type="curve" smooth="yes"/>
      <point x="245" y="652"/>
      <point x="263" y="651"/>
      <point x="275" y="650" type="curve" smooth="yes"/>
      <point x="291" y="648"/>
      <point x="297" y="645"/>
      <point x="297" y="634" type="curve" smooth="yes"/>
      <point x="297" y="630"/>
      <point x="296" y="627"/>
      <point x="293" y="615" type="curve" smooth="yes"/>
      <point x="159" y="78" type="line" smooth="yes"/>
      <point x="149" y="39"/>
      <point x="147" y="31"/>
      <point x="68" y="31" type="curve" smooth="yes"/>
      <point x="51" y="31"/>
      <point x="40" y="31"/>
      <point x="40" y="12" type="curve" smooth="yes"/>
      <point x="40" y="0"/>
      <point x="52" y="0"/>
      <point x="55" y="0" type="curve" smooth="yes"/>
      <point x="83" y="0"/>
      <point x="154" y="3"/>
      <point x="182" y="3" type="curve" smooth="yes"/>
      <point x="203" y="3"/>
      <point x="225" y="2"/>
      <point x="246" y="2" type="curve" smooth="yes"/>
      <point x="268" y="2"/>
      <point x="290" y="0"/>
      <point x="311" y="0" type="curve" smooth="yes"/>
      <point x="318" y="0"/>
      <point x="331" y="0"/>
      <point x="331" y="20" type="curve" smooth="yes"/>
      <point x="331" y="31"/>
      <point x="322" y="31"/>
      <point x="303" y="31" type="curve" smooth="yes"/>
      <point x="266" y="31"/>
      <point x="238" y="31"/>
      <point x="238" y="49" type="curve" smooth="yes"/>
      <point x="238" y="55"/>
      <point x="240" y="60"/>
      <point x="241" y="66" type="curve"/>
    </contour>
    <contour>
      <point x="375" y="614" type="line" smooth="yes"/>
      <point x="384" y="649"/>
      <point x="386" y="652"/>
      <point x="429" y="652" type="curve" smooth="yes"/>
      <point x="525" y="652" type="line" smooth="yes"/>
      <point x="608" y="652"/>
      <point x="661" y="625"/>
      <point x="661" y="556" type="curve" smooth="yes"/>
      <point x="661" y="517"/>
      <point x="641" y="431"/>
      <point x="602" y="395" type="curve" smooth="yes"/>
      <point x="552" y="350"/>
      <point x="492" y="342"/>
      <point x="448" y="342" type="curve" smooth="yes"/>
      <point x="307" y="342" type="line"/>
    </contour>
  </outline>
</glyph>
<glyph name="S" format="2">
  <advance width="613"/>
  <unicode hex="0053"/>
  <outline>
    <contour>
      <point x="178" y="469" type="curve" smooth="yes"/>
      <point x="178.0" y="429.27922"/>
      <point x="190.7450448532" y="397.4940339652"/>
      <point x="209.74937361184203" y="373.8802877482458" type="curve" smooth="yes"/>
      <point x="229.49933491119998" y="349.340059054"/>
      <point x="256.00937999999996" y="333.62506"/>
      <point x="282" y="327" type="curve" smooth="yes"/>
      <point x="317.631" y="317.676"/>
      <point x="353.262" y="308.352"/>
      <point x="389" y="299" type="curve" smooth="yes"/>
      <point x="426" y="289"/>
      <point x="481" y="275"/>
      <point x="481" y="193" type="curve" smooth="yes"/>
      <point x="481" y="103"/>
      <point x="399" y="9"/>
      <point x="301" y="9" type="curve" smooth="yes"/>
      <point x="237" y="9"/>
      <point x="126" y="31"/>
      <point x="126" y="155" type="curve" smooth="yes"/>
      <point x="126" y="190"/>
      <point x="134" y="212"/>
      <point x="134" y="217" type="curve" smooth="yes"/>
      <point x="134" y="226"/>
      <point x="127" y="227"/>
      <point x="122" y="227" type="curve" smooth="yes"/>
      <point x="117" y="227"/>
      <point x="115" y="226"/>
      <point x="112" y="223" type="curve" smooth="yes"/>
      <point x="108" y="219"/>
      <point x="52" y="-9"/>
      <point x="52" y="-12" type="curve" smooth="yes"/>
      <point x="52" y="-18"/>
      <point x="57" y="-22"/>
      <point x="63" y="-22" type="curve" smooth="yes"/>
      <point x="68" y="-22"/>
      <point x="69" y="-21"/>
      <point x="81" y="-7" type="curve" smooth="yes"/>
      <point x="97.31700000000001" y="11.981000000000002"/>
      <point x="113.634" y="30.962000000000003"/>
      <point x="130" y="50" type="curve"/>
      <point x="173" y="-8"/>
      <point x="241" y="-22"/>
      <point x="299" y="-22" type="curve" smooth="yes"/>
      <point x="435" y="-22"/>
      <point x="553" y="111"/>
      <point x="553" y="235" type="curve" smooth="yes"/>
      <point x="553" y="304"/>
      <point x="519" y="338"/>
      <point x="504" y="352" type="curve" smooth="yes"/>
      <point x="481" y="375"/>
      <point x="466" y="379"/>
      <point x="377" y="402" type="curve" smooth="yes"/>
      <point x="355" y="408"/>
      <point x="319" y="417"/>
      <point x="310" y="420" type="curve" smooth="yes"/>
      <point x="283" y="428"/>
      <point x="249" y="458"/>
      <point x="249" y="511" type="curve" smooth="yes"/>
      <point x="249" y="592"/>
      <point x="329" y="677"/>
      <point x="424" y="677" type="curve" smooth="yes"/>
      <point x="507" y="677"/>
      <point x="568" y="634"/>
      <point x="568" y="522" type="curve" smooth="yes"/>
      <point x="568" y="490"/>
      <point x="564" y="472"/>
      <point x="564" y="466" type="curve" smooth="yes"/>
      <point x="564" y="465"/>
      <point x="564" y="456"/>
      <point x="576" y="456" type="curve" smooth="yes"/>
      <point x="586" y="456"/>
      <point x="587" y="459"/>
      <point x="591" y="476" type="curve" smooth="yes"/>
      <point x="645" y="695" type="line"/>
      <point x="645" y="698"/>
      <point x="643" y="705"/>
      <point x="634" y="705" type="curve" smooth="yes"/>
      <point x="629" y="705"/>
      <point x="628" y="704"/>
      <point x="616" y="690" type="curve" smooth="yes"/>
      <point x="600.016" y="671.019"/>
      <point x="584.032" y="652.038"/>
      <point x="568" y="633" type="curve"/>
      <point x="542" y="680"/>
      <point x="490" y="705"/>
      <point x="425" y="705" type="curve" smooth="yes"/>
      <point x="298" y="705"/>
      <point x="178" y="590"/>
    </contour>
  </outline>
</glyph>
<glyph name="T" format="2">
  <advance width="584"/>
  <unicode hex="0054"/>
  <outline>
    <contour>
      <point x="210" y="79" type="line" smooth="yes"/>
      <point x="203.1933" y="51.01690000000001"/>
      <point x="199.81853814" y="37.90553194000001"/>
      <point x="152.29017613983" y="33.17695878179501" type="curve" smooth="yes"/>
      <point x="136.97527224" y="31.65328659"/>
      <point x="117.0759" y="31.0"/>
      <point x="91" y="31" type="curve" smooth="yes"/>
      <point x="55" y="31"/>
      <point x="49" y="31"/>
      <point x="49" y="12" type="curve" smooth="yes"/>
      <point x="49" y="0"/>
      <point x="60" y="0"/>
      <point x="66" y="0" type="curve" smooth="yes"/>
      <point x="93" y="0"/>
      <point x="121" y="2"/>
      <point x="148" y="2" type="curve" smooth="yes"/>
      <point x="204" y="3"/>
      <point x="262" y="3"/>
      <point x="316" y="2" type="curve" smooth="yes"/>
      <point x="345" y="1"/>
      <point x="375" y="0"/>
      <point x="403" y="0" type="curve" smooth="yes"/>
      <point x="413" y="0"/>
      <point x="425" y="0"/>
      <point x="425" y="20" type="curve" smooth="yes"/>
      <point x="425" y="31"/>
      <point x="417" y="31"/>
      <point x="391" y="31" type="curve" smooth="yes"/>
      <point x="366" y="31"/>
      <point x="353" y="31"/>
      <point x="327" y="33" type="curve" smooth="yes"/>
      <point x="296" y="35"/>
      <point x="284" y="38"/>
      <point x="294" y="76" type="curve" smooth="yes"/>
      <point x="427" y="607" type="line" smooth="yes"/>
      <point x="434" y="635"/>
      <point x="438" y="641"/>
      <point x="450" y="644" type="curve" smooth="yes"/>
      <point x="459" y="646"/>
      <point x="492" y="646"/>
      <point x="513" y="646" type="curve" smooth="yes"/>
      <point x="614" y="646"/>
      <point x="659" y="642"/>
      <point x="659" y="564" type="curve" smooth="yes"/>
      <point x="659" y="549"/>
      <point x="655" y="505"/>
      <point x="649" y="473" type="curve" smooth="yes"/>
      <point x="647" y="462"/>
      <point x="648" y="452"/>
      <point x="660" y="452" type="curve" smooth="yes"/>
      <point x="671" y="452"/>
      <point x="673" y="460"/>
      <point x="675" y="475" type="curve" smooth="yes"/>
      <point x="704" y="662" type="line" smooth="yes"/>
      <point x="706" y="675"/>
      <point x="699" y="677"/>
      <point x="680" y="677" type="curve" smooth="yes"/>
      <point x="122" y="677" type="line" smooth="yes"/>
      <point x="98" y="677"/>
      <point x="97" y="676"/>
      <point x="90" y="657" type="curve" smooth="yes"/>
      <point x="30" y="481" type="line" smooth="yes"/>
      <point x="29" y="479"/>
      <point x="24" y="465"/>
      <point x="24" y="463" type="curve" smooth="yes"/>
      <point x="24" y="457"/>
      <point x="29" y="452"/>
      <point x="36" y="452" type="curve" smooth="yes"/>
      <point x="46" y="452"/>
      <point x="47" y="457"/>
      <point x="53" y="473" type="curve" smooth="yes"/>
      <point x="107" y="628"/>
      <point x="133" y="646"/>
      <point x="281" y="646" type="curve" smooth="yes"/>
      <point x="320" y="646" type="line" smooth="yes"/>
      <point x="348" y="646"/>
      <point x="348" y="642"/>
      <point x="348" y="634" type="curve" smooth="yes"/>
      <point x="348" y="629"/>
      <point x="345" y="617"/>
      <point x="344" y="613" type="curve" smooth="yes"/>
    </contour>
  </outline>
</glyph>
<glyph name="U" format="2">
  <advance width="682"/>
  <unicode hex="0055"/>
  <outline>
    <contour>
      <point x="635" y="578" type="line" smooth="yes"/>
      <point x="645" y="619"/>
      <point x="663" y="649"/>
      <point x="743" y="652" type="curve" smooth="yes"/>
      <point x="748" y="652"/>
      <point x="760" y="653"/>
      <point x="760" y="672" type="curve" smooth="yes"/>
      <point x="760" y="673"/>
      <point x="760" y="683"/>
      <point x="747" y="683" type="curve" smooth="yes"/>
      <point x="714" y="683"/>
      <point x="679" y="680"/>
      <point x="645" y="680" type="curve" smooth="yes"/>
      <point x="611" y="680"/>
      <point x="574" y="683"/>
      <point x="541" y="683" type="curve" smooth="yes"/>
      <point x="535" y="683"/>
      <point x="523" y="683"/>
      <point x="523" y="663" type="curve" smooth="yes"/>
      <point x="523" y="652"/>
      <point x="533" y="652"/>
      <point x="541" y="652" type="curve" smooth="yes"/>
      <point x="598" y="651"/>
      <point x="609" y="630"/>
      <point x="609" y="608" type="curve" smooth="yes"/>
      <point x="609" y="605"/>
      <point x="607" y="590"/>
      <point x="606" y="587" type="curve"/>
      <point x="516" y="230" type="line" smooth="yes"/>
      <point x="482" y="96"/>
      <point x="367" y="9"/>
      <point x="267" y="9" type="curve" smooth="yes"/>
      <point x="199" y="9"/>
      <point x="145" y="53"/>
      <point x="145" y="139" type="curve" smooth="yes"/>
      <point x="145" y="141"/>
      <point x="145" y="173"/>
      <point x="156" y="217" type="curve" smooth="yes"/>
      <point x="253" y="606" type="line" smooth="yes"/>
      <point x="262" y="642"/>
      <point x="264" y="652"/>
      <point x="337" y="652" type="curve" smooth="yes"/>
      <point x="363" y="652"/>
      <point x="371" y="652"/>
      <point x="371" y="672" type="curve" smooth="yes"/>
      <point x="371" y="683"/>
      <point x="360" y="683"/>
      <point x="357" y="683" type="curve" smooth="yes"/>
      <point x="329" y="683"/>
      <point x="257" y="680"/>
      <point x="229" y="680" type="curve" smooth="yes"/>
      <point x="200" y="680"/>
      <point x="129" y="683"/>
      <point x="100" y="683" type="curve" smooth="yes"/>
      <point x="92" y="683"/>
      <point x="81" y="683"/>
      <point x="81" y="663" type="curve" smooth="yes"/>
      <point x="81" y="652"/>
      <point x="90" y="652"/>
      <point x="109" y="652" type="curve" smooth="yes"/>
      <point x="111" y="652"/>
      <point x="130" y="652"/>
      <point x="147" y="650" type="curve" smooth="yes"/>
      <point x="165" y="648"/>
      <point x="174" y="647"/>
      <point x="174" y="634" type="curve" smooth="yes"/>
      <point x="174" y="628"/>
      <point x="163" y="586"/>
      <point x="157" y="563" type="curve" smooth="yes"/>
      <point x="135" y="475" type="line" smooth="yes"/>
      <point x="126" y="436"/>
      <point x="78" y="247"/>
      <point x="74" y="228" type="curve" smooth="yes"/>
      <point x="67" y="200"/>
      <point x="67" y="185"/>
      <point x="67" y="170" type="curve" smooth="yes"/>
      <point x="67" y="48"/>
      <point x="158" y="-22"/>
      <point x="263" y="-22" type="curve" smooth="yes"/>
      <point x="389" y="-22"/>
      <point x="513" y="91"/>
      <point x="546" y="223" type="curve" smooth="yes"/>
    </contour>
  </outline>
</glyph>
<glyph name="V" format="2">
  <advance width="583"/>
  <unicode hex="0056"/>
  <outline>
    <contour>
      <point x="240" y="-22" type="curve" smooth="yes"/>
      <point x="256" y="-22"/>
      <point x="260" y="-17"/>
      <point x="268" y="-4" type="curve" smooth="yes"/>
      <point x="628" y="569" type="line" smooth="yes"/>
      <point x="677" y="647"/>
      <point x="719" y="650"/>
      <point x="756" y="652" type="curve" smooth="yes"/>
      <point x="768" y="653"/>
      <point x="769" y="670"/>
      <point x="769" y="671" type="curve" smooth="yes"/>
      <point x="769" y="679"/>
      <point x="764" y="683"/>
      <point x="756" y="683" type="curve" smooth="yes"/>
      <point x="718" y="683"/>
      <point x="713" y="680"/>
      <point x="671" y="680" type="curve" smooth="yes"/>
      <point x="627" y="680"/>
      <point x="605" y="683"/>
      <point x="575" y="683" type="curve" smooth="yes"/>
      <point x="569" y="683"/>
      <point x="556" y="683"/>
      <point x="556" y="664" type="curve" smooth="yes"/>
      <point x="556" y="653"/>
      <point x="565" y="652"/>
      <point x="572" y="652" type="curve" smooth="yes"/>
      <point x="599" y="652"/>
      <point x="618" y="640"/>
      <point x="618" y="619" type="curve" smooth="yes"/>
      <point x="618" y="604"/>
      <point x="606" y="586"/>
      <point x="603" y="581" type="curve" smooth="yes"/>
      <point x="296" y="93" type="line"/>
      <point x="229" y="614" type="line" smooth="yes"/>
      <point x="228" y="622"/>
      <point x="228" y="624"/>
      <point x="228" y="625" type="curve" smooth="yes"/>
      <point x="228" y="641"/>
      <point x="253" y="652"/>
      <point x="297" y="652" type="curve" smooth="yes"/>
      <point x="311" y="652"/>
      <point x="322" y="652"/>
      <point x="322" y="672" type="curve" smooth="yes"/>
      <point x="322" y="681"/>
      <point x="314" y="683"/>
      <point x="308" y="683" type="curve" smooth="yes"/>
      <point x="285" y="683"/>
      <point x="262" y="682"/>
      <point x="238" y="681" type="curve" smooth="yes"/>
      <point x="202" y="680"/>
      <point x="165" y="680"/>
      <point x="129" y="681" type="curve" smooth="yes"/>
      <point x="111" y="681"/>
      <point x="92" y="683"/>
      <point x="75" y="683" type="curve" smooth="yes"/>
      <point x="68" y="683"/>
      <point x="56" y="683"/>
      <point x="56" y="664" type="curve" smooth="yes"/>
      <point x="56" y="652"/>
      <point x="65" y="652"/>
      <point x="81" y="652" type="curve" smooth="yes"/>
      <point x="137" y="652"/>
      <point x="138" y="643"/>
      <point x="141" y="618" type="curve" smooth="yes"/>
      <point x="220" y="1" type="line" smooth="yes"/>
      <point x="223" y="-19"/>
      <point x="227" y="-22"/>
    </contour>
  </outline>
</glyph>
<glyph name="X" format="2">
  <advance width="828"/>
  <unicode hex="0058"/>
  <outline>
    <contour>
      <point x="497" y="384" type="curve"/>
      <point x="565" y="454"/>
      <point x="670" y="573"/>
      <point x="702" y="601" type="curve" smooth="yes"/>
      <point x="731" y="625"/>
      <point x="769" y="649"/>
      <point x="829" y="652" type="curve" smooth="yes"/>
      <point x="842" y="653"/>
      <point x="851" y="653"/>
      <point x="851" y="672" type="curve" smooth="yes"/>
      <point x="851" y="673"/>
      <point x="851" y="683"/>
      <point x="838" y="683" type="curve" smooth="yes"/>
      <point x="808" y="683"/>
      <point x="775" y="680"/>
      <point x="744" y="680" type="curve" smooth="yes"/>
      <point x="707" y="680"/>
      <point x="669" y="683"/>
      <point x="633" y="683" type="curve" smooth="yes"/>
      <point x="627" y="683"/>
      <point x="614" y="683"/>
      <point x="614" y="663" type="curve" smooth="yes"/>
      <point x="614" y="656"/>
      <point x="619" y="653"/>
      <point x="626" y="652" type="curve" smooth="yes"/>
      <point x="635" y="651"/>
      <point x="666" y="649"/>
      <point x="666" y="621" type="curve" smooth="yes"/>
      <point x="666" y="607"/>
      <point x="655" y="594"/>
      <point x="647" y="585" type="curve" smooth="yes"/>
      <point x="485" y="411" type="line"/>
      <point x="401" y="610" type="line" smooth="yes"/>
      <point x="399" y="615"/>
      <point x="397" y="620"/>
      <point x="396" y="623" type="curve" smooth="yes"/>
      <point x="392" y="635"/>
      <point x="403" y="649"/>
      <point x="455" y="652" type="curve" smooth="yes"/>
      <point x="465" y="653"/>
      <point x="475" y="654"/>
      <point x="475" y="671" type="curve" smooth="yes"/>
      <point x="475" y="683"/>
      <point x="463" y="683"/>
      <point x="460" y="683" type="curve" smooth="yes"/>
      <point x="439.17446" y="683.0"/>
      <point x="418" y="683"/>
      <point x="396.3685119362985" y="681.4642730033971" type="curve" smooth="yes"/>
      <point x="366" y="680"/>
      <point x="343.904" y="679.27996"/>
      <point x="291.8907605172986" y="681.025249147246" type="curve" smooth="yes"/>
      <point x="265.9959022452" y="681.8941430612"/>
      <point x="237.17849999999999" y="683.0"/>
      <point x="222" y="683" type="curve" smooth="yes"/>
      <point x="216" y="683"/>
      <point x="204" y="683"/>
      <point x="204" y="663" type="curve" smooth="yes"/>
      <point x="204" y="652"/>
      <point x="214" y="652"/>
      <point x="227" y="652" type="curve" smooth="yes"/>
      <point x="287" y="652"/>
      <point x="293" y="642"/>
      <point x="302" y="620" type="curve" smooth="yes"/>
      <point x="420" y="341" type="line"/>
      <point x="196" y="103" type="line" smooth="yes"/>
      <point x="147" y="50"/>
      <point x="100" y="34"/>
      <point x="49" y="31" type="curve" smooth="yes"/>
      <point x="36" y="30"/>
      <point x="27" y="30"/>
      <point x="27" y="11" type="curve" smooth="yes"/>
      <point x="27" y="10"/>
      <point x="27" y="0"/>
      <point x="40" y="0" type="curve" smooth="yes"/>
      <point x="70" y="0"/>
      <point x="103" y="3"/>
      <point x="134" y="3" type="curve" smooth="yes"/>
      <point x="171" y="3"/>
      <point x="210" y="0"/>
      <point x="246" y="0" type="curve" smooth="yes"/>
      <point x="252" y="0"/>
      <point x="264" y="0"/>
      <point x="264" y="20" type="curve" smooth="yes"/>
      <point x="264" y="30"/>
      <point x="254" y="31"/>
      <point x="252" y="31" type="curve" smooth="yes"/>
      <point x="243" y="31"/>
      <point x="212" y="34"/>
      <point x="212" y="62" type="curve" smooth="yes"/>
      <point x="212" y="78"/>
      <point x="227" y="94"/>
      <point x="239" y="107" type="curve" smooth="yes"/>
      <point x="431" y="313" type="line"/>
      <point x="532" y="74" type="line" smooth="yes"/>
      <point x="536" y="65"/>
      <point x="537" y="62"/>
      <point x="537" y="59" type="curve" smooth="yes"/>
      <point x="537" y="50"/>
      <point x="518" y="35"/>
      <point x="479" y="31" type="curve" smooth="yes"/>
      <point x="468" y="30"/>
      <point x="459" y="29"/>
      <point x="459" y="12" type="curve" smooth="yes"/>
      <point x="459" y="0"/>
      <point x="470" y="0"/>
      <point x="474" y="0" type="curve" smooth="yes"/>
      <point x="490" y="0"/>
      <point x="521" y="1"/>
      <point x="548" y="2" type="curve" smooth="yes"/>
      <point x="590" y="3"/>
      <point x="600" y="3"/>
      <point x="644" y="2" type="curve" smooth="yes"/>
      <point x="666" y="1"/>
      <point x="698" y="0"/>
      <point x="711" y="0" type="curve" smooth="yes"/>
      <point x="718" y="0"/>
      <point x="730" y="0"/>
      <point x="730" y="19" type="curve" smooth="yes"/>
      <point x="730" y="31"/>
      <point x="720" y="31"/>
      <point x="712" y="31" type="curve" smooth="yes"/>
      <point x="645" y="32"/>
      <point x="643" y="35"/>
      <point x="626" y="75" type="curve" smooth="yes"/>
      <point x="587" y="168"/>
      <point x="520" y="324"/>
    </contour>
  </outline>
</glyph>
<glyph name="Y" format="2">
  <advance width="580"/>
  <unicode hex="0059"/>
  <outline>
    <contour>
      <point x="340" y="314" type="line"/>
      <point x="230" y="611" type="line" smooth="yes"/>
      <point x="225" y="623"/>
      <point x="224" y="629"/>
      <point x="224" y="630" type="curve" smooth="yes"/>
      <point x="224" y="654"/>
      <point x="273" y="652"/>
      <point x="283" y="652" type="curve" smooth="yes"/>
      <point x="297" y="652"/>
      <point x="307" y="652"/>
      <point x="307" y="672" type="curve" smooth="yes"/>
      <point x="307" y="683"/>
      <point x="295" y="683"/>
      <point x="292" y="683" type="curve" smooth="yes"/>
      <point x="275.33328" y="683.0"/>
      <point x="243.78551238080001" y="681.9370680272"/>
      <point x="215.07228671210524" y="681.0766033365788" type="curve" smooth="yes"/>
      <point x="176" y="680"/>
      <point x="157" y="680"/>
      <point x="116.97950881466234" y="681.2598573934058" type="curve" smooth="yes"/>
      <point x="93" y="682"/>
      <point x="67.83925" y="683.0"/>
      <point x="54" y="683" type="curve" smooth="yes"/>
      <point x="48" y="683"/>
      <point x="35" y="683"/>
      <point x="35" y="663" type="curve" smooth="yes"/>
      <point x="35" y="652"/>
      <point x="45" y="652"/>
      <point x="58" y="652" type="curve" smooth="yes"/>
      <point x="118" y="652"/>
      <point x="122" y="643"/>
      <point x="131" y="618" type="curve" smooth="yes"/>
      <point x="254" y="289" type="line" smooth="yes"/>
      <point x="255" y="286"/>
      <point x="258" y="275"/>
      <point x="258" y="272" type="curve" smooth="yes"/>
      <point x="258" y="269"/>
      <point x="218" y="108"/>
      <point x="213" y="90" type="curve" smooth="yes"/>
      <point x="200" y="35"/>
      <point x="199" y="32"/>
      <point x="119" y="31" type="curve" smooth="yes"/>
      <point x="100" y="31"/>
      <point x="92" y="31"/>
      <point x="92" y="11" type="curve" smooth="yes"/>
      <point x="92" y="0"/>
      <point x="104" y="0"/>
      <point x="106" y="0" type="curve" smooth="yes"/>
      <point x="122.88876" y="0.0"/>
      <point x="155" y="1"/>
      <point x="184.0737456918989" y="1.9576761208499218" type="curve" smooth="yes"/>
      <point x="228" y="3"/>
      <point x="252.73976" y="2.79707"/>
      <point x="298.34266462880316" y="1.429732866217968" type="curve" smooth="yes"/>
      <point x="322.55126468640003" y="0.7038719532000001"/>
      <point x="346.43736" y="0.0"/>
      <point x="360" y="0" type="curve" smooth="yes"/>
      <point x="367" y="0"/>
      <point x="379" y="0"/>
      <point x="379" y="20" type="curve" smooth="yes"/>
      <point x="379" y="31"/>
      <point x="370" y="31"/>
      <point x="351" y="31" type="curve" smooth="yes"/>
      <point x="349" y="31"/>
      <point x="330" y="31"/>
      <point x="313" y="33" type="curve" smooth="yes"/>
      <point x="292" y="35"/>
      <point x="286" y="37"/>
      <point x="286" y="49" type="curve" smooth="yes"/>
      <point x="286" y="56"/>
      <point x="295" y="91"/>
      <point x="300" y="112" type="curve" smooth="yes"/>
      <point x="335" y="253" type="line" smooth="yes"/>
      <point x="340" y="272"/>
      <point x="341" y="275"/>
      <point x="349" y="284" type="curve" smooth="yes"/>
      <point x="597" y="569" type="line" smooth="yes"/>
      <point x="602" y="574"/>
      <point x="607" y="579"/>
      <point x="612" y="584" type="curve" smooth="yes"/>
      <point x="642" y="614"/>
      <point x="674" y="647"/>
      <point x="742" y="652" type="curve" smooth="yes"/>
      <point x="753" y="653"/>
      <point x="762" y="653"/>
      <point x="762" y="671" type="curve" smooth="yes"/>
      <point x="762" y="679"/>
      <point x="757" y="683"/>
      <point x="749" y="683" type="curve" smooth="yes"/>
      <point x="723" y="683"/>
      <point x="694" y="680"/>
      <point x="667" y="680" type="curve" smooth="yes"/>
      <point x="634" y="680"/>
      <point x="599" y="683"/>
      <point x="567" y="683" type="curve" smooth="yes"/>
      <point x="561" y="683"/>
      <point x="548" y="683"/>
      <point x="548" y="664" type="curve" smooth="yes"/>
      <point x="548" y="653"/>
      <point x="558" y="652"/>
      <point x="563" y="652" type="curve" smooth="yes"/>
      <point x="570" y="652"/>
      <point x="599" y="650"/>
      <point x="599" y="629" type="curve" smooth="yes"/>
      <point x="599" y="612"/>
      <point x="576" y="586"/>
      <point x="572" y="581" type="curve" smooth="yes"/>
    </contour>
  </outline>
</glyph>
<glyph name="Z" format="2">
  <advance width="682"/>
  <unicode hex="005A"/>
  <outline>
    <contour>
      <point x="621" y="652" type="line"/>
      <point x="62" y="27" type="line"/>
      <point x="62" y="26"/>
      <point x="58" y="12"/>
      <point x="58" y="9" type="curve" smooth="yes"/>
      <point x="58" y="0"/>
      <point x="65" y="0"/>
      <point x="83" y="0" type="curve" smooth="yes"/>
      <point x="518" y="0" type="line" smooth="yes"/>
      <point x="542" y="0"/>
      <point x="543" y="1"/>
      <point x="549" y="20" type="curve" smooth="yes"/>
      <point x="620" y="241" type="line"/>
      <point x="621" y="245"/>
      <point x="624" y="252"/>
      <point x="624" y="256" type="curve" smooth="yes"/>
      <point x="624" y="261"/>
      <point x="620" y="267"/>
      <point x="611" y="267" type="curve" smooth="yes"/>
      <point x="602" y="267"/>
      <point x="601" y="263"/>
      <point x="594" y="242" type="curve" smooth="yes"/>
      <point x="550" y="106"/>
      <point x="502" y="34"/>
      <point x="332" y="34" type="curve" smooth="yes"/>
      <point x="161" y="34" type="line"/>
      <point x="720" y="659" type="line"/>
      <point x="721" y="663"/>
      <point x="723" y="668"/>
      <point x="723" y="674" type="curve" smooth="yes"/>
      <point x="723" y="683"/>
      <point x="718" y="683"/>
      <point x="698" y="683" type="curve" smooth="yes"/>
      <point x="276" y="683" type="line" smooth="yes"/>
      <point x="252" y="683"/>
      <point x="251" y="682"/>
      <point x="245" y="663" type="curve" smooth="yes"/>
      <point x="190" y="483" type="line"/>
      <point x="188" y="478"/>
      <point x="187" y="471"/>
      <point x="187" y="469" type="curve" smooth="yes"/>
      <point x="187" y="468"/>
      <point x="187" y="458"/>
      <point x="199" y="458" type="curve" smooth="yes"/>
      <point x="208" y="458"/>
      <point x="210" y="465"/>
      <point x="212" y="468" type="curve"/>
      <point x="250" y="586"/>
      <point x="302" y="652"/>
      <point x="458" y="652" type="curve" smooth="yes"/>
    </contour>
  </outline>
</glyph>
<glyph name="a" format="2">
  <advance width="528"/>
  <unicode hex="0061"/>
  <outline>
    <contour>
      <point x="373" y="378" type="curve"/>
      <point x="355" y="415"/>
      <point x="326" y="442"/>
      <point x="281" y="442" type="curve" smooth="yes"/>
      <point x="164" y="442"/>
      <point x="40" y="295"/>
      <point x="40" y="149" type="curve" smooth="yes"/>
      <point x="40" y="55"/>
      <point x="95" y="-11"/>
      <point x="173" y="-11" type="curve" smooth="yes"/>
      <point x="193" y="-11"/>
      <point x="243" y="-7"/>
      <point x="303" y="64" type="curve"/>
      <point x="311" y="22"/>
      <point x="346" y="-11"/>
      <point x="394" y="-11" type="curve" smooth="yes"/>
      <point x="429" y="-11"/>
      <point x="452" y="12"/>
      <point x="468" y="44" type="curve" smooth="yes"/>
      <point x="485" y="80"/>
      <point x="498" y="141"/>
      <point x="498" y="143" type="curve" smooth="yes"/>
      <point x="498" y="153"/>
      <point x="489" y="153"/>
      <point x="486" y="153" type="curve" smooth="yes"/>
      <point x="476" y="153"/>
      <point x="475" y="149"/>
      <point x="472" y="135" type="curve" smooth="yes"/>
      <point x="455" y="70"/>
      <point x="437" y="11"/>
      <point x="396" y="11" type="curve" smooth="yes"/>
      <point x="369" y="11"/>
      <point x="366" y="37"/>
      <point x="366" y="57" type="curve" smooth="yes"/>
      <point x="366" y="79"/>
      <point x="368" y="87"/>
      <point x="379" y="131" type="curve" smooth="yes"/>
      <point x="390" y="173"/>
      <point x="392" y="183"/>
      <point x="401" y="221" type="curve" smooth="yes"/>
      <point x="437" y="361" type="line" smooth="yes"/>
      <point x="444" y="389"/>
      <point x="444" y="391"/>
      <point x="444" y="395" type="curve" smooth="yes"/>
      <point x="444" y="412"/>
      <point x="432" y="422"/>
      <point x="415" y="422" type="curve" smooth="yes"/>
      <point x="391" y="422"/>
      <point x="376" y="400"/>
    </contour>
    <contour>
      <point x="308" y="119" type="line" smooth="yes"/>
      <point x="303" y="101"/>
      <point x="303" y="99"/>
      <point x="288" y="82" type="curve" smooth="yes"/>
      <point x="244" y="27"/>
      <point x="203" y="11"/>
      <point x="175" y="11" type="curve" smooth="yes"/>
      <point x="125" y="11"/>
      <point x="111" y="66"/>
      <point x="111" y="105" type="curve" smooth="yes"/>
      <point x="111" y="155"/>
      <point x="143" y="278"/>
      <point x="166" y="324" type="curve" smooth="yes"/>
      <point x="197" y="383"/>
      <point x="242" y="420"/>
      <point x="282" y="420" type="curve" smooth="yes"/>
      <point x="347" y="420"/>
      <point x="361" y="338"/>
      <point x="361" y="332" type="curve" smooth="yes"/>
      <point x="361" y="326"/>
      <point x="359" y="320"/>
      <point x="358" y="315" type="curve"/>
    </contour>
  </outline>
</glyph>
<glyph name="b" format="2">
  <advance width="429"/>
  <unicode hex="0062"/>
  <outline>
    <contour>
      <point x="174" y="-11" type="curve" smooth="yes"/>
      <point x="292" y="-11"/>
      <point x="415" y="138"/>
      <point x="415" y="282" type="curve" smooth="yes"/>
      <point x="415" y="373"/>
      <point x="362" y="442"/>
      <point x="282" y="442" type="curve" smooth="yes"/>
      <point x="236" y="442"/>
      <point x="195" y="413"/>
      <point x="165" y="382" type="curve"/>
      <point x="239" y="683" type="line"/>
      <point x="239" y="683" type="line"/>
      <point x="239" y="684"/>
      <point x="239" y="694"/>
      <point x="226" y="694" type="curve" smooth="yes"/>
      <point x="203" y="694"/>
      <point x="130" y="686"/>
      <point x="104" y="684" type="curve" smooth="yes"/>
      <point x="96" y="683"/>
      <point x="85" y="682"/>
      <point x="85" y="664" type="curve" smooth="yes"/>
      <point x="85" y="652"/>
      <point x="94" y="652"/>
      <point x="109" y="652" type="curve" smooth="yes"/>
      <point x="157" y="652"/>
      <point x="159" y="645"/>
      <point x="159" y="635" type="curve" smooth="yes"/>
      <point x="159" y="628"/>
      <point x="150" y="594"/>
      <point x="145" y="573" type="curve" smooth="yes"/>
      <point x="63" y="247" type="line" smooth="yes"/>
      <point x="51" y="197"/>
      <point x="47" y="181"/>
      <point x="47" y="146" type="curve" smooth="yes"/>
      <point x="47" y="51"/>
      <point x="100" y="-11"/>
    </contour>
    <contour>
      <point x="174" y="11" type="curve" smooth="yes"/>
      <point x="140" y="11"/>
      <point x="107" y="38"/>
      <point x="107" y="112" type="curve" smooth="yes"/>
      <point x="107" y="131"/>
      <point x="107" y="150"/>
      <point x="123" y="213" type="curve" smooth="yes"/>
      <point x="145" y="305" type="line" smooth="yes"/>
      <point x="151" y="327"/>
      <point x="151" y="329"/>
      <point x="160" y="340" type="curve" smooth="yes"/>
      <point x="209" y="405"/>
      <point x="254" y="420"/>
      <point x="280" y="420" type="curve" smooth="yes"/>
      <point x="316" y="420"/>
      <point x="343" y="390"/>
      <point x="343" y="326" type="curve" smooth="yes"/>
      <point x="343" y="267"/>
      <point x="310" y="152"/>
      <point x="292" y="114" type="curve" smooth="yes"/>
      <point x="259" y="47"/>
      <point x="213" y="11"/>
    </contour>
  </outline>
</glyph>
<glyph name="c" format="2">
  <advance width="432"/>
  <unicode hex="0063"/>
  <outline>
    <contour>
      <point x="396" y="380" type="curve"/>
      <point x="380" y="380"/>
      <point x="366" y="380"/>
      <point x="352" y="366" type="curve" smooth="yes"/>
      <point x="336" y="351"/>
      <point x="334" y="334"/>
      <point x="334" y="327" type="curve" smooth="yes"/>
      <point x="334" y="303"/>
      <point x="352" y="292"/>
      <point x="371" y="292" type="curve" smooth="yes"/>
      <point x="400" y="292"/>
      <point x="427" y="316"/>
      <point x="427" y="356" type="curve" smooth="yes"/>
      <point x="427" y="405"/>
      <point x="380" y="442"/>
      <point x="309" y="442" type="curve" smooth="yes"/>
      <point x="174" y="442"/>
      <point x="41" y="299"/>
      <point x="41" y="158" type="curve" smooth="yes"/>
      <point x="41" y="68"/>
      <point x="99" y="-11"/>
      <point x="203" y="-11" type="curve" smooth="yes"/>
      <point x="346" y="-11"/>
      <point x="430" y="95"/>
      <point x="430" y="107" type="curve" smooth="yes"/>
      <point x="430" y="113"/>
      <point x="424" y="120"/>
      <point x="418" y="120" type="curve" smooth="yes"/>
      <point x="413" y="120"/>
      <point x="411" y="118"/>
      <point x="405" y="110" type="curve" smooth="yes"/>
      <point x="326" y="11"/>
      <point x="217" y="11"/>
      <point x="205" y="11" type="curve" smooth="yes"/>
      <point x="142" y="11"/>
      <point x="115" y="60"/>
      <point x="115" y="120" type="curve" smooth="yes"/>
      <point x="115" y="161"/>
      <point x="135" y="258"/>
      <point x="169" y="320" type="curve" smooth="yes"/>
      <point x="200" y="377"/>
      <point x="255" y="420"/>
      <point x="310" y="420" type="curve" smooth="yes"/>
      <point x="344" y="420"/>
      <point x="382" y="407"/>
    </contour>
  </outline>
</glyph>
<glyph name="e" format="2">
  <advance width="465"/>
  <unicode hex="0065"/>
  <outline>
    <contour>
      <point x="187" y="231" type="line" smooth="yes"/>
      <point x="216" y="231"/>
      <point x="290" y="233"/>
      <point x="340" y="254" type="curve" smooth="yes"/>
      <point x="410" y="284"/>
      <point x="415" y="343"/>
      <point x="415" y="357" type="curve" smooth="yes"/>
      <point x="415" y="401"/>
      <point x="377" y="442"/>
      <point x="308" y="442" type="curve" smooth="yes"/>
      <point x="197" y="442"/>
      <point x="46" y="345"/>
      <point x="46" y="170" type="curve" smooth="yes"/>
      <point x="46" y="68"/>
      <point x="105" y="-11"/>
      <point x="203" y="-11" type="curve" smooth="yes"/>
      <point x="346" y="-11"/>
      <point x="430" y="95"/>
      <point x="430" y="107" type="curve" smooth="yes"/>
      <point x="430" y="113"/>
      <point x="424" y="120"/>
      <point x="418" y="120" type="curve" smooth="yes"/>
      <point x="413" y="120"/>
      <point x="411" y="118"/>
      <point x="405" y="110" type="curve" smooth="yes"/>
      <point x="326" y="11"/>
      <point x="217" y="11"/>
      <point x="205" y="11" type="curve" smooth="yes"/>
      <point x="127" y="11"/>
      <point x="118" y="95"/>
      <point x="118" y="127" type="curve" smooth="yes"/>
      <point x="118" y="139"/>
      <point x="119" y="170"/>
      <point x="134" y="231" type="curve"/>
    </contour>
    <contour>
      <point x="140" y="253" type="line"/>
      <point x="179" y="405"/>
      <point x="282" y="420"/>
      <point x="308" y="420" type="curve" smooth="yes"/>
      <point x="355" y="420"/>
      <point x="382" y="391"/>
      <point x="382" y="357" type="curve" smooth="yes"/>
      <point x="382" y="253"/>
      <point x="222" y="253"/>
      <point x="181" y="253" type="curve" smooth="yes"/>
    </contour>
  </outline>
</glyph>
<glyph name="h" format="2">
  <advance width="576"/>
  <unicode hex="0068"/>
  <outline>
    <contour>
      <point x="357" y="442" type="curve" smooth="yes"/>
      <point x="294" y="442"/>
      <point x="246" y="411"/>
      <point x="209" y="365" type="curve"/>
      <point x="287" y="683" type="line"/>
      <point x="287.0" y="683.0"/>
      <point x="287.0" y="683.0"/>
      <point x="287" y="683" type="curve"/>
      <point x="287" y="684"/>
      <point x="287" y="694"/>
      <point x="274" y="694" type="curve" smooth="yes"/>
      <point x="251" y="694"/>
      <point x="178" y="686"/>
      <point x="152" y="684" type="curve" smooth="yes"/>
      <point x="144" y="683"/>
      <point x="133" y="682"/>
      <point x="133" y="664" type="curve" smooth="yes"/>
      <point x="133" y="652"/>
      <point x="142" y="652"/>
      <point x="157" y="652" type="curve" smooth="yes"/>
      <point x="205" y="652"/>
      <point x="207" y="645"/>
      <point x="207" y="635" type="curve"/>
      <point x="206.001" y="628.34"/>
      <point x="205.002" y="621.68"/>
      <point x="204" y="615" type="curve"/>
      <point x="59" y="39" type="line" smooth="yes"/>
      <point x="55" y="25"/>
      <point x="55" y="23"/>
      <point x="55" y="17" type="curve" smooth="yes"/>
      <point x="55" y="-6"/>
      <point x="75" y="-11"/>
      <point x="84" y="-11" type="curve" smooth="yes"/>
      <point x="100" y="-11"/>
      <point x="116" y="1"/>
      <point x="121" y="15" type="curve"/>
      <point x="127.327" y="40.308"/>
      <point x="133.654" y="65.616"/>
      <point x="140" y="91" type="curve" smooth="yes"/>
      <point x="168" y="203"/>
      <point x="174" y="225"/>
      <point x="179" y="248" type="curve"/>
      <point x="181" y="254"/>
      <point x="189" y="287"/>
      <point x="190" y="293" type="curve"/>
      <point x="199" y="310"/>
      <point x="248" y="420"/>
      <point x="354" y="420" type="curve" smooth="yes"/>
      <point x="397" y="420"/>
      <point x="408" y="386"/>
      <point x="408" y="350" type="curve" smooth="yes"/>
      <point x="408" y="296"/>
      <point x="370" y="187"/>
      <point x="346" y="126" type="curve" smooth="yes"/>
      <point x="338" y="103"/>
      <point x="333" y="91"/>
      <point x="333" y="71" type="curve" smooth="yes"/>
      <point x="333" y="24"/>
      <point x="368" y="-11"/>
      <point x="415" y="-11" type="curve" smooth="yes"/>
      <point x="509" y="-11"/>
      <point x="546" y="135"/>
      <point x="546" y="143" type="curve" smooth="yes"/>
      <point x="546" y="153"/>
      <point x="537" y="153"/>
      <point x="534" y="153" type="curve" smooth="yes"/>
      <point x="524" y="153"/>
      <point x="524" y="150"/>
      <point x="519" y="135" type="curve" smooth="yes"/>
      <point x="504" y="82"/>
      <point x="472" y="11"/>
      <point x="417" y="11" type="curve" smooth="yes"/>
      <point x="400" y="11"/>
      <point x="393" y="21"/>
      <point x="393" y="44" type="curve" smooth="yes"/>
      <point x="393" y="69"/>
      <point x="402" y="93"/>
      <point x="411" y="115" type="curve" smooth="yes"/>
      <point x="427" y="158"/>
      <point x="472" y="277"/>
      <point x="472" y="335" type="curve" smooth="yes"/>
      <point x="472" y="400"/>
      <point x="432" y="442"/>
    </contour>
  </outline>
</glyph>
<glyph name="i" format="2">
  <advance width="344"/>
  <unicode hex="0069"/>
  <outline>
    <contour>
      <point x="284" y="625" type="curve" smooth="yes"/>
      <point x="284" y="645"/>
      <point x="270" y="661"/>
      <point x="247" y="661" type="curve" smooth="yes"/>
      <point x="220" y="661"/>
      <point x="193" y="635"/>
      <point x="193" y="608" type="curve" smooth="yes"/>
      <point x="193" y="589"/>
      <point x="207" y="572"/>
      <point x="231" y="572" type="curve" smooth="yes"/>
      <point x="254" y="572"/>
      <point x="284" y="595"/>
    </contour>
    <contour>
      <point x="208" y="249" type="line" smooth="yes"/>
      <point x="220" y="278"/>
      <point x="220" y="280"/>
      <point x="230" y="307" type="curve" smooth="yes"/>
      <point x="238" y="327"/>
      <point x="243" y="341"/>
      <point x="243" y="360" type="curve" smooth="yes"/>
      <point x="243" y="405"/>
      <point x="211" y="442"/>
      <point x="161" y="442" type="curve" smooth="yes"/>
      <point x="67" y="442"/>
      <point x="29" y="297"/>
      <point x="29" y="288" type="curve" smooth="yes"/>
      <point x="29" y="278"/>
      <point x="39" y="278"/>
      <point x="41" y="278" type="curve" smooth="yes"/>
      <point x="51" y="278"/>
      <point x="52" y="280"/>
      <point x="57" y="296" type="curve" smooth="yes"/>
      <point x="84" y="390"/>
      <point x="124" y="420"/>
      <point x="158" y="420" type="curve" smooth="yes"/>
      <point x="166" y="420"/>
      <point x="183" y="420"/>
      <point x="183" y="388" type="curve" smooth="yes"/>
      <point x="183" y="367"/>
      <point x="176" y="346"/>
      <point x="172" y="336" type="curve"/>
      <point x="164" y="310"/>
      <point x="119" y="194"/>
      <point x="103" y="151" type="curve" smooth="yes"/>
      <point x="93" y="125"/>
      <point x="80" y="92"/>
      <point x="80" y="71" type="curve" smooth="yes"/>
      <point x="80" y="24"/>
      <point x="114" y="-11"/>
      <point x="162" y="-11" type="curve" smooth="yes"/>
      <point x="256" y="-11"/>
      <point x="293" y="134"/>
      <point x="293" y="143" type="curve" smooth="yes"/>
      <point x="293" y="153"/>
      <point x="284" y="153"/>
      <point x="281" y="153" type="curve" smooth="yes"/>
      <point x="271" y="153"/>
      <point x="271" y="150"/>
      <point x="266" y="135" type="curve" smooth="yes"/>
      <point x="248" y="72"/>
      <point x="215" y="11"/>
      <point x="164" y="11" type="curve" smooth="yes"/>
      <point x="147" y="11"/>
      <point x="140" y="21"/>
      <point x="140" y="44" type="curve" smooth="yes"/>
      <point x="140" y="69"/>
      <point x="146" y="83"/>
      <point x="169" y="144" type="curve" smooth="yes"/>
    </contour>
  </outline>
</glyph>
<glyph name="k" format="2">
  <advance width="520"/>
  <unicode hex="006B"/>
  <outline>
    <contour>
      <point x="287" y="683" type="line"/>
      <point x="287" y="684"/>
      <point x="287" y="694"/>
      <point x="274" y="694" type="curve" smooth="yes"/>
      <point x="251" y="694"/>
      <point x="178" y="686"/>
      <point x="152" y="684" type="curve" smooth="yes"/>
      <point x="144" y="683"/>
      <point x="133" y="682"/>
      <point x="133" y="664" type="curve" smooth="yes"/>
      <point x="133" y="652"/>
      <point x="142" y="652"/>
      <point x="157" y="652" type="curve" smooth="yes"/>
      <point x="205" y="652"/>
      <point x="207" y="645"/>
      <point x="207" y="635" type="curve"/>
      <point x="204" y="615" type="line"/>
      <point x="59" y="39" type="line" smooth="yes"/>
      <point x="55" y="25"/>
      <point x="55" y="23"/>
      <point x="55" y="17" type="curve" smooth="yes"/>
      <point x="55" y="-6"/>
      <point x="75" y="-11"/>
      <point x="84" y="-11" type="curve" smooth="yes"/>
      <point x="97" y="-11"/>
      <point x="112" y="-2"/>
      <point x="118" y="10" type="curve" smooth="yes"/>
      <point x="123" y="19"/>
      <point x="168" y="204"/>
      <point x="174" y="229" type="curve"/>
      <point x="208" y="226"/>
      <point x="290" y="210"/>
      <point x="290" y="144" type="curve" smooth="yes"/>
      <point x="290" y="137"/>
      <point x="290" y="133"/>
      <point x="287" y="123" type="curve"/>
      <point x="285" y="111"/>
      <point x="283" y="99"/>
      <point x="283" y="88" type="curve" smooth="yes"/>
      <point x="283" y="29"/>
      <point x="323" y="-11"/>
      <point x="375" y="-11" type="curve" smooth="yes"/>
      <point x="405" y="-11"/>
      <point x="432" y="5"/>
      <point x="454" y="42" type="curve" smooth="yes"/>
      <point x="479" y="86"/>
      <point x="490" y="141"/>
      <point x="490" y="143" type="curve" smooth="yes"/>
      <point x="490" y="153"/>
      <point x="481" y="153"/>
      <point x="478" y="153" type="curve" smooth="yes"/>
      <point x="468" y="153"/>
      <point x="467" y="149"/>
      <point x="464" y="135" type="curve"/>
      <point x="444" y="62"/>
      <point x="421" y="11"/>
      <point x="377" y="11" type="curve" smooth="yes"/>
      <point x="358" y="11"/>
      <point x="345" y="22"/>
      <point x="345" y="58" type="curve" smooth="yes"/>
      <point x="345" y="75"/>
      <point x="349" y="98"/>
      <point x="353" y="114" type="curve" smooth="yes"/>
      <point x="357" y="131"/>
      <point x="357" y="135"/>
      <point x="357" y="145" type="curve" smooth="yes"/>
      <point x="357" y="210"/>
      <point x="294" y="239"/>
      <point x="209" y="250" type="curve"/>
      <point x="240" y="268"/>
      <point x="272" y="300"/>
      <point x="295" y="324" type="curve" smooth="yes"/>
      <point x="343" y="377"/>
      <point x="389" y="420"/>
      <point x="438" y="420" type="curve" smooth="yes"/>
      <point x="444" y="420"/>
      <point x="445" y="420"/>
      <point x="447" y="419" type="curve"/>
      <point x="459" y="417"/>
      <point x="460" y="417"/>
      <point x="468" y="411" type="curve"/>
      <point x="470" y="410"/>
      <point x="470" y="409"/>
      <point x="472" y="407" type="curve"/>
      <point x="424" y="404"/>
      <point x="415" y="365"/>
      <point x="415" y="353" type="curve" smooth="yes"/>
      <point x="415" y="337"/>
      <point x="426" y="318"/>
      <point x="453" y="318" type="curve" smooth="yes"/>
      <point x="479" y="318"/>
      <point x="508" y="340"/>
      <point x="508" y="379" type="curve" smooth="yes"/>
      <point x="508" y="409"/>
      <point x="485" y="442"/>
      <point x="440" y="442" type="curve" smooth="yes"/>
      <point x="412" y="442"/>
      <point x="366" y="434"/>
      <point x="294" y="354" type="curve" smooth="yes"/>
      <point x="260" y="316"/>
      <point x="221" y="276"/>
      <point x="183" y="261" type="curve"/>
    </contour>
  </outline>
</glyph>
<glyph name="l" format="2">
  <advance width="298"/>
  <unicode hex="006C"/>
  <outline>
    <contour>
      <point x="114" y="105" type="curve" smooth="yes"/>
      <point x="258" y="683" type="line"/>
      <point x="258" y="683" type="line"/>
      <point x="258" y="684"/>
      <point x="258" y="694"/>
      <point x="245" y="694" type="curve" smooth="yes"/>
      <point x="222" y="694"/>
      <point x="149" y="686"/>
      <point x="123" y="684" type="curve" smooth="yes"/>
      <point x="115" y="683"/>
      <point x="104" y="682"/>
      <point x="104" y="663" type="curve" smooth="yes"/>
      <point x="104" y="652"/>
      <point x="114" y="652"/>
      <point x="129" y="652" type="curve" smooth="yes"/>
      <point x="177" y="652"/>
      <point x="178" y="643"/>
      <point x="178" y="635" type="curve"/>
      <point x="175" y="615" type="line"/>
      <point x="49" y="115" type="line" smooth="yes"/>
      <point x="46" y="104"/>
      <point x="44" y="97"/>
      <point x="44" y="81" type="curve" smooth="yes"/>
      <point x="44" y="24"/>
      <point x="88" y="-11"/>
      <point x="135" y="-11" type="curve" smooth="yes"/>
      <point x="168" y="-11"/>
      <point x="193" y="9"/>
      <point x="210" y="45" type="curve" smooth="yes"/>
      <point x="228" y="83"/>
      <point x="240" y="141"/>
      <point x="240" y="143" type="curve" smooth="yes"/>
      <point x="240" y="153"/>
      <point x="231" y="153"/>
      <point x="228" y="153" type="curve" smooth="yes"/>
      <point x="218" y="153"/>
      <point x="217" y="149"/>
      <point x="214" y="135" type="curve" smooth="yes"/>
      <point x="197" y="70"/>
      <point x="178" y="11"/>
      <point x="138" y="11" type="curve" smooth="yes"/>
      <point x="108" y="11"/>
      <point x="108" y="43"/>
      <point x="108" y="57" type="curve" smooth="yes"/>
      <point x="108" y="81"/>
      <point x="109" y="86"/>
    </contour>
  </outline>
</glyph>
<glyph name="n" format="2">
  <advance width="600"/>
  <unicode hex="006E"/>
  <outline>
    <contour>
      <point x="108" y="-11" type="curve" smooth="yes"/>
      <point x="120" y="-11"/>
      <point x="138" y="-3"/>
      <point x="145" y="17" type="curve" smooth="yes"/>
      <point x="146" y="19"/>
      <point x="158" y="66"/>
      <point x="164" y="91" type="curve" smooth="yes"/>
      <point x="214" y="290"/>
      <point x="214" y="289"/>
      <point x="216" y="298" type="curve"/>
      <point x="225.38655" y="317.39887"/>
      <point x="249.6534475302" y="360.293025574"/>
      <point x="289.78086891417615" y="389.680810507001" type="curve" smooth="yes"/>
      <point x="313.77831990180005" y="407.25562354609997"/>
      <point x="343.44815000000006" y="419.99999999999994"/>
      <point x="379" y="420" type="curve" smooth="yes"/>
      <point x="424" y="420"/>
      <point x="433" y="383"/>
      <point x="433" y="350" type="curve" smooth="yes"/>
      <point x="433" y="288"/>
      <point x="384" y="160"/>
      <point x="368" y="117" type="curve" smooth="yes"/>
      <point x="359" y="94"/>
      <point x="358" y="82"/>
      <point x="358" y="71" type="curve" smooth="yes"/>
      <point x="358" y="24"/>
      <point x="393" y="-11"/>
      <point x="440" y="-11" type="curve" smooth="yes"/>
      <point x="534" y="-11"/>
      <point x="571" y="135"/>
      <point x="571" y="143" type="curve" smooth="yes"/>
      <point x="571" y="153"/>
      <point x="562" y="153"/>
      <point x="559" y="153" type="curve" smooth="yes"/>
      <point x="549" y="153"/>
      <point x="549" y="150"/>
      <point x="544" y="135" type="curve" smooth="yes"/>
      <point x="524" y="67"/>
      <point x="491" y="11"/>
      <point x="442" y="11" type="curve" smooth="yes"/>
      <point x="425" y="11"/>
      <point x="418" y="21"/>
      <point x="418" y="44" type="curve" smooth="yes"/>
      <point x="418" y="69"/>
      <point x="427" y="93"/>
      <point x="436" y="115" type="curve" smooth="yes"/>
      <point x="455" y="168"/>
      <point x="497" y="278"/>
      <point x="497" y="335" type="curve" smooth="yes"/>
      <point x="497" y="402"/>
      <point x="454" y="442"/>
      <point x="382" y="442" type="curve" smooth="yes"/>
      <point x="292" y="442"/>
      <point x="243" y="378"/>
      <point x="226" y="355" type="curve"/>
      <point x="221" y="411"/>
      <point x="180" y="442"/>
      <point x="134" y="442" type="curve" smooth="yes"/>
      <point x="88" y="442"/>
      <point x="67" y="403"/>
      <point x="59" y="385" type="curve" smooth="yes"/>
      <point x="44" y="351"/>
      <point x="29" y="292"/>
      <point x="29" y="288" type="curve" smooth="yes"/>
      <point x="29" y="278"/>
      <point x="39" y="278"/>
      <point x="41" y="278" type="curve" smooth="yes"/>
      <point x="51" y="278"/>
      <point x="52" y="279"/>
      <point x="58" y="301" type="curve" smooth="yes"/>
      <point x="75" y="372"/>
      <point x="95" y="420"/>
      <point x="131" y="420" type="curve" smooth="yes"/>
      <point x="151" y="420"/>
      <point x="162" y="407"/>
      <point x="162" y="374" type="curve" smooth="yes"/>
      <point x="162" y="353"/>
      <point x="159" y="342"/>
      <point x="146" y="290" type="curve" smooth="yes"/>
      <point x="88" y="59" type="line" smooth="yes"/>
      <point x="85" y="44"/>
      <point x="79" y="21"/>
      <point x="79" y="16" type="curve" smooth="yes"/>
      <point x="79" y="-2"/>
      <point x="93" y="-11"/>
    </contour>
  </outline>
</glyph>
<glyph name="o" format="2">
  <advance width="484"/>
  <unicode hex="006F"/>
  <outline>
    <contour>
      <point x="469" y="273" type="curve" smooth="yes"/>
      <point x="469" y="377"/>
      <point x="399" y="442"/>
      <point x="309" y="442" type="curve" smooth="yes"/>
      <point x="175" y="442"/>
      <point x="41" y="300"/>
      <point x="41" y="158" type="curve" smooth="yes"/>
      <point x="41" y="59"/>
      <point x="108" y="-11"/>
      <point x="201" y="-11" type="curve" smooth="yes"/>
      <point x="334" y="-11"/>
      <point x="469" y="127"/>
    </contour>
    <contour>
      <point x="202" y="11" type="curve" smooth="yes"/>
      <point x="159" y="11"/>
      <point x="115" y="42"/>
      <point x="115" y="120" type="curve" smooth="yes"/>
      <point x="115" y="169"/>
      <point x="141" y="277"/>
      <point x="173" y="328" type="curve" smooth="yes"/>
      <point x="223" y="405"/>
      <point x="280" y="420"/>
      <point x="308" y="420" type="curve" smooth="yes"/>
      <point x="366" y="420"/>
      <point x="396" y="372"/>
      <point x="396" y="312" type="curve" smooth="yes"/>
      <point x="396" y="273"/>
      <point x="376" y="168"/>
      <point x="338" y="103" type="curve" smooth="yes"/>
      <point x="303" y="45"/>
      <point x="248" y="11"/>
    </contour>
  </outline>
</glyph>
<glyph name="p" format="2">
  <advance width="503"/>
  <unicode hex="0070"/>
  <outline>
    <contour>
      <point x="45" y="-122" type="line" smooth="yes"/>
      <point x="37" y="-156"/>
      <point x="35" y="-163"/>
      <point x="-9" y="-163" type="curve" smooth="yes"/>
      <point x="-21" y="-163"/>
      <point x="-32" y="-163"/>
      <point x="-32" y="-182" type="curve" smooth="yes"/>
      <point x="-32" y="-190"/>
      <point x="-27" y="-194"/>
      <point x="-19" y="-194" type="curve" smooth="yes"/>
      <point x="8" y="-194"/>
      <point x="37" y="-191"/>
      <point x="65" y="-191" type="curve" smooth="yes"/>
      <point x="98" y="-191"/>
      <point x="132" y="-194"/>
      <point x="164" y="-194" type="curve" smooth="yes"/>
      <point x="169" y="-194"/>
      <point x="182" y="-194"/>
      <point x="182" y="-174" type="curve" smooth="yes"/>
      <point x="182" y="-163"/>
      <point x="172" y="-163"/>
      <point x="158" y="-163" type="curve" smooth="yes"/>
      <point x="108" y="-163"/>
      <point x="108" y="-156"/>
      <point x="108" y="-147" type="curve" smooth="yes"/>
      <point x="108" y="-144"/>
      <point x="110" y="-133"/>
      <point x="114" y="-117" type="curve" smooth="yes"/>
      <point x="128.319" y="-60.38999999999999"/>
      <point x="142.638" y="-3.779999999999987"/>
      <point x="157" y="53" type="curve"/>
      <point x="170" y="24"/>
      <point x="198" y="-11"/>
      <point x="249" y="-11" type="curve" smooth="yes"/>
      <point x="365" y="-11"/>
      <point x="490" y="135"/>
      <point x="490" y="282" type="curve" smooth="yes"/>
      <point x="490" y="376"/>
      <point x="433" y="442"/>
      <point x="357" y="442" type="curve" smooth="yes"/>
      <point x="307" y="442"/>
      <point x="259" y="406"/>
      <point x="226" y="367" type="curve"/>
      <point x="216" y="421"/>
      <point x="173" y="442"/>
      <point x="136" y="442" type="curve" smooth="yes"/>
      <point x="90" y="442"/>
      <point x="71" y="403"/>
      <point x="62" y="385" type="curve" smooth="yes"/>
      <point x="44" y="351"/>
      <point x="31" y="291"/>
      <point x="31" y="288" type="curve" smooth="yes"/>
      <point x="31" y="278"/>
      <point x="41" y="278"/>
      <point x="43" y="278" type="curve" smooth="yes"/>
      <point x="53" y="278"/>
      <point x="54" y="279"/>
      <point x="60" y="301" type="curve" smooth="yes"/>
      <point x="77" y="372"/>
      <point x="97" y="420"/>
      <point x="133" y="420" type="curve" smooth="yes"/>
      <point x="150" y="420"/>
      <point x="164" y="412"/>
      <point x="164" y="374" type="curve" smooth="yes"/>
      <point x="164" y="351"/>
      <point x="161" y="340"/>
      <point x="157" y="323" type="curve" smooth="yes"/>
    </contour>
    <contour>
      <point x="354" y="420" type="curve" smooth="yes"/>
      <point x="394" y="420"/>
      <point x="418" y="385"/>
      <point x="418" y="326" type="curve" smooth="yes"/>
      <point x="418" y="267"/>
      <point x="385" y="152"/>
      <point x="367" y="114" type="curve" smooth="yes"/>
      <point x="333" y="44"/>
      <point x="285" y="11"/>
      <point x="248" y="11" type="curve" smooth="yes"/>
      <point x="182" y="11"/>
      <point x="169" y="94"/>
      <point x="169" y="100" type="curve" smooth="yes"/>
      <point x="169" y="102"/>
      <point x="169" y="104"/>
      <point x="172" y="116" type="curve" smooth="yes"/>
      <point x="221" y="312" type="line" smooth="yes"/>
      <point x="228" y="339"/>
      <point x="255" y="367"/>
      <point x="273" y="382" type="curve" smooth="yes"/>
      <point x="308" y="413"/>
      <point x="337" y="420"/>
    </contour>
  </outline>
</glyph>
<glyph name="r" format="2">
  <advance width="451"/>
  <unicode hex="0072"/>
  <outline>
    <contour>
      <point x="108" y="-11" type="curve" smooth="yes"/>
      <point x="120" y="-11"/>
      <point x="138" y="-3"/>
      <point x="145" y="17" type="curve"/>
      <point x="147" y="21"/>
      <point x="181" y="157"/>
      <point x="185" y="175" type="curve" smooth="yes"/>
      <point x="193" y="208"/>
      <point x="211" y="278"/>
      <point x="217" y="305" type="curve"/>
      <point x="221" y="318"/>
      <point x="249" y="365"/>
      <point x="273" y="387" type="curve" smooth="yes"/>
      <point x="281" y="394"/>
      <point x="310" y="420"/>
      <point x="353" y="420" type="curve" smooth="yes"/>
      <point x="379" y="420"/>
      <point x="394" y="408"/>
      <point x="395" y="408" type="curve"/>
      <point x="365" y="403"/>
      <point x="343" y="379"/>
      <point x="343" y="353" type="curve" smooth="yes"/>
      <point x="343" y="337"/>
      <point x="354" y="318"/>
      <point x="381" y="318" type="curve" smooth="yes"/>
      <point x="408" y="318"/>
      <point x="436" y="341"/>
      <point x="436" y="377" type="curve" smooth="yes"/>
      <point x="436" y="412"/>
      <point x="404" y="442"/>
      <point x="353" y="442" type="curve" smooth="yes"/>
      <point x="288" y="442"/>
      <point x="244" y="393"/>
      <point x="225" y="365" type="curve"/>
      <point x="217" y="410"/>
      <point x="181" y="442"/>
      <point x="134" y="442" type="curve" smooth="yes"/>
      <point x="88" y="442"/>
      <point x="69" y="403"/>
      <point x="60" y="385" type="curve" smooth="yes"/>
      <point x="42" y="351"/>
      <point x="29" y="291"/>
      <point x="29" y="288" type="curve" smooth="yes"/>
      <point x="29" y="278"/>
      <point x="39" y="278"/>
      <point x="41" y="278" type="curve" smooth="yes"/>
      <point x="51" y="278"/>
      <point x="52" y="279"/>
      <point x="58" y="301" type="curve" smooth="yes"/>
      <point x="75" y="372"/>
      <point x="95" y="420"/>
      <point x="131" y="420" type="curve" smooth="yes"/>
      <point x="148" y="420"/>
      <point x="162" y="412"/>
      <point x="162" y="374" type="curve" smooth="yes"/>
      <point x="162" y="353"/>
      <point x="159" y="342"/>
      <point x="146" y="290" type="curve" smooth="yes"/>
      <point x="88" y="59" type="line" smooth="yes"/>
      <point x="85" y="44"/>
      <point x="79" y="21"/>
      <point x="79" y="16" type="curve" smooth="yes"/>
      <point x="79" y="-2"/>
      <point x="93" y="-11"/>
    </contour>
  </outline>
</glyph>
<glyph name="t" format="2">
  <advance width="361"/>
  <unicode hex="0074"/>
  <outline>
    <contour>
      <point x="206" y="400" type="line"/>
      <point x="300" y="400" type="line" smooth="yes"/>
      <point x="320" y="400"/>
      <point x="330" y="400"/>
      <point x="330" y="420" type="curve" smooth="yes"/>
      <point x="330" y="431"/>
      <point x="320" y="431"/>
      <point x="302" y="431" type="curve" smooth="yes"/>
      <point x="214" y="431" type="line"/>
      <point x="226.29256" y="479.48732"/>
      <point x="234.9706771204" y="513.7500583448"/>
      <point x="241.06947650014754" y="538.0879656115667" type="curve" smooth="yes"/>
      <point x="252.831625342" y="585.0260709576"/>
      <point x="255.0" y="595.04876"/>
      <point x="255" y="599" type="curve" smooth="yes"/>
      <point x="255" y="616"/>
      <point x="243" y="626"/>
      <point x="226" y="626" type="curve" smooth="yes"/>
      <point x="223" y="626"/>
      <point x="195" y="625"/>
      <point x="186" y="590" type="curve" smooth="yes"/>
      <point x="147" y="431" type="line"/>
      <point x="53" y="431" type="line" smooth="yes"/>
      <point x="33" y="431"/>
      <point x="23" y="431"/>
      <point x="23" y="412" type="curve" smooth="yes"/>
      <point x="23" y="400"/>
      <point x="31" y="400"/>
      <point x="51" y="400" type="curve" smooth="yes"/>
      <point x="139" y="400" type="line"/>
      <point x="103.94752" y="261.73744"/>
      <point x="85.0119366208" y="186.75740055519998"/>
      <point x="74.80844990863974" y="144.13603185922892" type="curve" smooth="yes"/>
      <point x="64.0533327424" y="99.21042681440005"/>
      <point x="63.0" y="90.23688000000006"/>
      <point x="63" y="81" type="curve" smooth="yes"/>
      <point x="63" y="27"/>
      <point x="101" y="-11"/>
      <point x="155" y="-11" type="curve" smooth="yes"/>
      <point x="257" y="-11"/>
      <point x="314" y="135"/>
      <point x="314" y="143" type="curve" smooth="yes"/>
      <point x="314" y="153"/>
      <point x="306" y="153"/>
      <point x="302" y="153" type="curve" smooth="yes"/>
      <point x="293" y="153"/>
      <point x="292" y="150"/>
      <point x="287" y="139" type="curve" smooth="yes"/>
      <point x="244" y="35"/>
      <point x="191" y="11"/>
      <point x="157" y="11" type="curve" smooth="yes"/>
      <point x="136" y="11"/>
      <point x="126" y="24"/>
      <point x="126" y="57" type="curve" smooth="yes"/>
      <point x="126" y="81"/>
      <point x="128" y="88"/>
      <point x="132" y="105" type="curve" smooth="yes"/>
    </contour>
  </outline>
</glyph>
<glyph name="u" format="2">
  <advance width="572"/>
  <unicode hex="0075"/>
  <outline>
    <contour>
      <point x="350" y="56" type="curve"/>
      <point x="361" y="15"/>
      <point x="396" y="-11"/>
      <point x="439" y="-11" type="curve" smooth="yes"/>
      <point x="474" y="-11"/>
      <point x="497" y="12"/>
      <point x="513" y="44" type="curve" smooth="yes"/>
      <point x="530" y="80"/>
      <point x="543" y="141"/>
      <point x="543" y="143" type="curve" smooth="yes"/>
      <point x="543" y="153"/>
      <point x="534" y="153"/>
      <point x="531" y="153" type="curve" smooth="yes"/>
      <point x="521" y="153"/>
      <point x="520" y="149"/>
      <point x="517" y="135" type="curve" smooth="yes"/>
      <point x="503" y="79"/>
      <point x="484" y="11"/>
      <point x="442" y="11" type="curve" smooth="yes"/>
      <point x="421" y="11"/>
      <point x="411" y="24"/>
      <point x="411" y="57" type="curve" smooth="yes"/>
      <point x="411" y="79"/>
      <point x="423" y="126"/>
      <point x="431" y="161" type="curve" smooth="yes"/>
      <point x="459" y="269" type="line"/>
      <point x="462" y="284"/>
      <point x="472" y="322"/>
      <point x="476" y="337" type="curve" smooth="yes"/>
      <point x="481" y="360"/>
      <point x="491" y="398"/>
      <point x="491" y="404" type="curve" smooth="yes"/>
      <point x="491" y="422"/>
      <point x="477" y="431"/>
      <point x="462" y="431" type="curve" smooth="yes"/>
      <point x="457" y="431"/>
      <point x="431" y="430"/>
      <point x="423" y="396" type="curve" smooth="yes"/>
      <point x="404" y="323"/>
      <point x="360" y="148"/>
      <point x="348" y="95" type="curve" smooth="yes"/>
      <point x="347" y="91"/>
      <point x="307" y="11"/>
      <point x="234" y="11" type="curve" smooth="yes"/>
      <point x="182" y="11"/>
      <point x="172" y="56"/>
      <point x="172" y="93" type="curve" smooth="yes"/>
      <point x="172" y="149"/>
      <point x="200" y="228"/>
      <point x="226" y="297" type="curve" smooth="yes"/>
      <point x="238" y="327"/>
      <point x="243" y="341"/>
      <point x="243" y="360" type="curve" smooth="yes"/>
      <point x="243" y="405"/>
      <point x="211" y="442"/>
      <point x="161" y="442" type="curve" smooth="yes"/>
      <point x="66" y="442"/>
      <point x="29" y="297"/>
      <point x="29" y="288" type="curve" smooth="yes"/>
      <point x="29" y="278"/>
      <point x="39" y="278"/>
      <point x="41" y="278" type="curve" smooth="yes"/>
      <point x="51" y="278"/>
      <point x="52" y="280"/>
      <point x="57" y="296" type="curve" smooth="yes"/>
      <point x="82" y="383"/>
      <point x="120" y="420"/>
      <point x="158" y="420" type="curve" smooth="yes"/>
      <point x="167" y="420"/>
      <point x="183" y="419"/>
      <point x="183" y="387" type="curve" smooth="yes"/>
      <point x="183" y="363"/>
      <point x="172" y="334"/>
      <point x="166" y="319" type="curve" smooth="yes"/>
      <point x="129" y="220"/>
      <point x="108" y="158"/>
      <point x="108" y="109" type="curve" smooth="yes"/>
      <point x="108" y="14"/>
      <point x="177" y="-11"/>
      <point x="231" y="-11" type="curve" smooth="yes"/>
      <point x="297" y="-11"/>
      <point x="333" y="34"/>
    </contour>
  </outline>
</glyph>
<glyph name="x" format="2">
  <advance width="571"/>
  <unicode hex="0078"/>
  <outline>
    <contour>
      <point x="334" y="302" type="line" smooth="yes"/>
      <point x="340" y="328"/>
      <point x="363" y="420"/>
      <point x="433" y="420" type="curve" smooth="yes"/>
      <point x="438" y="420"/>
      <point x="462" y="420"/>
      <point x="483" y="407" type="curve"/>
      <point x="455" y="402"/>
      <point x="435" y="377"/>
      <point x="435" y="353" type="curve" smooth="yes"/>
      <point x="435" y="337"/>
      <point x="446" y="318"/>
      <point x="473" y="318" type="curve" smooth="yes"/>
      <point x="495" y="318"/>
      <point x="527" y="336"/>
      <point x="527" y="376" type="curve" smooth="yes"/>
      <point x="527" y="428"/>
      <point x="468" y="442"/>
      <point x="434" y="442" type="curve" smooth="yes"/>
      <point x="376" y="442"/>
      <point x="341" y="389"/>
      <point x="329" y="366" type="curve"/>
      <point x="304" y="432"/>
      <point x="250" y="442"/>
      <point x="221" y="442" type="curve" smooth="yes"/>
      <point x="117" y="442"/>
      <point x="60" y="313"/>
      <point x="60" y="288" type="curve" smooth="yes"/>
      <point x="60" y="278"/>
      <point x="70" y="278"/>
      <point x="72" y="278" type="curve" smooth="yes"/>
      <point x="80" y="278"/>
      <point x="83" y="280"/>
      <point x="85" y="289" type="curve"/>
      <point x="119" y="395"/>
      <point x="185" y="420"/>
      <point x="219" y="420" type="curve" smooth="yes"/>
      <point x="238" y="420"/>
      <point x="273" y="411"/>
      <point x="273" y="353" type="curve" smooth="yes"/>
      <point x="273" y="322"/>
      <point x="256" y="255"/>
      <point x="219" y="115" type="curve" smooth="yes"/>
      <point x="203" y="53"/>
      <point x="168" y="11"/>
      <point x="124" y="11" type="curve" smooth="yes"/>
      <point x="118" y="11"/>
      <point x="95" y="11"/>
      <point x="74" y="24" type="curve"/>
      <point x="99" y="29"/>
      <point x="121" y="50"/>
      <point x="121" y="78" type="curve" smooth="yes"/>
      <point x="121" y="105"/>
      <point x="99" y="113"/>
      <point x="84" y="113" type="curve" smooth="yes"/>
      <point x="54" y="113"/>
      <point x="29" y="87"/>
      <point x="29" y="55" type="curve" smooth="yes"/>
      <point x="29" y="9"/>
      <point x="79" y="-11"/>
      <point x="123" y="-11" type="curve" smooth="yes"/>
      <point x="189" y="-11"/>
      <point x="225" y="59"/>
      <point x="228" y="65" type="curve"/>
      <point x="240" y="28"/>
      <point x="276" y="-11"/>
      <point x="336" y="-11" type="curve" smooth="yes"/>
      <point x="439" y="-11"/>
      <point x="496" y="118"/>
      <point x="496" y="143" type="curve" smooth="yes"/>
      <point x="496" y="153"/>
      <point x="487" y="153"/>
      <point x="484" y="153" type="curve" smooth="yes"/>
      <point x="475" y="153"/>
      <point x="473" y="149"/>
      <point x="471" y="142" type="curve" smooth="yes"/>
      <point x="438" y="35"/>
      <point x="370" y="11"/>
      <point x="338" y="11" type="curve" smooth="yes"/>
      <point x="299" y="11"/>
      <point x="283" y="43"/>
      <point x="283" y="77" type="curve" smooth="yes"/>
      <point x="283" y="99"/>
      <point x="289" y="121"/>
      <point x="300" y="165" type="curve" smooth="yes"/>
    </contour>
  </outline>
</glyph>
<glyph name="y" format="2">
  <advance width="490"/>
  <unicode hex="0079"/>
  <outline>
    <contour>
      <point x="331" y="34" type="line"/>
      <point x="318" y="-18"/>
      <point x="306" y="-67"/>
      <point x="266" y="-120" type="curve" smooth="yes"/>
      <point x="240" y="-154"/>
      <point x="202" y="-183"/>
      <point x="156" y="-183" type="curve" smooth="yes"/>
      <point x="142" y="-183"/>
      <point x="97" y="-180"/>
      <point x="80" y="-141" type="curve"/>
      <point x="112" y="-144"/>
      <point x="143" y="-123"/>
      <point x="143" y="-88" type="curve" smooth="yes"/>
      <point x="143" y="-57"/>
      <point x="116" y="-53"/>
      <point x="106" y="-53" type="curve" smooth="yes"/>
      <point x="83" y="-53"/>
      <point x="50" y="-69"/>
      <point x="50" y="-118" type="curve" smooth="yes"/>
      <point x="50" y="-168"/>
      <point x="94" y="-205"/>
      <point x="156" y="-205" type="curve" smooth="yes"/>
      <point x="259" y="-205"/>
      <point x="362" y="-114"/>
      <point x="390" y="-1" type="curve" smooth="yes"/>
      <point x="486" y="381" type="line" smooth="yes"/>
      <point x="490" y="395"/>
      <point x="490" y="397"/>
      <point x="490" y="404" type="curve" smooth="yes"/>
      <point x="490" y="422"/>
      <point x="476" y="431"/>
      <point x="461" y="431" type="curve" smooth="yes"/>
      <point x="451" y="431"/>
      <point x="435" y="425"/>
      <point x="426" y="410" type="curve"/>
      <point x="424" y="405"/>
      <point x="416" y="374"/>
      <point x="412" y="356" type="curve" smooth="yes"/>
      <point x="405" y="330"/>
      <point x="398" y="303"/>
      <point x="392" y="276" type="curve" smooth="yes"/>
      <point x="377.015" y="216.06"/>
      <point x="362.03" y="156.12"/>
      <point x="347" y="96" type="curve" smooth="yes"/>
      <point x="343" y="81"/>
      <point x="300" y="11"/>
      <point x="234" y="11" type="curve" smooth="yes"/>
      <point x="183" y="11"/>
      <point x="172" y="55"/>
      <point x="172" y="92" type="curve" smooth="yes"/>
      <point x="172" y="138"/>
      <point x="189" y="200"/>
      <point x="223" y="288" type="curve" smooth="yes"/>
      <point x="239" y="329"/>
      <point x="243" y="340"/>
      <point x="243" y="360" type="curve" smooth="yes"/>
      <point x="243" y="405"/>
      <point x="211" y="442"/>
      <point x="161" y="442" type="curve" smooth="yes"/>
      <point x="66" y="442"/>
      <point x="29" y="297"/>
      <point x="29" y="288" type="curve" smooth="yes"/>
      <point x="29" y="278"/>
      <point x="39" y="278"/>
      <point x="41" y="278" type="curve" smooth="yes"/>
      <point x="51" y="278"/>
      <point x="52" y="280"/>
      <point x="57" y="296" type="curve" smooth="yes"/>
      <point x="84" y="390"/>
      <point x="124" y="420"/>
      <point x="158" y="420" type="curve" smooth="yes"/>
      <point x="166" y="420"/>
      <point x="183" y="420"/>
      <point x="183" y="388" type="curve" smooth="yes"/>
      <point x="183" y="363"/>
      <point x="173" y="337"/>
      <point x="166" y="318" type="curve" smooth="yes"/>
      <point x="126" y="212"/>
      <point x="108" y="155"/>
      <point x="108" y="108" type="curve" smooth="yes"/>
      <point x="108" y="19"/>
      <point x="171" y="-11"/>
      <point x="230" y="-11" type="curve" smooth="yes"/>
      <point x="269" y="-11"/>
      <point x="303" y="6"/>
      <point x="331" y="34" type="curve"/>
    </contour>
  </outline>
</glyph>
<glyph name="z" format="2">
  <advance width="465"/>
  <unicode hex="007A"/>
  <outline>
    <contour>
      <point x="246" y="442" type="curve" smooth="yes"/>
      <point x="171" y="442"/>
      <point x="125" y="349"/>
      <point x="125" y="328" type="curve" smooth="yes"/>
      <point x="125" y="323"/>
      <point x="128" y="317"/>
      <point x="137" y="317" type="curve" smooth="yes"/>
      <point x="146" y="317"/>
      <point x="148" y="322"/>
      <point x="150" y="328" type="curve"/>
      <point x="169" y="374"/>
      <point x="227" y="375"/>
      <point x="235" y="375" type="curve" smooth="yes"/>
      <point x="256" y="375"/>
      <point x="275" y="368"/>
      <point x="298" y="360" type="curve" smooth="yes"/>
      <point x="338" y="345"/>
      <point x="349" y="345"/>
      <point x="375" y="345" type="curve"/>
      <point x="375" y="345" type="line"/>
      <point x="339" y="302"/>
      <point x="255" y="230"/>
      <point x="236" y="214" type="curve"/>
      <point x="146" y="130" type="line" smooth="yes"/>
      <point x="78" y="63"/>
      <point x="43" y="6"/>
      <point x="43" y="-1" type="curve" smooth="yes"/>
      <point x="43" y="-11"/>
      <point x="53" y="-11"/>
      <point x="55" y="-11" type="curve" smooth="yes"/>
      <point x="63" y="-11"/>
      <point x="65" y="-9"/>
      <point x="71" y="2" type="curve"/>
      <point x="94" y="37"/>
      <point x="124" y="64"/>
      <point x="156" y="64" type="curve" smooth="yes"/>
      <point x="179" y="64"/>
      <point x="189" y="55"/>
      <point x="214" y="26" type="curve" smooth="yes"/>
      <point x="231" y="5"/>
      <point x="249" y="-11"/>
      <point x="278" y="-11" type="curve" smooth="yes"/>
      <point x="377" y="-11"/>
      <point x="435" y="116"/>
      <point x="435" y="143" type="curve" smooth="yes"/>
      <point x="435" y="148"/>
      <point x="431" y="153"/>
      <point x="423" y="153" type="curve" smooth="yes"/>
      <point x="414" y="153"/>
      <point x="412" y="147"/>
      <point x="409" y="140" type="curve"/>
      <point x="386" y="75"/>
      <point x="322" y="56"/>
      <point x="289" y="56" type="curve" smooth="yes"/>
      <point x="269" y="56"/>
      <point x="251" y="62"/>
      <point x="230" y="69" type="curve" smooth="yes"/>
      <point x="196" y="82"/>
      <point x="181" y="86"/>
      <point x="160" y="86" type="curve" smooth="yes"/>
      <point x="158" y="86"/>
      <point x="142" y="86"/>
      <point x="133" y="83" type="curve"/>
      <point x="187" y="141"/>
      <point x="216" y="166"/>
      <point x="252" y="197" type="curve"/>
      <point x="252" y="198"/>
      <point x="314" y="251"/>
      <point x="350" y="287" type="curve" smooth="yes"/>
      <point x="445" y="380"/>
      <point x="467" y="428"/>
      <point x="467" y="432" type="curve" smooth="yes"/>
      <point x="467" y="442"/>
      <point x="458" y="442"/>
      <point x="456" y="442" type="curve" smooth="yes"/>
      <point x="449" y="442"/>
      <point x="446" y="440"/>
      <point x="441" y="431" type="curve"/>
      <point x="411" y="383"/>
      <point x="390" y="367"/>
      <point x="366" y="367" type="curve" smooth="yes"/>
      <point x="342" y="367"/>
      <point x="330" y="382"/>
      <point x="315" y="399" type="curve" smooth="yes"/>
      <point x="296" y="422"/>
      <point x="279" y="442"/>
    </contour>
  </outline>
</glyph>
<glyph name="mu" format="2">
  <advance width="602"/>
  <unicode hex="00B5"/>
  <outline>
    <contour>
      <point x="231" y="351" type="line" smooth="yes"/>
      <point x="236" y="372"/>
      <point x="246" y="410"/>
      <point x="246" y="415" type="curve" smooth="yes"/>
      <point x="246" y="432"/>
      <point x="234" y="442"/>
      <point x="217" y="442" type="curve" smooth="yes"/>
      <point x="214" y="442"/>
      <point x="186" y="441"/>
      <point x="177" y="406" type="curve" smooth="yes"/>
      <point x="33" y="-173" type="line" smooth="yes"/>
      <point x="30" y="-185"/>
      <point x="30" y="-187"/>
      <point x="30" y="-189" type="curve" smooth="yes"/>
      <point x="30" y="-204"/>
      <point x="41" y="-216"/>
      <point x="58" y="-216" type="curve" smooth="yes"/>
      <point x="79" y="-216"/>
      <point x="91" y="-198"/>
      <point x="93" y="-195" type="curve"/>
      <point x="97" y="-186"/>
      <point x="110" y="-134"/>
      <point x="148" y="20" type="curve"/>
      <point x="180" y="-7"/>
      <point x="225" y="-11"/>
      <point x="245" y="-11" type="curve" smooth="yes"/>
      <point x="315" y="-11"/>
      <point x="354" y="34"/>
      <point x="378" y="62" type="curve"/>
      <point x="387" y="17"/>
      <point x="424" y="-11"/>
      <point x="468" y="-11" type="curve" smooth="yes"/>
      <point x="503" y="-11"/>
      <point x="526" y="12"/>
      <point x="542" y="44" type="curve" smooth="yes"/>
      <point x="559" y="80"/>
      <point x="572" y="141"/>
      <point x="572" y="143" type="curve" smooth="yes"/>
      <point x="572" y="153"/>
      <point x="563" y="153"/>
      <point x="560" y="153" type="curve" smooth="yes"/>
      <point x="550" y="153"/>
      <point x="549" y="149"/>
      <point x="546" y="135" type="curve" smooth="yes"/>
      <point x="529" y="70"/>
      <point x="511" y="11"/>
      <point x="470" y="11" type="curve" smooth="yes"/>
      <point x="443" y="11"/>
      <point x="440" y="37"/>
      <point x="440" y="57" type="curve" smooth="yes"/>
      <point x="440" y="79"/>
      <point x="452" y="126"/>
      <point x="460" y="161" type="curve" smooth="yes"/>
      <point x="488" y="269" type="line"/>
      <point x="491" y="284"/>
      <point x="501" y="322"/>
      <point x="505" y="337" type="curve" smooth="yes"/>
      <point x="510" y="360"/>
      <point x="520" y="398"/>
      <point x="520" y="404" type="curve" smooth="yes"/>
      <point x="520" y="422"/>
      <point x="506" y="431"/>
      <point x="491" y="431" type="curve" smooth="yes"/>
      <point x="486" y="431"/>
      <point x="460" y="430"/>
      <point x="452" y="396" type="curve" smooth="yes"/>
      <point x="405" y="209" type="line" smooth="yes"/>
      <point x="393" y="159"/>
      <point x="382" y="117"/>
      <point x="379" y="107" type="curve"/>
      <point x="378" y="102"/>
      <point x="330" y="11"/>
      <point x="249" y="11" type="curve" smooth="yes"/>
      <point x="199" y="11"/>
      <point x="175" y="44"/>
      <point x="175" y="98" type="curve" smooth="yes"/>
      <point x="175" y="127"/>
      <point x="182" y="155"/>
      <point x="189" y="183" type="curve" smooth="yes"/>
    </contour>
  </outline>
</glyph>
<glyph name="Gamma" format="2">
  <advance width="615"/>
  <unicode hex="0393"/>
  <outline>
    <contour>
      <point x="375" y="610" type="line" smooth="yes"/>
      <point x="384" y="645"/>
      <point x="385" y="649"/>
      <point x="429" y="649" type="curve" smooth="yes"/>
      <point x="544" y="649" type="line" smooth="yes"/>
      <point x="665" y="649"/>
      <point x="679" y="611"/>
      <point x="679" y="542" type="curve" smooth="yes"/>
      <point x="679" y="540"/>
      <point x="679" y="512"/>
      <point x="676" y="485" type="curve" smooth="yes"/>
      <point x="674" y="472"/>
      <point x="674" y="470"/>
      <point x="674" y="467" type="curve" smooth="yes"/>
      <point x="674" y="462"/>
      <point x="677" y="455"/>
      <point x="686" y="455" type="curve" smooth="yes"/>
      <point x="697" y="455"/>
      <point x="698" y="461"/>
      <point x="700" y="480" type="curve" smooth="yes"/>
      <point x="720" y="653" type="line" smooth="yes"/>
      <point x="723" y="680"/>
      <point x="718" y="680"/>
      <point x="693" y="680" type="curve" smooth="yes"/>
      <point x="231" y="680" type="line" smooth="yes"/>
      <point x="211" y="680"/>
      <point x="201" y="680"/>
      <point x="201" y="660" type="curve" smooth="yes"/>
      <point x="201" y="649"/>
      <point x="211" y="649"/>
      <point x="227" y="649" type="curve" smooth="yes"/>
      <point x="267" y="649"/>
      <point x="294" y="649"/>
      <point x="294" y="631" type="curve" smooth="yes"/>
      <point x="294" y="623"/>
      <point x="294" y="621"/>
      <point x="290" y="607" type="curve" smooth="yes"/>
      <point x="157" y="78" type="line" smooth="yes"/>
      <point x="147" y="39"/>
      <point x="145" y="31"/>
      <point x="66" y="31" type="curve" smooth="yes"/>
      <point x="49" y="31"/>
      <point x="39" y="31"/>
      <point x="39" y="11" type="curve" smooth="yes"/>
      <point x="39" y="0"/>
      <point x="51" y="0"/>
      <point x="53" y="0" type="curve" smooth="yes"/>
      <point x="82" y="0"/>
      <point x="156" y="3"/>
      <point x="185" y="3" type="curve" smooth="yes"/>
      <point x="218" y="3"/>
      <point x="301" y="0"/>
      <point x="334" y="0" type="curve" smooth="yes"/>
      <point x="342" y="0"/>
      <point x="355" y="0"/>
      <point x="355" y="19" type="curve" smooth="yes"/>
      <point x="355" y="27"/>
      <point x="349" y="29"/>
      <point x="349" y="30" type="curve"/>
      <point x="346" y="31"/>
      <point x="344" y="31"/>
      <point x="321" y="31" type="curve" smooth="yes"/>
      <point x="299" y="31"/>
      <point x="294" y="31"/>
      <point x="269" y="33" type="curve" smooth="yes"/>
      <point x="240" y="36"/>
      <point x="237" y="40"/>
      <point x="237" y="53" type="curve" smooth="yes"/>
      <point x="237" y="55"/>
      <point x="237" y="61"/>
      <point x="241" y="76" type="curve" smooth="yes"/>
    </contour>
  </outline>
</glyph>
<glyph name="Theta" format="2">
  <advance width="762"/>
  <unicode hex="0398"/>
  <outline>
    <contour>
      <point x="740" y="436" type="curve" smooth="yes"/>
      <point x="740" y="597"/>
      <point x="634" y="705"/>
      <point x="485" y="705" type="curve" smooth="yes"/>
      <point x="269" y="705"/>
      <point x="49" y="478"/>
      <point x="49" y="245" type="curve" smooth="yes"/>
      <point x="49" y="79"/>
      <point x="161" y="-22"/>
      <point x="305" y="-22" type="curve" smooth="yes"/>
      <point x="517" y="-22"/>
      <point x="740" y="197"/>
    </contour>
    <contour>
      <point x="310" y="1" type="curve" smooth="yes"/>
      <point x="207" y="1"/>
      <point x="134" y="82"/>
      <point x="134" y="213" type="curve" smooth="yes"/>
      <point x="134" y="247"/>
      <point x="144" y="419"/>
      <point x="258" y="560" type="curve" smooth="yes"/>
      <point x="309" y="623"/>
      <point x="394" y="683"/>
      <point x="480" y="683" type="curve" smooth="yes"/>
      <point x="585" y="683"/>
      <point x="655" y="598"/>
      <point x="655" y="469" type="curve" smooth="yes"/>
      <point x="655" y="429"/>
      <point x="643" y="270"/>
      <point x="545" y="138" type="curve" smooth="yes"/>
      <point x="488" y="61"/>
      <point x="398" y="1"/>
    </contour>
    <contour>
      <point x="547" y="306" type="line"/>
      <point x="546" y="303"/>
      <point x="542" y="287"/>
      <point x="542" y="284" type="curve" smooth="yes"/>
      <point x="542" y="276"/>
      <point x="548" y="272"/>
      <point x="554" y="272" type="curve" smooth="yes"/>
      <point x="564" y="272"/>
      <point x="566" y="278"/>
      <point x="569" y="291" type="curve" smooth="yes"/>
      <point x="572" y="304"/>
      <point x="596" y="395"/>
      <point x="596" y="400" type="curve" smooth="yes"/>
      <point x="596" y="408"/>
      <point x="590" y="412"/>
      <point x="584" y="412" type="curve" smooth="yes"/>
      <point x="574" y="412"/>
      <point x="572" y="406"/>
      <point x="571" y="399" type="curve"/>
      <point x="569" y="392"/>
      <point x="565" y="380"/>
      <point x="565" y="378" type="curve"/>
      <point x="243" y="378" type="line"/>
      <point x="244" y="381"/>
      <point x="248" y="397"/>
      <point x="248" y="400" type="curve" smooth="yes"/>
      <point x="248" y="408"/>
      <point x="242" y="412"/>
      <point x="236" y="412" type="curve" smooth="yes"/>
      <point x="226" y="412"/>
      <point x="224" y="406"/>
      <point x="221" y="393" type="curve" smooth="yes"/>
      <point x="218" y="380"/>
      <point x="194" y="289"/>
      <point x="194" y="284" type="curve" smooth="yes"/>
      <point x="194" y="276"/>
      <point x="200" y="272"/>
      <point x="206" y="272" type="curve" smooth="yes"/>
      <point x="216" y="272"/>
      <point x="218" y="278"/>
      <point x="219" y="285" type="curve"/>
      <point x="221" y="292"/>
      <point x="225" y="304"/>
      <point x="225" y="306" type="curve"/>
    </contour>
  </outline>
</glyph>
<glyph name="Lambda" format="2">
  <advance width="694"/>
  <unicode hex="039B"/>
  <outline>
    <contour>
      <point x="164" y="114" type="line" smooth="yes"/>
      <point x="140" y="73"/>
      <point x="116" y="36"/>
      <point x="55" y="31" type="curve" smooth="yes"/>
      <point x="44" y="30"/>
      <point x="35" y="29"/>
      <point x="35" y="12" type="curve" smooth="yes"/>
      <point x="35" y="4"/>
      <point x="41" y="0"/>
      <point x="47" y="0" type="curve" smooth="yes"/>
      <point x="72" y="0"/>
      <point x="99" y="3"/>
      <point x="125" y="3" type="curve" smooth="yes"/>
      <point x="158" y="3"/>
      <point x="192" y="0"/>
      <point x="224" y="0" type="curve" smooth="yes"/>
      <point x="229" y="0"/>
      <point x="242" y="0"/>
      <point x="242" y="20" type="curve" smooth="yes"/>
      <point x="242" y="30"/>
      <point x="231" y="31"/>
      <point x="228" y="31" type="curve" smooth="yes"/>
      <point x="207" y="32"/>
      <point x="178" y="39"/>
      <point x="178" y="67" type="curve" smooth="yes"/>
      <point x="178" y="80"/>
      <point x="182" y="87"/>
      <point x="192" y="104" type="curve" smooth="yes"/>
      <point x="463" y="579" type="line"/>
      <point x="500" y="79" type="line" smooth="yes"/>
      <point x="502" y="57"/>
      <point x="503" y="32"/>
      <point x="426" y="31" type="curve"/>
      <point x="414" y="31"/>
      <point x="403" y="31"/>
      <point x="403" y="12" type="curve" smooth="yes"/>
      <point x="403" y="0"/>
      <point x="414" y="0"/>
      <point x="418" y="0" type="curve" smooth="yes"/>
      <point x="458" y="0"/>
      <point x="500" y="3"/>
      <point x="541" y="3" type="curve" smooth="yes"/>
      <point x="565" y="3"/>
      <point x="623" y="0"/>
      <point x="647" y="0" type="curve" smooth="yes"/>
      <point x="653" y="0"/>
      <point x="666" y="0"/>
      <point x="666" y="19" type="curve" smooth="yes"/>
      <point x="666" y="31"/>
      <point x="657" y="31"/>
      <point x="641" y="31" type="curve" smooth="yes"/>
      <point x="592" y="31"/>
      <point x="591" y="38"/>
      <point x="589" y="68" type="curve" smooth="yes"/>
      <point x="544" y="690" type="line"/>
      <point x="544" y="693"/>
      <point x="543" y="696"/>
      <point x="543" y="699" type="curve"/>
      <point x="542" y="715"/>
      <point x="535" y="716"/>
      <point x="525" y="716" type="curve" smooth="yes"/>
      <point x="510" y="716"/>
      <point x="506" y="710"/>
      <point x="498" y="697" type="curve" smooth="yes"/>
    </contour>
  </outline>
</glyph>
<glyph name="Xi" format="2">
  <advance width="742"/>
  <unicode hex="039E"/>
  <outline>
    <contour>
      <point x="775" y="649" type="line"/>
      <point x="777" y="666" type="line"/>
      <point x="777" y="677"/>
      <point x="767" y="677"/>
      <point x="750" y="677" type="curve" smooth="yes"/>
      <point x="250" y="677" type="line" smooth="yes"/>
      <point x="225" y="677"/>
      <point x="224" y="676"/>
      <point x="218" y="657" type="curve" smooth="yes"/>
      <point x="185" y="551" type="line"/>
      <point x="184" y="547"/>
      <point x="181" y="540"/>
      <point x="181" y="536" type="curve" smooth="yes"/>
      <point x="181" y="531"/>
      <point x="185" y="525"/>
      <point x="194" y="525" type="curve" smooth="yes"/>
      <point x="203" y="525"/>
      <point x="205" y="531"/>
      <point x="209" y="543" type="curve" smooth="yes"/>
      <point x="211" y="550"/>
      <point x="224" y="593"/>
      <point x="235" y="604" type="curve"/>
      <point x="240" y="611"/>
      <point x="300" y="611"/>
      <point x="311" y="611" type="curve" smooth="yes"/>
      <point x="666" y="611" type="line" smooth="yes"/>
      <point x="687" y="611"/>
      <point x="712" y="611"/>
      <point x="729" y="608" type="curve" smooth="yes"/>
      <point x="735" y="607"/>
      <point x="736" y="606"/>
      <point x="736" y="594" type="curve" smooth="yes"/>
      <point x="736" y="577"/>
      <point x="733" y="565"/>
      <point x="730" y="550" type="curve" smooth="yes"/>
      <point x="728" y="540"/>
      <point x="728" y="538"/>
      <point x="728" y="537" type="curve" smooth="yes"/>
      <point x="728" y="530"/>
      <point x="733" y="525"/>
      <point x="741" y="525" type="curve" smooth="yes"/>
      <point x="751" y="525"/>
      <point x="752" y="530"/>
      <point x="755" y="547" type="curve" smooth="yes"/>
    </contour>
    <contour>
      <point x="168" y="66" type="line" smooth="yes"/>
      <point x="123" y="66"/>
      <point x="121" y="66"/>
      <point x="95" y="70" type="curve"/>
      <point x="95" y="88"/>
      <point x="95" y="100"/>
      <point x="102" y="138" type="curve" smooth="yes"/>
      <point x="104" y="147"/>
      <point x="105" y="149"/>
      <point x="105" y="151" type="curve" smooth="yes"/>
      <point x="105" y="158"/>
      <point x="100" y="163"/>
      <point x="92" y="163" type="curve" smooth="yes"/>
      <point x="82" y="163"/>
      <point x="81" y="157"/>
      <point x="78" y="141" type="curve" smooth="yes"/>
      <point x="74" y="123"/>
      <point x="53" y="22"/>
      <point x="53" y="12" type="curve" smooth="yes"/>
      <point x="53" y="0"/>
      <point x="61" y="0"/>
      <point x="81" y="0" type="curve" smooth="yes"/>
      <point x="591" y="0" type="line" smooth="yes"/>
      <point x="614" y="0"/>
      <point x="615" y="1"/>
      <point x="620" y="13" type="curve"/>
      <point x="625" y="28"/>
      <point x="662" y="147"/>
      <point x="662" y="152" type="curve" smooth="yes"/>
      <point x="662" y="157"/>
      <point x="658" y="163"/>
      <point x="649" y="163" type="curve" smooth="yes"/>
      <point x="643" y="163"/>
      <point x="639" y="158"/>
      <point x="638" y="157" type="curve"/>
      <point x="636" y="151"/>
      <point x="633" y="140"/>
      <point x="630" y="133" type="curve"/>
      <point x="627" y="122"/>
      <point x="613" y="77"/>
      <point x="603" y="72" type="curve"/>
      <point x="594" y="66"/>
      <point x="538" y="66"/>
      <point x="525" y="66" type="curve" smooth="yes"/>
    </contour>
    <contour>
      <point x="212" y="295" type="line" smooth="yes"/>
      <point x="211" y="291"/>
      <point x="209" y="285"/>
      <point x="209" y="280" type="curve" smooth="yes"/>
      <point x="209" y="273"/>
      <point x="213" y="268"/>
      <point x="221" y="268" type="curve" smooth="yes"/>
      <point x="231" y="268"/>
      <point x="232" y="272"/>
      <point x="236" y="289" type="curve"/>
      <point x="238" y="294"/>
      <point x="242" y="312"/>
      <point x="244" y="319" type="curve"/>
      <point x="581" y="319" type="line"/>
      <point x="578" y="306"/>
      <point x="572" y="283"/>
      <point x="572" y="280" type="curve" smooth="yes"/>
      <point x="572" y="273"/>
      <point x="576" y="268"/>
      <point x="584" y="268" type="curve" smooth="yes"/>
      <point x="594" y="268"/>
      <point x="595" y="271"/>
      <point x="599" y="288" type="curve" smooth="yes"/>
      <point x="630" y="409" type="line" smooth="yes"/>
      <point x="631" y="413"/>
      <point x="633" y="419"/>
      <point x="633" y="424" type="curve" smooth="yes"/>
      <point x="633" y="431"/>
      <point x="629" y="436"/>
      <point x="621" y="436" type="curve" smooth="yes"/>
      <point x="611" y="436"/>
      <point x="610" y="432"/>
      <point x="606" y="415" type="curve"/>
      <point x="604" y="410"/>
      <point x="600" y="392"/>
      <point x="598" y="385" type="curve"/>
      <point x="261" y="385" type="line"/>
      <point x="264" y="398"/>
      <point x="270" y="421"/>
      <point x="270" y="424" type="curve" smooth="yes"/>
      <point x="270" y="431"/>
      <point x="266" y="436"/>
      <point x="258" y="436" type="curve" smooth="yes"/>
      <point x="248" y="436"/>
      <point x="247" y="433"/>
      <point x="243" y="416" type="curve" smooth="yes"/>
    </contour>
  </outline>
</glyph>
<glyph name="Pi" format="2">
  <advance width="831"/>
  <unicode hex="03A0"/>
  <outline>
    <contour>
      <point x="762" y="602" type="line" smooth="yes"/>
      <point x="772" y="641"/>
      <point x="774" y="649"/>
      <point x="853" y="649" type="curve" smooth="yes"/>
      <point x="871" y="649"/>
      <point x="880" y="649"/>
      <point x="880" y="669" type="curve" smooth="yes"/>
      <point x="880" y="680"/>
      <point x="871" y="680"/>
      <point x="853" y="680" type="curve" smooth="yes"/>
      <point x="231" y="680" type="line" smooth="yes"/>
      <point x="211" y="680"/>
      <point x="201" y="680"/>
      <point x="201" y="660" type="curve" smooth="yes"/>
      <point x="201" y="649"/>
      <point x="210" y="649"/>
      <point x="229" y="649" type="curve" smooth="yes"/>
      <point x="266" y="649"/>
      <point x="294" y="649"/>
      <point x="294" y="631" type="curve" smooth="yes"/>
      <point x="294" y="625"/>
      <point x="292" y="620"/>
      <point x="291" y="614" type="curve"/>
      <point x="157" y="78" type="line" smooth="yes"/>
      <point x="147" y="39"/>
      <point x="145" y="31"/>
      <point x="66" y="31" type="curve" smooth="yes"/>
      <point x="48" y="31"/>
      <point x="39" y="31"/>
      <point x="39" y="11" type="curve" smooth="yes"/>
      <point x="39" y="0"/>
      <point x="51" y="0"/>
      <point x="53" y="0" type="curve" smooth="yes"/>
      <point x="81" y="0"/>
      <point x="152" y="3"/>
      <point x="180" y="3" type="curve" smooth="yes"/>
      <point x="201" y="3"/>
      <point x="223" y="2"/>
      <point x="244" y="2" type="curve" smooth="yes"/>
      <point x="266" y="2"/>
      <point x="288" y="0"/>
      <point x="309" y="0" type="curve" smooth="yes"/>
      <point x="317" y="0"/>
      <point x="329" y="0"/>
      <point x="329" y="20" type="curve" smooth="yes"/>
      <point x="329" y="31"/>
      <point x="320" y="31"/>
      <point x="301" y="31" type="curve" smooth="yes"/>
      <point x="264" y="31"/>
      <point x="236" y="31"/>
      <point x="236" y="49" type="curve" smooth="yes"/>
      <point x="236" y="55"/>
      <point x="238" y="60"/>
      <point x="239" y="66" type="curve"/>
      <point x="384" y="649" type="line"/>
      <point x="689" y="649" type="line"/>
      <point x="546" y="78" type="line" smooth="yes"/>
      <point x="536" y="39"/>
      <point x="534" y="31"/>
      <point x="455" y="31" type="curve" smooth="yes"/>
      <point x="437" y="31"/>
      <point x="428" y="31"/>
      <point x="428" y="11" type="curve" smooth="yes"/>
      <point x="428" y="0"/>
      <point x="440" y="0"/>
      <point x="442" y="0" type="curve" smooth="yes"/>
      <point x="470" y="0"/>
      <point x="541" y="3"/>
      <point x="569" y="3" type="curve" smooth="yes"/>
      <point x="590" y="3"/>
      <point x="612" y="2"/>
      <point x="633" y="2" type="curve" smooth="yes"/>
      <point x="655" y="2"/>
      <point x="677" y="0"/>
      <point x="698" y="0" type="curve" smooth="yes"/>
      <point x="706" y="0"/>
      <point x="718" y="0"/>
      <point x="718" y="20" type="curve" smooth="yes"/>
      <point x="718" y="31"/>
      <point x="709" y="31"/>
      <point x="690" y="31" type="curve" smooth="yes"/>
      <point x="653" y="31"/>
      <point x="625" y="31"/>
      <point x="625" y="49" type="curve" smooth="yes"/>
      <point x="625" y="55"/>
      <point x="627" y="60"/>
      <point x="628" y="66" type="curve"/>
    </contour>
  </outline>
</glyph>
<glyph name="Sigma" format="2">
  <advance width="779"/>
  <unicode hex="03A3"/>
  <outline>
    <contour>
      <point x="447" y="325" type="line" smooth="yes"/>
      <point x="457" y="334"/>
      <point x="459" y="337"/>
      <point x="459" y="342" type="curve" smooth="yes"/>
      <point x="459" y="344"/>
      <point x="458" y="347"/>
      <point x="454" y="356" type="curve" smooth="yes"/>
      <point x="324" y="652" type="line"/>
      <point x="567" y="652" type="line" smooth="yes"/>
      <point x="716" y="652"/>
      <point x="762" y="629"/>
      <point x="762" y="522" type="curve" smooth="yes"/>
      <point x="762" y="505"/>
      <point x="758" y="485"/>
      <point x="758" y="470" type="curve" smooth="yes"/>
      <point x="758" y="468"/>
      <point x="759" y="458"/>
      <point x="771" y="458" type="curve" smooth="yes"/>
      <point x="782" y="458"/>
      <point x="783" y="466"/>
      <point x="785" y="483" type="curve" smooth="yes"/>
      <point x="804" y="657" type="line"/>
      <point x="806" y="670" type="line"/>
      <point x="806" y="683"/>
      <point x="798" y="683"/>
      <point x="778" y="683" type="curve" smooth="yes"/>
      <point x="251" y="683" type="line" smooth="yes"/>
      <point x="231" y="683"/>
      <point x="221" y="683"/>
      <point x="221" y="663" type="curve" smooth="yes"/>
      <point x="221" y="661"/>
      <point x="221" y="659"/>
      <point x="227" y="647" type="curve" smooth="yes"/>
      <point x="378" y="304" type="line"/>
      <point x="70" y="26" type="line" smooth="yes"/>
      <point x="59" y="16"/>
      <point x="58" y="15"/>
      <point x="58" y="11" type="curve" smooth="yes"/>
      <point x="58" y="0"/>
      <point x="67" y="0"/>
      <point x="86" y="0" type="curve" smooth="yes"/>
      <point x="613" y="0" type="line" smooth="yes"/>
      <point x="637" y="0"/>
      <point x="638" y="1"/>
      <point x="644" y="17" type="curve" smooth="yes"/>
      <point x="716" y="208" type="line"/>
      <point x="717" y="210"/>
      <point x="721" y="223"/>
      <point x="721" y="224" type="curve" smooth="yes"/>
      <point x="721" y="229"/>
      <point x="718" y="235"/>
      <point x="709" y="235" type="curve" smooth="yes"/>
      <point x="701" y="235"/>
      <point x="699" y="229"/>
      <point x="695" y="221" type="curve"/>
      <point x="634" y="72"/>
      <point x="578" y="41"/>
      <point x="403" y="41" type="curve" smooth="yes"/>
      <point x="131" y="41" type="line"/>
    </contour>
  </outline>
</glyph>
<glyph name="Upsilon" format="2">
  <advance width="583"/>
  <unicode hex="03A5"/>
  <outline>
    <contour>
      <point x="339" y="457" type="curve"/>
      <point x="341" y="472"/>
      <point x="342" y="493"/>
      <point x="342" y="508" type="curve" smooth="yes"/>
      <point x="342" y="617"/>
      <point x="304" y="705"/>
      <point x="200" y="705" type="curve" smooth="yes"/>
      <point x="86" y="705"/>
      <point x="28" y="569"/>
      <point x="28" y="544" type="curve" smooth="yes"/>
      <point x="28" y="535"/>
      <point x="38" y="535"/>
      <point x="40" y="535" type="curve" smooth="yes"/>
      <point x="53" y="535"/>
      <point x="56" y="541"/>
      <point x="59" y="549" type="curve" smooth="yes"/>
      <point x="82" y="614"/>
      <point x="145" y="632"/>
      <point x="180" y="632" type="curve" smooth="yes"/>
      <point x="282" y="632"/>
      <point x="288" y="530"/>
      <point x="288" y="483" type="curve" smooth="yes"/>
      <point x="288" y="421"/>
      <point x="282" y="396"/>
      <point x="248" y="262" type="curve" smooth="yes"/>
      <point x="241" y="234"/>
      <point x="207" y="96"/>
      <point x="203" y="83" type="curve"/>
      <point x="198" y="62"/>
      <point x="194" y="45"/>
      <point x="177" y="38" type="curve" smooth="yes"/>
      <point x="158" y="31"/>
      <point x="107" y="31"/>
      <point x="85" y="31" type="curve" smooth="yes"/>
      <point x="68" y="31"/>
      <point x="58" y="31"/>
      <point x="58" y="11" type="curve" smooth="yes"/>
      <point x="58" y="0"/>
      <point x="70" y="0"/>
      <point x="74" y="0" type="curve" smooth="yes"/>
      <point x="99" y="0"/>
      <point x="125" y="2"/>
      <point x="150" y="2" type="curve" smooth="yes"/>
      <point x="175" y="2"/>
      <point x="200" y="3"/>
      <point x="225" y="3" type="curve" smooth="yes"/>
      <point x="251" y="3"/>
      <point x="277" y="2"/>
      <point x="302" y="2" type="curve" smooth="yes"/>
      <point x="328" y="2"/>
      <point x="354" y="0"/>
      <point x="379" y="0" type="curve" smooth="yes"/>
      <point x="388" y="0"/>
      <point x="400" y="0"/>
      <point x="400" y="19" type="curve" smooth="yes"/>
      <point x="400" y="27"/>
      <point x="394" y="29"/>
      <point x="394" y="30" type="curve"/>
      <point x="391" y="31"/>
      <point x="389" y="31"/>
      <point x="366" y="31" type="curve" smooth="yes"/>
      <point x="344" y="31"/>
      <point x="339" y="31"/>
      <point x="314" y="33" type="curve" smooth="yes"/>
      <point x="285" y="36"/>
      <point x="282" y="40"/>
      <point x="282" y="53" type="curve" smooth="yes"/>
      <point x="282" y="58"/>
      <point x="283" y="63"/>
      <point x="284" y="69" type="curve"/>
      <point x="288" y="83"/>
      <point x="343" y="303"/>
      <point x="352" y="339" type="curve" smooth="yes"/>
      <point x="396" y="515"/>
      <point x="478" y="632"/>
      <point x="584" y="632" type="curve" smooth="yes"/>
      <point x="640" y="632"/>
      <point x="666" y="598"/>
      <point x="666" y="565" type="curve" smooth="yes"/>
      <point x="666" y="555"/>
      <point x="664" y="548"/>
      <point x="664" y="544" type="curve" smooth="yes"/>
      <point x="664" y="535"/>
      <point x="674" y="535"/>
      <point x="676" y="535" type="curve" smooth="yes"/>
      <point x="696" y="535"/>
      <point x="701" y="558"/>
      <point x="701" y="593" type="curve" smooth="yes"/>
      <point x="701" y="639"/>
      <point x="678" y="705"/>
      <point x="602" y="705" type="curve" smooth="yes"/>
      <point x="482" y="705"/>
      <point x="395" y="591"/>
    </contour>
  </outline>
</glyph>
<glyph name="Phi" format="2">
  <advance width="666"/>
  <unicode hex="03A6"/>
  <outline>
    <contour>
      <point x="437" y="600" type="line" smooth="yes"/>
      <point x="448" y="643"/>
      <point x="451" y="652"/>
      <point x="546" y="652" type="curve" smooth="yes"/>
      <point x="575" y="652"/>
      <point x="583" y="652"/>
      <point x="583" y="671" type="curve" smooth="yes"/>
      <point x="583" y="683"/>
      <point x="572" y="683"/>
      <point x="567" y="683" type="curve" smooth="yes"/>
      <point x="542" y="683"/>
      <point x="516" y="681"/>
      <point x="491" y="681" type="curve" smooth="yes"/>
      <point x="467" y="681"/>
      <point x="442" y="680"/>
      <point x="418" y="680" type="curve" smooth="yes"/>
      <point x="392" y="680"/>
      <point x="366" y="681"/>
      <point x="341" y="681" type="curve" smooth="yes"/>
      <point x="317" y="681"/>
      <point x="292" y="683"/>
      <point x="268" y="683" type="curve" smooth="yes"/>
      <point x="259" y="683"/>
      <point x="247" y="683"/>
      <point x="247" y="663" type="curve" smooth="yes"/>
      <point x="247" y="652"/>
      <point x="255" y="652"/>
      <point x="281" y="652" type="curve" smooth="yes"/>
      <point x="303" y="652"/>
      <point x="309" y="652"/>
      <point x="333" y="650" type="curve" smooth="yes"/>
      <point x="362" y="647"/>
      <point x="365" y="643"/>
      <point x="365" y="630" type="curve" smooth="yes"/>
      <point x="365" y="625"/>
      <point x="359" y="602"/>
      <point x="356" y="587" type="curve"/>
      <point x="346" y="548" type="line"/>
      <point x="172" y="535"/>
      <point x="23" y="423"/>
      <point x="23" y="307" type="curve" smooth="yes"/>
      <point x="23" y="215"/>
      <point x="115" y="144"/>
      <point x="242" y="135" type="curve"/>
      <point x="230" y="85" type="line" smooth="yes"/>
      <point x="219" y="40"/>
      <point x="216" y="31"/>
      <point x="121" y="31" type="curve" smooth="yes"/>
      <point x="92" y="31"/>
      <point x="84" y="31"/>
      <point x="84" y="11" type="curve" smooth="yes"/>
      <point x="84" y="0"/>
      <point x="96" y="0"/>
      <point x="100" y="0" type="curve" smooth="yes"/>
      <point x="125" y="0"/>
      <point x="151" y="2"/>
      <point x="176" y="2" type="curve" smooth="yes"/>
      <point x="200" y="2"/>
      <point x="224" y="3"/>
      <point x="248" y="3" type="curve" smooth="yes"/>
      <point x="282" y="3"/>
      <point x="365" y="0"/>
      <point x="399" y="0" type="curve" smooth="yes"/>
      <point x="408" y="0"/>
      <point x="420" y="0"/>
      <point x="420" y="19" type="curve" smooth="yes"/>
      <point x="420" y="27"/>
      <point x="414" y="29"/>
      <point x="414" y="30" type="curve"/>
      <point x="411" y="31"/>
      <point x="409" y="31"/>
      <point x="386" y="31" type="curve" smooth="yes"/>
      <point x="364" y="31"/>
      <point x="359" y="31"/>
      <point x="334" y="33" type="curve" smooth="yes"/>
      <point x="305" y="36"/>
      <point x="302" y="40"/>
      <point x="302" y="53" type="curve" smooth="yes"/>
      <point x="302" y="60"/>
      <point x="314" y="108"/>
      <point x="321" y="135" type="curve"/>
      <point x="501" y="149"/>
      <point x="643" y="264"/>
      <point x="643" y="376" type="curve" smooth="yes"/>
      <point x="643" y="461"/>
      <point x="560" y="537"/>
      <point x="424" y="548" type="curve"/>
    </contour>
    <contour>
      <point x="248" y="157" type="line"/>
      <point x="209" y="162"/>
      <point x="179" y="173"/>
      <point x="155" y="192" type="curve" smooth="yes"/>
      <point x="114" y="223"/>
      <point x="114" y="266"/>
      <point x="114" y="284" type="curve" smooth="yes"/>
      <point x="114" y="343"/>
      <point x="144" y="504"/>
      <point x="340" y="526" type="curve"/>
    </contour>
    <contour>
      <point x="419" y="526" type="line"/>
      <point x="428" y="525"/>
      <point x="476" y="519"/>
      <point x="512" y="490" type="curve" smooth="yes"/>
      <point x="542" y="466"/>
      <point x="552" y="436"/>
      <point x="552" y="399" type="curve" smooth="yes"/>
      <point x="552" y="373"/>
      <point x="544" y="185"/>
      <point x="327" y="157" type="curve"/>
    </contour>
  </outline>
</glyph>
<glyph name="Psi" format="2">
  <advance width="612"/>
  <unicode hex="03A8"/>
  <outline>
    <contour>
      <point x="416" y="605" type="line" smooth="yes"/>
      <point x="425" y="641"/>
      <point x="428" y="652"/>
      <point x="522" y="652" type="curve" smooth="yes"/>
      <point x="552" y="652"/>
      <point x="560" y="652"/>
      <point x="560" y="671" type="curve" smooth="yes"/>
      <point x="560" y="683"/>
      <point x="549" y="683"/>
      <point x="544" y="683" type="curve" smooth="yes"/>
      <point x="519" y="683"/>
      <point x="493" y="681"/>
      <point x="468" y="681" type="curve" smooth="yes"/>
      <point x="444" y="681"/>
      <point x="419" y="680"/>
      <point x="395" y="680" type="curve" smooth="yes"/>
      <point x="369" y="680"/>
      <point x="343" y="681"/>
      <point x="318" y="681" type="curve" smooth="yes"/>
      <point x="294" y="681"/>
      <point x="269" y="683"/>
      <point x="245" y="683" type="curve" smooth="yes"/>
      <point x="236" y="683"/>
      <point x="224" y="683"/>
      <point x="224" y="663" type="curve" smooth="yes"/>
      <point x="224" y="652"/>
      <point x="232" y="652"/>
      <point x="258" y="652" type="curve" smooth="yes"/>
      <point x="280" y="652"/>
      <point x="286" y="652"/>
      <point x="310" y="650" type="curve" smooth="yes"/>
      <point x="339" y="647"/>
      <point x="342" y="643"/>
      <point x="342" y="630" type="curve" smooth="yes"/>
      <point x="342" y="624"/>
      <point x="340" y="617"/>
      <point x="338" y="609" type="curve" smooth="yes"/>
      <point x="226" y="159" type="line"/>
      <point x="128" y="178"/>
      <point x="128" y="275"/>
      <point x="128" y="301" type="curve" smooth="yes"/>
      <point x="128" y="331"/>
      <point x="132" y="364"/>
      <point x="143" y="405" type="curve"/>
      <point x="148" y="429"/>
      <point x="153" y="453"/>
      <point x="153" y="476" type="curve" smooth="yes"/>
      <point x="153" y="554"/>
      <point x="107" y="554"/>
      <point x="83" y="554" type="curve" smooth="yes"/>
      <point x="55" y="554" type="line" smooth="yes"/>
      <point x="36" y="554"/>
      <point x="27" y="554"/>
      <point x="27" y="543" type="curve" smooth="yes"/>
      <point x="27" y="533"/>
      <point x="36" y="532"/>
      <point x="40" y="532" type="curve"/>
      <point x="52" y="531"/>
      <point x="75" y="528"/>
      <point x="75" y="476" type="curve" smooth="yes"/>
      <point x="75" y="465"/>
      <point x="73" y="442"/>
      <point x="66" y="415" type="curve" smooth="yes"/>
      <point x="62" y="396"/>
      <point x="53" y="358"/>
      <point x="53" y="320" type="curve" smooth="yes"/>
      <point x="53" y="223"/>
      <point x="102" y="150"/>
      <point x="219" y="136" type="curve"/>
      <point x="212" y="104"/>
      <point x="212" y="102"/>
      <point x="208" y="87" type="curve" smooth="yes"/>
      <point x="196" y="39"/>
      <point x="193" y="31"/>
      <point x="98" y="31" type="curve" smooth="yes"/>
      <point x="69" y="31"/>
      <point x="61" y="31"/>
      <point x="61" y="11" type="curve" smooth="yes"/>
      <point x="61" y="0"/>
      <point x="73" y="0"/>
      <point x="77" y="0" type="curve" smooth="yes"/>
      <point x="102" y="0"/>
      <point x="128" y="2"/>
      <point x="153" y="2" type="curve" smooth="yes"/>
      <point x="177" y="2"/>
      <point x="201" y="3"/>
      <point x="225" y="3" type="curve" smooth="yes"/>
      <point x="259" y="3"/>
      <point x="342" y="0"/>
      <point x="376" y="0" type="curve" smooth="yes"/>
      <point x="385" y="0"/>
      <point x="397" y="0"/>
      <point x="397" y="19" type="curve" smooth="yes"/>
      <point x="397" y="27"/>
      <point x="391" y="29"/>
      <point x="391" y="30" type="curve"/>
      <point x="388" y="31"/>
      <point x="386" y="31"/>
      <point x="363" y="31" type="curve" smooth="yes"/>
      <point x="341" y="31"/>
      <point x="336" y="31"/>
      <point x="311" y="33" type="curve" smooth="yes"/>
      <point x="282" y="36"/>
      <point x="279" y="40"/>
      <point x="279" y="53" type="curve" smooth="yes"/>
      <point x="279" y="60"/>
      <point x="291" y="108"/>
      <point x="298" y="135" type="curve"/>
      <point x="440" y="150"/>
      <point x="542" y="238"/>
      <point x="587" y="403" type="curve" smooth="yes"/>
      <point x="609" y="482"/>
      <point x="633" y="526"/>
      <point x="680" y="532" type="curve"/>
      <point x="685" y="533"/>
      <point x="693" y="534"/>
      <point x="693" y="543" type="curve" smooth="yes"/>
      <point x="693" y="554"/>
      <point x="684" y="554"/>
      <point x="666" y="554" type="curve" smooth="yes"/>
      <point x="638" y="554" type="line" smooth="yes"/>
      <point x="607" y="554"/>
      <point x="549" y="554"/>
      <point x="511" y="413" type="curve" smooth="yes"/>
      <point x="494" y="352"/>
      <point x="451" y="193"/>
      <point x="304" y="160" type="curve"/>
    </contour>
  </outline>
</glyph>
<glyph name="alpha" format="2">
  <advance width="639"/>
  <unicode hex="03B1"/>
  <outline>
    <contour>
      <point x="477" y="236" type="line" smooth="yes"/>
      <point x="477" y="393"/>
      <point x="384" y="442"/>
      <point x="310" y="442" type="curve" smooth="yes"/>
      <point x="173" y="442"/>
      <point x="41" y="299"/>
      <point x="41" y="158" type="curve" smooth="yes"/>
      <point x="41" y="65"/>
      <point x="101" y="-11"/>
      <point x="203" y="-11" type="curve" smooth="yes"/>
      <point x="266" y="-11"/>
      <point x="338" y="12"/>
      <point x="414" y="73" type="curve"/>
      <point x="427" y="20"/>
      <point x="460" y="-11"/>
      <point x="505" y="-11" type="curve" smooth="yes"/>
      <point x="558" y="-11"/>
      <point x="589" y="44"/>
      <point x="589" y="60" type="curve" smooth="yes"/>
      <point x="589" y="67"/>
      <point x="583" y="70"/>
      <point x="577" y="70" type="curve" smooth="yes"/>
      <point x="570" y="70"/>
      <point x="567" y="67"/>
      <point x="564" y="60" type="curve"/>
      <point x="546" y="11"/>
      <point x="510" y="11"/>
      <point x="508" y="11" type="curve" smooth="yes"/>
      <point x="477" y="11"/>
      <point x="477" y="89"/>
      <point x="477" y="113" type="curve" smooth="yes"/>
      <point x="477" y="134"/>
      <point x="477" y="136"/>
      <point x="487" y="148" type="curve" smooth="yes"/>
      <point x="581" y="266"/>
      <point x="602" y="382"/>
      <point x="602" y="383" type="curve" smooth="yes"/>
      <point x="602" y="385"/>
      <point x="601" y="393"/>
      <point x="590" y="393" type="curve" smooth="yes"/>
      <point x="580" y="393"/>
      <point x="580" y="390"/>
      <point x="575" y="372" type="curve" smooth="yes"/>
      <point x="557" y="309"/>
      <point x="524" y="233"/>
      <point x="477" y="174" type="curve"/>
    </contour>
    <contour>
      <point x="410" y="99" type="curve"/>
      <point x="322" y="22"/>
      <point x="245" y="11"/>
      <point x="205" y="11" type="curve" smooth="yes"/>
      <point x="145" y="11"/>
      <point x="115" y="56"/>
      <point x="115" y="120" type="curve" smooth="yes"/>
      <point x="115" y="169"/>
      <point x="141" y="277"/>
      <point x="173" y="328" type="curve" smooth="yes"/>
      <point x="220" y="401"/>
      <point x="274" y="420"/>
      <point x="309" y="420" type="curve" smooth="yes"/>
      <point x="408" y="420"/>
      <point x="408" y="289"/>
      <point x="408" y="211" type="curve" smooth="yes"/>
      <point x="408" y="174"/>
      <point x="408" y="116"/>
    </contour>
  </outline>
</glyph>
<glyph name="beta" format="2">
  <advance width="565"/>
  <unicode hex="03B2"/>
  <outline>
    <contour>
      <point x="575.0" y="569" type="curve" smooth="yes"/>
      <point x="575.0" y="644"/>
      <point x="520.0" y="706"/>
      <point x="439.0" y="706" type="curve" smooth="yes"/>
      <point x="381.0" y="706"/>
      <point x="353.0" y="690"/>
      <point x="318.0" y="664" type="curve" smooth="yes"/>
      <point x="263.0" y="624"/>
      <point x="208.0" y="527"/>
      <point x="189.0" y="451" type="curve" smooth="yes"/>
      <point x="30.0" y="-184" type="line" smooth="yes"/>
      <point x="29.0" y="-188"/>
      <point x="34.0" y="-194"/>
      <point x="42.0" y="-194" type="curve" smooth="yes"/>
      <point x="50.0" y="-194"/>
      <point x="53.0" y="-192"/>
      <point x="54.0" y="-189" type="curve"/>
      <point x="124.0" y="87" type="line"/>
      <point x="143.0" y="27"/>
      <point x="187.0" y="-10"/>
      <point x="260.0" y="-10" type="curve" smooth="yes"/>
      <point x="333.0" y="-10"/>
      <point x="408.0" y="25"/>
      <point x="453.0" y="69" type="curve" smooth="yes"/>
      <point x="501.0" y="115"/>
      <point x="533.0" y="179"/>
      <point x="533.0" y="253" type="curve" smooth="yes"/>
      <point x="533.0" y="325"/>
      <point x="496.0" y="377"/>
      <point x="460.0" y="402" type="curve"/>
      <point x="518.0" y="435"/>
      <point x="575.0" y="497"/>
    </contour>
    <contour>
      <point x="395.0" y="403" type="curve"/>
      <point x="382.0" y="398"/>
      <point x="371.0" y="396"/>
      <point x="347.0" y="396" type="curve" smooth="yes"/>
      <point x="333.0" y="396"/>
      <point x="313.0" y="395"/>
      <point x="303.0" y="400" type="curve"/>
      <point x="305.0" y="410"/>
      <point x="341.0" y="408"/>
      <point x="352.0" y="408" type="curve" smooth="yes"/>
      <point x="373.0" y="408"/>
      <point x="382.0" y="408"/>
    </contour>
    <contour>
      <point x="519.0" y="592" type="curve" smooth="yes"/>
      <point x="519.0" y="522"/>
      <point x="481.0" y="450"/>
      <point x="429.0" y="419" type="curve"/>
      <point x="402.0" y="429"/>
      <point x="382.0" y="431"/>
      <point x="352.0" y="431" type="curve" smooth="yes"/>
      <point x="331.0" y="431"/>
      <point x="275.0" y="432"/>
      <point x="275.0" y="399" type="curve" smooth="yes"/>
      <point x="274.0" y="371"/>
      <point x="326.0" y="374"/>
      <point x="344.0" y="374" type="curve" smooth="yes"/>
      <point x="381.0" y="374"/>
      <point x="396.0" y="375"/>
      <point x="426.0" y="387" type="curve"/>
      <point x="464.0" y="351"/>
      <point x="469.0" y="320"/>
      <point x="470.0" y="274" type="curve" smooth="yes"/>
      <point x="472.0" y="216"/>
      <point x="448.0" y="141"/>
      <point x="420.0" y="102" type="curve" smooth="yes"/>
      <point x="381.0" y="48"/>
      <point x="314.0" y="12"/>
      <point x="257.0" y="12" type="curve" smooth="yes"/>
      <point x="181.0" y="12"/>
      <point x="143.0" y="70"/>
      <point x="143.0" y="141" type="curve" smooth="yes"/>
      <point x="143.0" y="151"/>
      <point x="143.0" y="166"/>
      <point x="148.0" y="185" type="curve" smooth="yes"/>
      <point x="212.0" y="438" type="line" smooth="yes"/>
      <point x="234.0" y="524"/>
      <point x="306.0" y="683"/>
      <point x="426.0" y="683" type="curve" smooth="yes"/>
      <point x="484.0" y="683"/>
      <point x="519.0" y="652"/>
    </contour>
  </outline>
</glyph>
<glyph name="gamma" format="2">
  <advance width="517"/>
  <unicode hex="03B3"/>
  <outline>
    <contour>
      <point x="41" y="254" type="line"/>
      <point x="80" y="369"/>
      <point x="189" y="370"/>
      <point x="200" y="370" type="curve" smooth="yes"/>
      <point x="351" y="370"/>
      <point x="362" y="195"/>
      <point x="362" y="116" type="curve" smooth="yes"/>
      <point x="362" y="55"/>
      <point x="357" y="38"/>
      <point x="350" y="18" type="curve" smooth="yes"/>
      <point x="328" y="-55"/>
      <point x="298" y="-171"/>
      <point x="298" y="-197" type="curve" smooth="yes"/>
      <point x="298" y="-208"/>
      <point x="303" y="-215"/>
      <point x="311" y="-215" type="curve" smooth="yes"/>
      <point x="324" y="-215"/>
      <point x="332" y="-193"/>
      <point x="343" y="-155" type="curve" smooth="yes"/>
      <point x="366" y="-71"/>
      <point x="376" y="-14"/>
      <point x="380" y="17" type="curve" smooth="yes"/>
      <point x="382" y="30"/>
      <point x="384" y="43"/>
      <point x="388" y="56" type="curve" smooth="yes"/>
      <point x="420" y="155"/>
      <point x="484" y="304"/>
      <point x="524" y="383" type="curve"/>
      <point x="531" y="395"/>
      <point x="543" y="417"/>
      <point x="543" y="421" type="curve" smooth="yes"/>
      <point x="543" y="431"/>
      <point x="533" y="431"/>
      <point x="531" y="431" type="curve" smooth="yes"/>
      <point x="528" y="431"/>
      <point x="522" y="431"/>
      <point x="519" y="424" type="curve"/>
      <point x="467" y="329"/>
      <point x="427" y="229"/>
      <point x="387" y="128" type="curve"/>
      <point x="386" y="159"/>
      <point x="385" y="235"/>
      <point x="346" y="332" type="curve" smooth="yes"/>
      <point x="322" y="393"/>
      <point x="282" y="442"/>
      <point x="213" y="442" type="curve" smooth="yes"/>
      <point x="88" y="442"/>
      <point x="18" y="290"/>
      <point x="18" y="259" type="curve" smooth="yes"/>
      <point x="18" y="249"/>
      <point x="27" y="249"/>
      <point x="37" y="249" type="curve"/>
    </contour>
  </outline>
</glyph>
<glyph name="delta" format="2">
  <advance width="444"/>
  <unicode hex="03B4"/>
  <outline>
    <contour>
      <point x="264" y="437" type="curve"/>
      <point x="139" y="407"/>
      <point x="42" y="277"/>
      <point x="42" y="156" type="curve" smooth="yes"/>
      <point x="42" y="60"/>
      <point x="106" y="-12"/>
      <point x="200" y="-12" type="curve" smooth="yes"/>
      <point x="317" y="-12"/>
      <point x="400" y="145"/>
      <point x="400" y="283" type="curve" smooth="yes"/>
      <point x="400" y="374"/>
      <point x="360" y="424"/>
      <point x="326" y="469" type="curve" smooth="yes"/>
      <point x="290" y="514"/>
      <point x="231" y="589"/>
      <point x="231" y="633" type="curve" smooth="yes"/>
      <point x="231" y="655"/>
      <point x="251" y="679"/>
      <point x="286" y="679" type="curve" smooth="yes"/>
      <point x="316" y="679"/>
      <point x="336" y="666"/>
      <point x="357" y="652" type="curve" smooth="yes"/>
      <point x="377" y="640"/>
      <point x="397" y="627"/>
      <point x="412" y="627" type="curve" smooth="yes"/>
      <point x="437" y="627"/>
      <point x="452" y="651"/>
      <point x="452" y="667" type="curve" smooth="yes"/>
      <point x="452" y="689"/>
      <point x="436" y="692"/>
      <point x="400" y="700" type="curve" smooth="yes"/>
      <point x="348" y="711"/>
      <point x="334" y="711"/>
      <point x="318" y="711" type="curve" smooth="yes"/>
      <point x="240" y="711"/>
      <point x="204" y="668"/>
      <point x="204" y="608" type="curve" smooth="yes"/>
      <point x="204" y="554"/>
      <point x="233" y="498"/>
    </contour>
    <contour>
      <point x="276" y="415" type="curve"/>
      <point x="301" y="369"/>
      <point x="331" y="315"/>
      <point x="331" y="243" type="curve" smooth="yes"/>
      <point x="331" y="177"/>
      <point x="293" y="10"/>
      <point x="200" y="10" type="curve" smooth="yes"/>
      <point x="145" y="10"/>
      <point x="104" y="52"/>
      <point x="104" y="128" type="curve" smooth="yes"/>
      <point x="104" y="191"/>
      <point x="141" y="379"/>
    </contour>
  </outline>
</glyph>
<glyph name="epsilon" format="2">
  <advance width="466"/>
  <unicode hex="03B5"/>
  <outline>
    <contour>
      <point x="141" y="227" type="curve"/>
      <point x="174" y="213"/>
      <point x="203" y="213"/>
      <point x="227" y="213" type="curve" smooth="yes"/>
      <point x="253" y="213"/>
      <point x="308" y="213"/>
      <point x="308" y="244" type="curve" smooth="yes"/>
      <point x="308" y="268"/>
      <point x="273" y="271"/>
      <point x="235" y="271" type="curve" smooth="yes"/>
      <point x="214" y="271"/>
      <point x="179" y="269"/>
      <point x="142" y="252" type="curve"/>
      <point x="119" y="264"/>
      <point x="102" y="283"/>
      <point x="102" y="310" type="curve" smooth="yes"/>
      <point x="102" y="371"/>
      <point x="200" y="407"/>
      <point x="290" y="407" type="curve" smooth="yes"/>
      <point x="306" y="407"/>
      <point x="342" y="407"/>
      <point x="382" y="379" type="curve" smooth="yes"/>
      <point x="393" y="371"/>
      <point x="395" y="369"/>
      <point x="402" y="369" type="curve" smooth="yes"/>
      <point x="415" y="369"/>
      <point x="429" y="382"/>
      <point x="429" y="396" type="curve" smooth="yes"/>
      <point x="429" y="415"/>
      <point x="368" y="453"/>
      <point x="300" y="453" type="curve" smooth="yes"/>
      <point x="185" y="453"/>
      <point x="77" y="386"/>
      <point x="77" y="310" type="curve" smooth="yes"/>
      <point x="77" y="267"/>
      <point x="113" y="242"/>
      <point x="117" y="239" type="curve"/>
      <point x="58" y="206"/>
      <point x="26" y="150"/>
      <point x="26" y="104" type="curve" smooth="yes"/>
      <point x="26" y="39"/>
      <point x="83" y="-22"/>
      <point x="189" y="-22" type="curve" smooth="yes"/>
      <point x="321" y="-22"/>
      <point x="377" y="66"/>
      <point x="377" y="81" type="curve" smooth="yes"/>
      <point x="377" y="87"/>
      <point x="372" y="91"/>
      <point x="366" y="91" type="curve" smooth="yes"/>
      <point x="361" y="91"/>
      <point x="358" y="87"/>
      <point x="356" y="84" type="curve" smooth="yes"/>
      <point x="342" y="61"/>
      <point x="318" y="24"/>
      <point x="198" y="24" type="curve" smooth="yes"/>
      <point x="137" y="24"/>
      <point x="52" y="39"/>
      <point x="52" y="110" type="curve" smooth="yes"/>
      <point x="52" y="144"/>
      <point x="80" y="197"/>
    </contour>
    <contour>
      <point x="174" y="240" type="curve"/>
      <point x="197" y="248"/>
      <point x="218" y="249"/>
      <point x="235" y="249" type="curve" smooth="yes"/>
      <point x="260" y="249"/>
      <point x="264" y="248"/>
      <point x="282" y="243" type="curve"/>
      <point x="267" y="236"/>
      <point x="265" y="235"/>
      <point x="227" y="235" type="curve" smooth="yes"/>
      <point x="205" y="235"/>
      <point x="193" y="235"/>
    </contour>
  </outline>
</glyph>
<glyph name="zeta" format="2">
  <advance width="437"/>
  <unicode hex="03B6"/>
  <outline>
    <contour>
      <point x="324" y="579" type="curve"/>
      <point x="342" y="561"/>
      <point x="365" y="561"/>
      <point x="385" y="561" type="curve" smooth="yes"/>
      <point x="410" y="561"/>
      <point x="474" y="561"/>
      <point x="474" y="592" type="curve" smooth="yes"/>
      <point x="474" y="617"/>
      <point x="434" y="619"/>
      <point x="394" y="619" type="curve" smooth="yes"/>
      <point x="383" y="619"/>
      <point x="356" y="619"/>
      <point x="330" y="609" type="curve"/>
      <point x="325" y="621"/>
      <point x="323" y="626"/>
      <point x="323" y="647" type="curve" smooth="yes"/>
      <point x="323" y="661"/>
      <point x="328" y="682"/>
      <point x="328" y="684" type="curve" smooth="yes"/>
      <point x="328" y="692"/>
      <point x="323" y="697"/>
      <point x="316" y="697" type="curve" smooth="yes"/>
      <point x="298" y="697"/>
      <point x="298" y="651"/>
      <point x="298" y="648" type="curve" smooth="yes"/>
      <point x="298" y="631"/>
      <point x="301" y="613"/>
      <point x="309" y="598" type="curve"/>
      <point x="204" y="545"/>
      <point x="46" y="361"/>
      <point x="46" y="167" type="curve" smooth="yes"/>
      <point x="46" y="26"/>
      <point x="137" y="-4"/>
      <point x="209" y="-28" type="curve" smooth="yes"/>
      <point x="239" y="-39"/>
      <point x="241" y="-39"/>
      <point x="270" y="-49" type="curve" smooth="yes"/>
      <point x="291" y="-56"/>
      <point x="332" y="-70"/>
      <point x="332" y="-117" type="curve" smooth="yes"/>
      <point x="332" y="-144"/>
      <point x="313" y="-183"/>
      <point x="276" y="-183" type="curve" smooth="yes"/>
      <point x="250" y="-183"/>
      <point x="223" y="-171"/>
      <point x="202" y="-153" type="curve" smooth="yes"/>
      <point x="195" y="-147"/>
      <point x="194" y="-146"/>
      <point x="190" y="-146" type="curve" smooth="yes"/>
      <point x="185" y="-146"/>
      <point x="180" y="-150"/>
      <point x="180" y="-157" type="curve" smooth="yes"/>
      <point x="180" y="-167"/>
      <point x="223" y="-205"/>
      <point x="276" y="-205" type="curve" smooth="yes"/>
      <point x="338" y="-205"/>
      <point x="385" y="-141"/>
      <point x="385" y="-84" type="curve" smooth="yes"/>
      <point x="385" y="-46"/>
      <point x="366" y="-25"/>
      <point x="358" y="-17" type="curve"/>
      <point x="341" y="2"/>
      <point x="322" y="8"/>
      <point x="263" y="28" type="curve" smooth="yes"/>
      <point x="183" y="55"/>
      <point x="167" y="60"/>
      <point x="143" y="81" type="curve" smooth="yes"/>
      <point x="101" y="119"/>
      <point x="101" y="176"/>
      <point x="101" y="195" type="curve" smooth="yes"/>
      <point x="101" y="350"/>
      <point x="223" y="525"/>
    </contour>
    <contour>
      <point x="347" y="590" type="curve"/>
      <point x="362" y="597"/>
      <point x="380" y="597"/>
      <point x="393" y="597" type="curve" smooth="yes"/>
      <point x="426" y="597"/>
      <point x="430" y="596"/>
      <point x="448" y="591" type="curve"/>
      <point x="440" y="588"/>
      <point x="430" y="583"/>
      <point x="386" y="583" type="curve" smooth="yes"/>
      <point x="365" y="583"/>
      <point x="358" y="583"/>
    </contour>
  </outline>
</glyph>
<glyph name="eta" format="2">
  <advance width="496"/>
  <unicode hex="03B7"/>
  <outline>
    <contour>
      <point x="488" y="277" type="line" smooth="yes"/>
      <point x="493" y="295"/>
      <point x="496" y="308"/>
      <point x="496" y="335" type="curve" smooth="yes"/>
      <point x="496" y="400"/>
      <point x="456" y="442"/>
      <point x="381" y="442" type="curve" smooth="yes"/>
      <point x="302" y="442"/>
      <point x="250" y="390"/>
      <point x="226" y="355" type="curve"/>
      <point x="221" y="412"/>
      <point x="179" y="442"/>
      <point x="134" y="442" type="curve" smooth="yes"/>
      <point x="88" y="442"/>
      <point x="69" y="403"/>
      <point x="60" y="385" type="curve" smooth="yes"/>
      <point x="42" y="351"/>
      <point x="29" y="291"/>
      <point x="29" y="288" type="curve" smooth="yes"/>
      <point x="29" y="278"/>
      <point x="39" y="278"/>
      <point x="41" y="278" type="curve" smooth="yes"/>
      <point x="51" y="278"/>
      <point x="52" y="279"/>
      <point x="58" y="301" type="curve" smooth="yes"/>
      <point x="75" y="372"/>
      <point x="95" y="420"/>
      <point x="131" y="420" type="curve" smooth="yes"/>
      <point x="148" y="420"/>
      <point x="162" y="412"/>
      <point x="162" y="374" type="curve" smooth="yes"/>
      <point x="162" y="353"/>
      <point x="159" y="342"/>
      <point x="146" y="290" type="curve" smooth="yes"/>
      <point x="88" y="59" type="line" smooth="yes"/>
      <point x="85" y="44"/>
      <point x="79" y="21"/>
      <point x="79" y="16" type="curve" smooth="yes"/>
      <point x="79" y="-2"/>
      <point x="93" y="-11"/>
      <point x="108" y="-11" type="curve" smooth="yes"/>
      <point x="120" y="-11"/>
      <point x="138" y="-3"/>
      <point x="145" y="17" type="curve"/>
      <point x="146" y="19"/>
      <point x="158" y="66"/>
      <point x="164" y="91" type="curve" smooth="yes"/>
      <point x="186" y="181" type="line" smooth="yes"/>
      <point x="192" y="203"/>
      <point x="198" y="225"/>
      <point x="203" y="248" type="curve"/>
      <point x="205" y="254"/>
      <point x="213" y="287"/>
      <point x="214" y="293" type="curve"/>
      <point x="217" y="302"/>
      <point x="248" y="358"/>
      <point x="282" y="385" type="curve" smooth="yes"/>
      <point x="304" y="401"/>
      <point x="335" y="420"/>
      <point x="378" y="420" type="curve" smooth="yes"/>
      <point x="421" y="420"/>
      <point x="432" y="386"/>
      <point x="432" y="350" type="curve" smooth="yes"/>
      <point x="432" y="345"/>
      <point x="432" y="327"/>
      <point x="422" y="287" type="curve" smooth="yes"/>
      <point x="308" y="-173" type="line" smooth="yes"/>
      <point x="305" y="-185"/>
      <point x="305" y="-187"/>
      <point x="305" y="-189" type="curve" smooth="yes"/>
      <point x="305" y="-204"/>
      <point x="316" y="-216"/>
      <point x="333" y="-216" type="curve" smooth="yes"/>
      <point x="364" y="-216"/>
      <point x="371" y="-187"/>
      <point x="374" y="-176" type="curve" smooth="yes"/>
    </contour>
  </outline>
</glyph>
<glyph name="theta" format="2">
  <advance width="469"/>
  <unicode hex="03B8"/>
  <outline>
    <contour>
      <point x="455" y="500" type="curve" smooth="yes"/>
      <point x="455" y="566"/>
      <point x="437" y="705"/>
      <point x="335" y="705" type="curve" smooth="yes"/>
      <point x="196" y="705"/>
      <point x="42" y="423"/>
      <point x="42" y="194" type="curve" smooth="yes"/>
      <point x="42" y="100"/>
      <point x="71" y="-11"/>
      <point x="162" y="-11" type="curve" smooth="yes"/>
      <point x="303" y="-11"/>
      <point x="455" y="276"/>
    </contour>
    <contour>
      <point x="148" y="363" type="line"/>
      <point x="165" y="427"/>
      <point x="185" y="507"/>
      <point x="225" y="578" type="curve" smooth="yes"/>
      <point x="252" y="627"/>
      <point x="289" y="683"/>
      <point x="334" y="683" type="curve" smooth="yes"/>
      <point x="383" y="683"/>
      <point x="389" y="619"/>
      <point x="389" y="562" type="curve" smooth="yes"/>
      <point x="389" y="513"/>
      <point x="381" y="462"/>
      <point x="357" y="363" type="curve"/>
    </contour>
    <contour>
      <point x="348" y="331" type="line"/>
      <point x="337" y="285"/>
      <point x="316" y="200"/>
      <point x="278" y="128" type="curve" smooth="yes"/>
      <point x="243" y="60"/>
      <point x="205" y="11"/>
      <point x="162" y="11" type="curve" smooth="yes"/>
      <point x="129" y="11"/>
      <point x="108" y="40"/>
      <point x="108" y="133" type="curve" smooth="yes"/>
      <point x="108" y="175"/>
      <point x="114" y="233"/>
      <point x="140" y="331" type="curve"/>
    </contour>
  </outline>
</glyph>
<glyph name="iota" format="2">
  <advance width="353"/>
  <unicode hex="03B9"/>
  <outline>
    <contour>
      <point x="324" y="143" type="curve" smooth="yes"/>
      <point x="324" y="153"/>
      <point x="315" y="153"/>
      <point x="312" y="153" type="curve" smooth="yes"/>
      <point x="303" y="153"/>
      <point x="301" y="149"/>
      <point x="299" y="142" type="curve" smooth="yes"/>
      <point x="268" y="44"/>
      <point x="185" y="11"/>
      <point x="142" y="11" type="curve" smooth="yes"/>
      <point x="128" y="11"/>
      <point x="116" y="14"/>
      <point x="116" y="44" type="curve" smooth="yes"/>
      <point x="116" y="68"/>
      <point x="124" y="91"/>
      <point x="134" y="118" type="curve" smooth="yes"/>
      <point x="179" y="239"/>
      <point x="220" y="407"/>
      <point x="220" y="415" type="curve" smooth="yes"/>
      <point x="220" y="432"/>
      <point x="208" y="442"/>
      <point x="191" y="442" type="curve" smooth="yes"/>
      <point x="180" y="442"/>
      <point x="162" y="435"/>
      <point x="154" y="416" type="curve" smooth="yes"/>
      <point x="147" y="397"/>
      <point x="138" y="348"/>
      <point x="132" y="329" type="curve"/>
      <point x="130" y="324"/>
      <point x="105" y="236"/>
      <point x="102" y="223" type="curve"/>
      <point x="99" y="213"/>
      <point x="90" y="188"/>
      <point x="88" y="178" type="curve"/>
      <point x="80" y="150"/>
      <point x="56" y="103"/>
      <point x="56" y="71" type="curve" smooth="yes"/>
      <point x="56" y="30"/>
      <point x="84" y="-11"/>
      <point x="140" y="-11" type="curve" smooth="yes"/>
      <point x="254" y="-11"/>
      <point x="324" y="110"/>
    </contour>
  </outline>
</glyph>
<glyph name="kappa" format="2">
  <advance width="576"/>
  <unicode hex="03BA"/>
  <outline>
    <contour>
      <point x="59" y="39" type="line" smooth="yes"/>
      <point x="55" y="25"/>
      <point x="55" y="23"/>
      <point x="55" y="16" type="curve" smooth="yes"/>
      <point x="55" y="-2"/>
      <point x="69" y="-11"/>
      <point x="84" y="-11" type="curve" smooth="yes"/>
      <point x="114" y="-11"/>
      <point x="120" y="13"/>
      <point x="128" y="45" type="curve" smooth="yes"/>
      <point x="138" y="81"/>
      <point x="132" y="62"/>
      <point x="175" y="230" type="curve"/>
      <point x="259" y="227"/>
      <point x="346" y="210"/>
      <point x="346" y="145" type="curve" smooth="yes"/>
      <point x="346" y="138"/>
      <point x="346" y="133"/>
      <point x="344" y="123" type="curve" smooth="yes"/>
      <point x="340" y="107"/>
      <point x="339" y="96"/>
      <point x="339" y="88" type="curve" smooth="yes"/>
      <point x="339" y="29"/>
      <point x="379" y="-11"/>
      <point x="431" y="-11" type="curve" smooth="yes"/>
      <point x="463" y="-11"/>
      <point x="489" y="7"/>
      <point x="509" y="41" type="curve" smooth="yes"/>
      <point x="534" y="83"/>
      <point x="546" y="141"/>
      <point x="546" y="143" type="curve" smooth="yes"/>
      <point x="546" y="153"/>
      <point x="537" y="153"/>
      <point x="534" y="153" type="curve" smooth="yes"/>
      <point x="524" y="153"/>
      <point x="523" y="149"/>
      <point x="520" y="135" type="curve"/>
      <point x="501" y="66"/>
      <point x="478" y="11"/>
      <point x="433" y="11" type="curve" smooth="yes"/>
      <point x="412" y="11"/>
      <point x="401" y="24"/>
      <point x="401" y="59" type="curve" smooth="yes"/>
      <point x="401" y="74"/>
      <point x="405" y="98"/>
      <point x="409" y="115" type="curve" smooth="yes"/>
      <point x="411" y="124"/>
      <point x="414" y="137"/>
      <point x="414" y="148" type="curve" smooth="yes"/>
      <point x="414" y="242"/>
      <point x="276" y="249"/>
      <point x="220" y="251" type="curve"/>
      <point x="253" y="269"/>
      <point x="285" y="296"/>
      <point x="312" y="319" type="curve" smooth="yes"/>
      <point x="358" y="358"/>
      <point x="387" y="382"/>
      <point x="427" y="399" type="curve"/>
      <point x="425" y="394"/>
      <point x="422" y="382"/>
      <point x="422" y="377" type="curve" smooth="yes"/>
      <point x="422" y="365"/>
      <point x="429" y="342"/>
      <point x="460" y="342" type="curve" smooth="yes"/>
      <point x="492" y="342"/>
      <point x="514" y="371"/>
      <point x="514" y="396" type="curve" smooth="yes"/>
      <point x="514" y="405"/>
      <point x="510" y="431"/>
      <point x="474" y="431" type="curve" smooth="yes"/>
      <point x="413" y="431"/>
      <point x="354" y="381"/>
      <point x="310" y="344" type="curve" smooth="yes"/>
      <point x="242" y="286"/>
      <point x="218" y="271"/>
      <point x="182" y="259" type="curve"/>
      <point x="185" y="270"/>
      <point x="197" y="320"/>
      <point x="202" y="337" type="curve"/>
      <point x="208" y="363"/>
      <point x="220" y="410"/>
      <point x="220" y="415" type="curve" smooth="yes"/>
      <point x="220" y="432"/>
      <point x="208" y="442"/>
      <point x="191" y="442" type="curve" smooth="yes"/>
      <point x="188" y="442"/>
      <point x="160" y="442"/>
      <point x="151" y="406" type="curve" smooth="yes"/>
    </contour>
  </outline>
</glyph>
<glyph name="lambda" format="2">
  <advance width="583"/>
  <unicode hex="03BB"/>
  <outline>
    <contour>
      <point x="357" y="292" type="line"/>
      <point x="398" y="187"/>
      <point x="446" y="34"/>
      <point x="462" y="11" type="curve" smooth="yes"/>
      <point x="478" y="-11"/>
      <point x="488" y="-11"/>
      <point x="515" y="-11" type="curve" smooth="yes"/>
      <point x="537" y="-11" type="line"/>
      <point x="547" y="-10"/>
      <point x="548" y="-4"/>
      <point x="548" y="-1" type="curve" smooth="yes"/>
      <point x="548" y="2"/>
      <point x="546" y="4"/>
      <point x="543" y="8" type="curve"/>
      <point x="533" y="19"/>
      <point x="527" y="34"/>
      <point x="520" y="54" type="curve" smooth="yes"/>
      <point x="316" y="623" type="line" smooth="yes"/>
      <point x="295" y="681"/>
      <point x="241" y="694"/>
      <point x="194" y="694" type="curve" smooth="yes"/>
      <point x="189" y="694"/>
      <point x="176" y="694"/>
      <point x="176" y="683" type="curve" smooth="yes"/>
      <point x="176" y="675"/>
      <point x="184" y="673"/>
      <point x="185" y="673" type="curve"/>
      <point x="218" y="667"/>
      <point x="225" y="661"/>
      <point x="250" y="593" type="curve" smooth="yes"/>
      <point x="347" y="321" type="line"/>
      <point x="71" y="47" type="line" smooth="yes"/>
      <point x="59" y="35"/>
      <point x="53" y="29"/>
      <point x="53" y="16" type="curve" smooth="yes"/>
      <point x="53" y="-1"/>
      <point x="67" y="-13"/>
      <point x="83" y="-13" type="curve" smooth="yes"/>
      <point x="99" y="-13"/>
      <point x="108" y="-2"/>
      <point x="116" y="8" type="curve" smooth="yes"/>
    </contour>
  </outline>
</glyph>
<glyph name="nu" format="2">
  <advance width="493"/>
  <unicode hex="03BD"/>
  <outline>
    <contour>
      <point x="224" y="431" type="line"/>
      <point x="224" y="432"/>
      <point x="224" y="442"/>
      <point x="211" y="442" type="curve" smooth="yes"/>
      <point x="188" y="442"/>
      <point x="115" y="434"/>
      <point x="89" y="432" type="curve" smooth="yes"/>
      <point x="81" y="431"/>
      <point x="70" y="430"/>
      <point x="70" y="412" type="curve" smooth="yes"/>
      <point x="70" y="400"/>
      <point x="79" y="400"/>
      <point x="94" y="400" type="curve" smooth="yes"/>
      <point x="142" y="400"/>
      <point x="144" y="393"/>
      <point x="144" y="383" type="curve" smooth="yes"/>
      <point x="144" y="376"/>
      <point x="132" y="329"/>
      <point x="125" y="302" type="curve" smooth="yes"/>
      <point x="64" y="57" type="line" smooth="yes"/>
      <point x="60" y="42"/>
      <point x="53" y="14"/>
      <point x="53" y="12" type="curve" smooth="yes"/>
      <point x="53" y="1"/>
      <point x="63" y="0"/>
      <point x="69" y="0" type="curve" smooth="yes"/>
      <point x="83" y="0" type="line"/>
      <point x="153" y="12"/>
      <point x="262" y="51"/>
      <point x="365" y="147" type="curve" smooth="yes"/>
      <point x="497" y="270"/>
      <point x="524" y="406"/>
      <point x="524" y="415" type="curve" smooth="yes"/>
      <point x="524" y="432"/>
      <point x="512" y="442"/>
      <point x="495" y="442" type="curve" smooth="yes"/>
      <point x="487" y="442"/>
      <point x="464" y="438"/>
      <point x="456" y="409" type="curve" smooth="yes"/>
      <point x="392" y="182"/>
      <point x="240" y="70"/>
      <point x="126" y="33" type="curve"/>
    </contour>
  </outline>
</glyph>
<glyph name="xi" format="2">
  <advance width="437"/>
  <unicode hex="03BE"/>
  <outline>
    <contour>
      <point x="154" y="306" type="line"/>
      <point x="45" y="234"/>
      <point x="23" y="140"/>
      <point x="23" y="104" type="curve" smooth="yes"/>
      <point x="23" y="56"/>
      <point x="50" y="28"/>
      <point x="52" y="25" type="curve"/>
      <point x="84" y="-8"/>
      <point x="93" y="-12"/>
      <point x="168" y="-40" type="curve" smooth="yes"/>
      <point x="289" y="-87" type="line"/>
      <point x="304" y="-94"/>
      <point x="324" y="-101"/>
      <point x="324" y="-130" type="curve" smooth="yes"/>
      <point x="324" y="-153"/>
      <point x="306" y="-183"/>
      <point x="275" y="-183" type="curve" smooth="yes"/>
      <point x="231" y="-183"/>
      <point x="198" y="-159"/>
      <point x="187" y="-151" type="curve" smooth="yes"/>
      <point x="181" y="-147"/>
      <point x="180" y="-146"/>
      <point x="176" y="-146" type="curve" smooth="yes"/>
      <point x="168" y="-146"/>
      <point x="166" y="-153"/>
      <point x="166" y="-157" type="curve" smooth="yes"/>
      <point x="166" y="-169"/>
      <point x="219" y="-205"/>
      <point x="275" y="-205" type="curve" smooth="yes"/>
      <point x="337" y="-205"/>
      <point x="379" y="-147"/>
      <point x="379" y="-98" type="curve" smooth="yes"/>
      <point x="379" y="-50"/>
      <point x="342" y="-32"/>
      <point x="331" y="-27" type="curve"/>
      <point x="317" y="-22"/>
      <point x="283" y="-9"/>
      <point x="270" y="-4" type="curve" smooth="yes"/>
      <point x="250" y="4"/>
      <point x="230" y="12"/>
      <point x="209" y="19" type="curve"/>
      <point x="149" y="43" type="line" smooth="yes"/>
      <point x="104" y="61"/>
      <point x="74" y="90"/>
      <point x="74" y="132" type="curve" smooth="yes"/>
      <point x="74" y="173"/>
      <point x="113" y="260"/>
      <point x="197" y="302" type="curve"/>
      <point x="234" y="289"/>
      <point x="264" y="289"/>
      <point x="285" y="289" type="curve" smooth="yes"/>
      <point x="315" y="289"/>
      <point x="378" y="289"/>
      <point x="378" y="320" type="curve" smooth="yes"/>
      <point x="378" y="345"/>
      <point x="335" y="347"/>
      <point x="296" y="347" type="curve" smooth="yes"/>
      <point x="278" y="347"/>
      <point x="249" y="347"/>
      <point x="212" y="335" type="curve"/>
      <point x="186" y="361"/>
      <point x="182" y="394"/>
      <point x="182" y="413" type="curve" smooth="yes"/>
      <point x="182" y="469"/>
      <point x="218" y="546"/>
      <point x="293" y="583" type="curve"/>
      <point x="311" y="561"/>
      <point x="334" y="561"/>
      <point x="357" y="561" type="curve" smooth="yes"/>
      <point x="382" y="561"/>
      <point x="446" y="561"/>
      <point x="446" y="592" type="curve" smooth="yes"/>
      <point x="446" y="618"/>
      <point x="402" y="619"/>
      <point x="363" y="619" type="curve" smooth="yes"/>
      <point x="350" y="619"/>
      <point x="326" y="619"/>
      <point x="300" y="614" type="curve"/>
      <point x="297" y="623"/>
      <point x="295" y="630"/>
      <point x="295" y="647" type="curve" smooth="yes"/>
      <point x="295" y="661"/>
      <point x="300" y="682"/>
      <point x="300" y="684" type="curve" smooth="yes"/>
      <point x="300" y="692"/>
      <point x="295" y="697"/>
      <point x="288" y="697" type="curve" smooth="yes"/>
      <point x="270" y="697"/>
      <point x="270" y="651"/>
      <point x="270" y="648" type="curve" smooth="yes"/>
      <point x="270" y="628"/>
      <point x="276" y="613"/>
      <point x="277" y="609" type="curve"/>
      <point x="170" y="579"/>
      <point x="102" y="499"/>
      <point x="102" y="422" type="curve" smooth="yes"/>
      <point x="102" y="385"/>
      <point x="120" y="343"/>
      <point x="167" y="316" type="curve"/>
    </contour>
    <contour>
      <point x="316" y="592" type="curve"/>
      <point x="332" y="597"/>
      <point x="353" y="597"/>
      <point x="364" y="597" type="curve" smooth="yes"/>
      <point x="398" y="597"/>
      <point x="402" y="596"/>
      <point x="420" y="591" type="curve"/>
      <point x="412" y="588"/>
      <point x="402" y="583"/>
      <point x="358" y="583" type="curve" smooth="yes"/>
      <point x="339" y="583"/>
      <point x="327" y="583"/>
    </contour>
    <contour>
      <point x="238" y="319" type="curve"/>
      <point x="261" y="325"/>
      <point x="283" y="325"/>
      <point x="295" y="325" type="curve" smooth="yes"/>
      <point x="330" y="325"/>
      <point x="334" y="324"/>
      <point x="352" y="319" type="curve"/>
      <point x="344" y="315"/>
      <point x="334" y="311"/>
      <point x="288" y="311" type="curve" smooth="yes"/>
      <point x="265" y="311"/>
      <point x="256" y="311"/>
    </contour>
  </outline>
</glyph>
<glyph name="pi" format="2">
  <advance width="570"/>
  <unicode hex="03C0"/>
  <outline>
    <contour>
      <point x="265" y="373" type="line"/>
      <point x="378" y="373" type="line"/>
      <point x="345" y="225"/>
      <point x="336" y="182"/>
      <point x="336" y="115" type="curve" smooth="yes"/>
      <point x="336" y="100"/>
      <point x="336" y="73"/>
      <point x="344" y="39" type="curve" smooth="yes"/>
      <point x="354" y="-5"/>
      <point x="365" y="-11"/>
      <point x="380" y="-11" type="curve" smooth="yes"/>
      <point x="400" y="-11"/>
      <point x="421" y="7"/>
      <point x="421" y="27" type="curve" smooth="yes"/>
      <point x="421" y="33"/>
      <point x="421" y="35"/>
      <point x="415" y="49" type="curve" smooth="yes"/>
      <point x="386" y="121"/>
      <point x="386" y="186"/>
      <point x="386" y="214" type="curve" smooth="yes"/>
      <point x="386" y="267"/>
      <point x="393" y="321"/>
      <point x="404" y="373" type="curve"/>
      <point x="518" y="373" type="line" smooth="yes"/>
      <point x="531" y="373"/>
      <point x="567" y="373"/>
      <point x="567" y="407" type="curve" smooth="yes"/>
      <point x="567" y="431"/>
      <point x="546" y="431"/>
      <point x="527" y="431" type="curve" smooth="yes"/>
      <point x="192" y="431" type="line" smooth="yes"/>
      <point x="170" y="431"/>
      <point x="132" y="431"/>
      <point x="88" y="384" type="curve" smooth="yes"/>
      <point x="53" y="345"/>
      <point x="27" y="299"/>
      <point x="27" y="294" type="curve" smooth="yes"/>
      <point x="27" y="293"/>
      <point x="27" y="284"/>
      <point x="39" y="284" type="curve" smooth="yes"/>
      <point x="47" y="284"/>
      <point x="49" y="288"/>
      <point x="55" y="296" type="curve"/>
      <point x="104" y="373"/>
      <point x="162" y="373"/>
      <point x="182" y="373" type="curve" smooth="yes"/>
      <point x="239" y="373" type="line"/>
      <point x="207" y="252"/>
      <point x="153" y="131"/>
      <point x="111" y="40" type="curve"/>
      <point x="103" y="25"/>
      <point x="103" y="23"/>
      <point x="103" y="16" type="curve" smooth="yes"/>
      <point x="103" y="-3"/>
      <point x="119" y="-11"/>
      <point x="132" y="-11" type="curve" smooth="yes"/>
      <point x="162" y="-11"/>
      <point x="170" y="17"/>
      <point x="182" y="54" type="curve" smooth="yes"/>
      <point x="196" y="100"/>
      <point x="196" y="102"/>
      <point x="209" y="152" type="curve" smooth="yes"/>
    </contour>
  </outline>
</glyph>
<glyph name="rho" format="2">
  <advance width="517"/>
  <unicode hex="03C1"/>
  <outline>
    <contour>
      <point x="33" y="-173" type="line" smooth="yes"/>
      <point x="30" y="-185"/>
      <point x="30" y="-187"/>
      <point x="30" y="-189" type="curve" smooth="yes"/>
      <point x="30" y="-204"/>
      <point x="41" y="-216"/>
      <point x="58" y="-216" type="curve" smooth="yes"/>
      <point x="79" y="-216"/>
      <point x="91" y="-198"/>
      <point x="93" y="-195" type="curve"/>
      <point x="98" y="-186"/>
      <point x="130" y="-52"/>
      <point x="157" y="56" type="curve"/>
      <point x="177" y="16"/>
      <point x="209" y="-11"/>
      <point x="256" y="-11" type="curve" smooth="yes"/>
      <point x="373" y="-11"/>
      <point x="502" y="130"/>
      <point x="502" y="279" type="curve" smooth="yes"/>
      <point x="502" y="385"/>
      <point x="436" y="442"/>
      <point x="363" y="442" type="curve" smooth="yes"/>
      <point x="266" y="442"/>
      <point x="161" y="342"/>
      <point x="131" y="220" type="curve" smooth="yes"/>
    </contour>
    <contour>
      <point x="255" y="11" type="curve" smooth="yes"/>
      <point x="185" y="11"/>
      <point x="169" y="91"/>
      <point x="169" y="100" type="curve" smooth="yes"/>
      <point x="169" y="104"/>
      <point x="174" y="124"/>
      <point x="177" y="137" type="curve" smooth="yes"/>
      <point x="205" y="249"/>
      <point x="215" y="285"/>
      <point x="237" y="325" type="curve" smooth="yes"/>
      <point x="280" y="398"/>
      <point x="330" y="420"/>
      <point x="361" y="420" type="curve" smooth="yes"/>
      <point x="398" y="420"/>
      <point x="430" y="391"/>
      <point x="430" y="322" type="curve" smooth="yes"/>
      <point x="430" y="267"/>
      <point x="401" y="155"/>
      <point x="374" y="106" type="curve" smooth="yes"/>
      <point x="341" y="43"/>
      <point x="293" y="11"/>
    </contour>
  </outline>
</glyph>
<glyph name="sigma1" format="2">
  <advance width="362"/>
  <unicode hex="03C2"/>
  <outline>
    <contour>
      <point x="231" y="20" type="line" smooth="yes"/>
      <point x="252" y="8"/>
      <point x="270" y="-2"/>
      <point x="270" y="-33" type="curve" smooth="yes"/>
      <point x="270" y="-58"/>
      <point x="253" y="-86"/>
      <point x="224" y="-86" type="curve" smooth="yes"/>
      <point x="218" y="-86"/>
      <point x="201" y="-85"/>
      <point x="183" y="-77" type="curve" smooth="yes"/>
      <point x="181" y="-76"/>
      <point x="177" y="-75"/>
      <point x="174" y="-75" type="curve" smooth="yes"/>
      <point x="169" y="-75"/>
      <point x="163" y="-79"/>
      <point x="163" y="-85" type="curve" smooth="yes"/>
      <point x="163" y="-100"/>
      <point x="208" y="-108"/>
      <point x="224" y="-108" type="curve" smooth="yes"/>
      <point x="281" y="-108"/>
      <point x="326" y="-53"/>
      <point x="326" y="0" type="curve" smooth="yes"/>
      <point x="326" y="50"/>
      <point x="303" y="62"/>
      <point x="227" y="104" type="curve" smooth="yes"/>
      <point x="162" y="140" type="line" smooth="yes"/>
      <point x="125" y="161"/>
      <point x="83" y="184"/>
      <point x="83" y="246" type="curve" smooth="yes"/>
      <point x="83" y="337"/>
      <point x="191" y="420"/>
      <point x="300" y="420" type="curve" smooth="yes"/>
      <point x="321" y="420"/>
      <point x="342" y="417"/>
      <point x="377" y="401" type="curve" smooth="yes"/>
      <point x="386" y="397"/>
      <point x="389" y="395"/>
      <point x="392" y="395" type="curve" smooth="yes"/>
      <point x="400" y="395"/>
      <point x="409" y="404"/>
      <point x="409" y="412" type="curve" smooth="yes"/>
      <point x="409" y="434"/>
      <point x="345" y="442"/>
      <point x="306" y="442" type="curve" smooth="yes"/>
      <point x="154" y="442"/>
      <point x="31" y="327"/>
      <point x="31" y="215" type="curve" smooth="yes"/>
      <point x="31" y="130"/>
      <point x="94" y="95"/>
      <point x="137" y="72" type="curve" smooth="yes"/>
    </contour>
  </outline>
</glyph>
<glyph name="sigma" format="2">
  <advance width="571"/>
  <unicode hex="03C3"/>
  <outline>
    <contour>
      <point x="518" y="373" type="line" smooth="yes"/>
      <point x="531" y="373"/>
      <point x="567" y="373"/>
      <point x="567" y="407" type="curve" smooth="yes"/>
      <point x="567" y="431"/>
      <point x="546" y="431"/>
      <point x="528" y="431" type="curve" smooth="yes"/>
      <point x="300" y="431" type="line" smooth="yes"/>
      <point x="149" y="431"/>
      <point x="38" y="266"/>
      <point x="38" y="147" type="curve" smooth="yes"/>
      <point x="38" y="59"/>
      <point x="97" y="-11"/>
      <point x="188" y="-11" type="curve" smooth="yes"/>
      <point x="306" y="-11"/>
      <point x="439" y="110"/>
      <point x="439" y="264" type="curve" smooth="yes"/>
      <point x="439" y="281"/>
      <point x="439" y="329"/>
      <point x="408" y="373" type="curve"/>
    </contour>
    <contour>
      <point x="189" y="11" type="curve" smooth="yes"/>
      <point x="140" y="11"/>
      <point x="100" y="47"/>
      <point x="100" y="119" type="curve" smooth="yes"/>
      <point x="100" y="149"/>
      <point x="112" y="231"/>
      <point x="147" y="290" type="curve" smooth="yes"/>
      <point x="189" y="359"/>
      <point x="249" y="373"/>
      <point x="283" y="373" type="curve" smooth="yes"/>
      <point x="367" y="373"/>
      <point x="375" y="307"/>
      <point x="375" y="276" type="curve" smooth="yes"/>
      <point x="375" y="229"/>
      <point x="355" y="147"/>
      <point x="321" y="96" type="curve" smooth="yes"/>
      <point x="282" y="37"/>
      <point x="228" y="11"/>
    </contour>
  </outline>
</glyph>
